{"glyphs":{"0":{"ha":996,"x_min":44,"x_max":985,"o":"m 435 -14 q 227 26 315 -14 q 92 135 139 65 q 44 294 44 206 q 47 342 44 325 q 74 485 54 396 q 110 636 93 575 q 274 892 156 799 q 592 986 392 985 q 796 947 707 986 q 935 838 885 907 q 985 681 985 769 q 982 636 985 651 q 955 490 974 579 q 919 342 936 400 q 758 81 872 175 q 435 -14 643 -12 m 465 258 q 560 349 535 258 q 592 490 575 408 q 619 628 610 571 q 622 654 622 644 q 563 718 622 717 q 469 628 493 717 q 437 490 454 571 q 410 349 419 408 q 407 321 407 329 q 465 258 407 258 z "},"1":{"ha":769,"x_min":64,"x_max":807,"o":"m 296 0 q 272 11 281 0 q 265 38 263 22 l 382 579 l 211 467 q 189 460 203 460 q 161 478 171 460 l 65 649 q 64 660 64 653 q 70 685 64 674 q 89 703 76 697 l 479 963 q 511 972 494 972 l 774 972 q 798 961 789 972 q 804 935 807 950 l 613 38 q 597 11 610 22 q 568 0 583 0 l 296 0 z "},"2":{"ha":978,"x_min":-14,"x_max":988,"o":"m 18 0 q -6 11 3 0 q -11 38 -14 22 l 19 182 q 71 257 32 233 l 88 268 l 151 308 q 417 477 332 421 q 553 580 503 533 q 613 663 604 626 q 615 686 615 679 q 574 718 615 718 q 522 701 540 718 q 494 667 503 683 q 482 647 485 651 q 456 622 471 629 q 419 615 440 615 l 158 615 q 139 624 146 615 q 135 646 132 633 q 231 827 158 749 q 407 949 303 906 q 631 992 511 992 q 893 928 799 992 q 988 749 988 864 q 979 681 988 717 q 864 485 957 574 q 597 293 771 397 l 586 286 l 879 286 q 903 275 894 286 q 908 249 911 264 l 864 38 q 847 11 861 22 q 818 0 833 0 l 18 0 z "},"3":{"ha":985,"x_min":19,"x_max":1011,"o":"m 413 -14 q 183 26 271 -14 q 57 124 94 65 q 19 243 19 182 q 22 275 19 256 q 36 297 25 288 q 60 306 47 306 l 339 306 q 363 301 356 306 q 382 283 371 296 q 411 263 392 269 q 471 256 431 256 q 544 276 517 256 q 579 329 571 296 q 581 343 581 335 q 500 390 581 390 l 326 390 q 302 401 311 390 q 297 428 293 413 l 321 540 q 336 574 325 560 q 360 596 347 589 l 576 701 l 211 701 q 187 713 196 701 q 181 739 178 724 l 222 935 q 239 961 225 950 q 268 972 253 972 l 979 972 q 1003 961 994 972 q 1008 935 1011 950 l 971 758 q 932 703 964 722 l 746 594 l 746 590 q 943 376 943 542 q 935 304 943 344 q 840 138 914 210 q 655 26 767 65 q 413 -14 543 -14 z "},"4":{"ha":1047,"x_min":-12,"x_max":1011,"o":"m 468 0 q 444 11 453 0 q 438 38 435 22 l 463 156 l 19 156 q -4 167 4 156 q -10 193 -12 178 l 32 392 q 57 435 38 415 l 560 949 q 615 972 583 972 l 932 972 q 956 961 947 972 q 963 935 965 950 l 856 438 l 976 438 q 1002 426 993 438 q 1008 400 1011 415 l 964 193 q 947 167 961 178 q 918 156 933 156 l 796 156 l 771 38 q 755 11 768 22 q 726 0 742 0 l 468 0 m 383 422 l 529 422 l 572 622 l 383 422 z "},"5":{"ha":958,"x_min":-1,"x_max":961,"o":"m 410 -17 q 192 19 285 -17 q 49 117 99 56 q -1 253 -1 178 q 3 294 -1 274 q 15 316 4 307 q 39 325 26 325 l 319 325 q 365 303 351 325 q 394 265 381 275 q 440 254 408 254 q 506 277 476 254 q 544 340 536 300 q 546 358 546 346 q 528 406 546 388 q 478 425 511 425 q 439 419 454 425 q 407 403 424 414 q 397 397 404 401 q 381 392 389 392 l 104 392 q 87 399 93 392 q 81 417 81 407 q 82 429 81 425 l 243 925 q 269 960 251 949 q 307 972 286 972 l 928 972 q 952 961 943 972 q 958 935 961 950 l 917 739 q 899 713 913 724 q 871 701 886 701 l 465 701 l 433 603 q 519 640 478 629 q 629 650 561 650 q 767 614 704 650 q 868 515 831 578 q 906 376 906 453 q 899 314 906 349 q 747 74 867 164 q 410 -17 628 -17 z "},"6":{"ha":961,"x_min":25,"x_max":946,"o":"m 415 -14 q 132 62 239 -14 q 25 271 25 138 q 33 346 25 307 q 232 649 60 471 l 522 944 q 582 972 546 972 l 861 972 q 881 963 874 972 q 885 942 888 954 q 876 924 883 935 l 651 692 l 661 692 q 791 653 725 686 q 901 559 857 619 q 946 417 946 499 q 939 353 946 390 q 842 165 917 249 q 655 34 767 82 q 415 -14 543 -14 m 469 257 q 542 281 511 257 q 583 347 574 304 q 586 369 586 364 q 565 420 586 403 q 507 438 543 438 q 433 414 465 438 q 392 347 401 390 q 389 325 389 331 q 411 275 389 293 q 469 257 433 257 z "},"7":{"ha":868,"x_min":92,"x_max":965,"o":"m 118 0 q 99 9 106 0 q 94 31 92 18 q 100 43 97 40 l 536 688 l 154 688 q 131 699 139 688 q 125 725 122 710 l 169 935 q 186 961 172 950 q 215 972 200 972 l 933 972 q 958 961 950 972 q 963 935 965 950 l 924 751 q 890 681 917 718 l 450 32 q 425 10 442 21 q 386 0 408 0 l 118 0 z "},"8":{"ha":986,"x_min":22,"x_max":958,"o":"m 429 -14 q 209 25 301 -14 q 69 127 117 64 q 22 264 22 190 q 28 311 22 281 q 87 430 42 376 q 192 514 132 483 q 140 653 140 572 q 146 703 140 681 q 281 906 171 825 q 586 986 392 986 q 788 951 704 986 q 915 856 872 915 q 958 729 958 797 q 954 685 958 708 q 915 587 943 628 q 836 514 886 546 q 897 440 876 483 q 918 346 918 397 q 911 288 918 319 q 765 72 883 157 q 429 -14 646 -14 m 533 601 q 609 628 579 601 q 639 692 639 654 q 619 735 639 718 q 564 751 599 751 q 489 725 518 751 q 460 661 460 699 q 478 618 460 635 q 533 601 497 601 m 451 219 q 526 242 494 219 q 567 301 558 264 q 568 318 568 307 q 546 366 568 349 q 486 383 524 383 q 405 356 439 383 q 371 283 371 329 q 392 236 371 253 q 451 219 414 219 z "},"9":{"ha":949,"x_min":86,"x_max":996,"o":"m 151 0 q 132 9 139 0 q 128 31 125 18 q 138 49 129 40 l 371 292 q 360 293 364 292 q 233 332 296 301 q 128 419 169 363 q 86 556 86 476 q 94 624 86 589 q 183 803 115 721 q 361 936 251 886 q 610 986 471 986 q 896 913 796 986 q 996 711 996 839 q 988 638 996 675 q 922 493 971 560 q 781 329 874 426 l 726 272 l 490 28 q 431 0 467 0 l 151 0 m 518 535 q 588 558 560 535 q 626 625 617 582 q 629 650 629 644 q 610 699 629 682 q 557 715 590 715 q 488 692 517 715 q 449 625 458 668 q 446 599 446 606 q 465 551 446 568 q 518 535 483 535 z "},"\u0000":{"ha":0,"x_min":0,"x_max":0,"o":""},"\r":{"ha":261,"x_min":0,"x_max":0,"o":""}," ":{"ha":261,"x_min":0,"x_max":0,"o":""},"A":{"ha":1057,"x_min":-81,"x_max":978,"o":"m -56 0 q -74 7 -67 0 q -81 25 -81 14 q -76 40 -81 32 l 421 926 q 450 958 432 944 q 493 972 468 972 l 801 972 q 839 959 826 972 q 854 926 851 946 l 976 40 q 967 11 978 22 q 939 0 956 0 l 689 0 q 642 35 644 0 l 628 126 l 329 126 l 276 35 q 253 10 267 19 q 215 0 239 0 l -56 0 m 457 397 l 614 397 l 590 656 l 457 397 z "},"Á":{"ha":1057,"x_min":-81,"x_max":1047,"o":"m -56 0 q -74 7 -67 0 q -81 25 -81 14 q -76 40 -81 32 l 421 926 q 450 958 432 944 q 493 972 468 972 l 801 972 q 839 959 826 972 q 854 926 851 946 l 976 40 q 967 11 978 22 q 939 0 956 0 l 689 0 q 642 35 644 0 l 628 126 l 329 126 l 276 35 q 253 10 267 19 q 215 0 239 0 l -56 0 m 457 397 l 614 397 l 590 656 l 457 397 m 529 1042 q 511 1058 511 1042 q 522 1082 511 1074 l 697 1251 q 727 1273 717 1268 q 754 1278 738 1278 l 1026 1278 q 1044 1270 1039 1278 q 1047 1250 1050 1263 q 1036 1233 1046 1240 l 797 1065 q 767 1047 781 1053 q 733 1042 753 1042 l 529 1042 z "},"Ă":{"ha":1057,"x_min":-81,"x_max":976,"o":"m -56 0 q -74 7 -67 0 q -81 25 -81 14 q -76 40 -81 32 l 421 926 q 450 958 432 944 q 493 972 468 972 l 801 972 q 839 959 826 972 q 854 926 851 946 l 976 40 q 967 11 978 22 q 939 0 956 0 l 689 0 q 642 35 644 0 l 628 126 l 329 126 l 276 35 q 253 10 267 19 q 215 0 239 0 l -56 0 m 457 397 l 614 397 l 590 656 l 457 397 m 671 1035 q 512 1083 571 1035 q 453 1208 453 1131 q 457 1251 453 1229 q 468 1270 460 1263 q 489 1278 476 1278 l 626 1278 q 644 1270 639 1278 q 647 1251 650 1263 q 643 1219 643 1235 q 686 1175 643 1175 q 758 1251 743 1175 q 769 1270 761 1263 q 790 1278 778 1278 l 928 1278 q 946 1270 940 1278 q 949 1251 951 1263 q 863 1092 926 1149 q 671 1035 799 1035 z "},"Â":{"ha":1057,"x_min":-81,"x_max":976,"o":"m -56 0 q -74 7 -67 0 q -81 25 -81 14 q -76 40 -81 32 l 421 926 q 450 958 432 944 q 493 972 468 972 l 801 972 q 839 959 826 972 q 854 926 851 946 l 976 40 q 967 11 978 22 q 939 0 956 0 l 689 0 q 642 35 644 0 l 628 126 l 329 126 l 276 35 q 253 10 267 19 q 215 0 239 0 l -56 0 m 457 397 l 614 397 l 590 656 l 457 397 m 365 1042 q 347 1058 347 1042 q 358 1082 347 1074 l 550 1251 q 579 1272 567 1267 q 607 1278 592 1278 l 788 1278 q 813 1272 803 1278 q 833 1251 822 1267 l 953 1082 q 956 1069 956 1076 q 948 1049 956 1057 q 929 1042 940 1042 l 842 1042 q 788 1051 806 1042 l 672 1110 l 532 1051 q 475 1042 511 1042 l 365 1042 z "},"Ä":{"ha":1057,"x_min":-81,"x_max":1008,"o":"m -56 0 q -74 7 -67 0 q -81 25 -81 14 q -76 40 -81 32 l 421 926 q 450 958 432 944 q 493 972 468 972 l 801 972 q 839 959 826 972 q 854 926 851 946 l 976 40 q 967 11 978 22 q 939 0 956 0 l 689 0 q 642 35 644 0 l 628 126 l 329 126 l 276 35 q 253 10 267 19 q 215 0 239 0 l -56 0 m 457 397 l 614 397 l 590 656 l 457 397 m 386 1042 q 365 1051 372 1042 q 361 1074 358 1060 l 397 1246 q 411 1269 400 1260 q 436 1278 422 1278 l 608 1278 q 629 1269 622 1278 q 633 1246 636 1260 l 597 1074 q 583 1051 594 1060 q 558 1042 572 1042 l 386 1042 m 760 1042 q 739 1051 746 1042 q 735 1074 732 1060 l 771 1246 q 785 1269 774 1260 q 810 1278 796 1278 l 982 1278 q 1003 1269 996 1278 q 1007 1246 1010 1260 l 971 1074 q 957 1051 968 1060 q 932 1042 946 1042 l 760 1042 z "},"À":{"ha":1057,"x_min":-81,"x_max":976,"o":"m -56 0 q -74 7 -67 0 q -81 25 -81 14 q -76 40 -81 32 l 421 926 q 450 958 432 944 q 493 972 468 972 l 801 972 q 839 959 826 972 q 854 926 851 946 l 976 40 q 967 11 978 22 q 939 0 956 0 l 689 0 q 642 35 644 0 l 628 126 l 329 126 l 276 35 q 253 10 267 19 q 215 0 239 0 l -56 0 m 457 397 l 614 397 l 590 656 l 457 397 m 582 1042 q 552 1047 563 1042 q 529 1065 542 1053 l 360 1233 q 357 1244 357 1239 q 366 1268 357 1258 q 389 1278 375 1278 l 647 1278 q 673 1273 664 1278 q 693 1251 682 1268 l 796 1082 q 799 1069 799 1076 q 791 1049 799 1057 q 772 1042 783 1042 l 582 1042 z "},"Ā":{"ha":1057,"x_min":-81,"x_max":985,"o":"m -56 0 q -74 7 -67 0 q -81 25 -81 14 q -76 40 -81 32 l 421 926 q 450 958 432 944 q 493 972 468 972 l 801 972 q 839 959 826 972 q 854 926 851 946 l 976 40 q 967 11 978 22 q 939 0 956 0 l 689 0 q 642 35 644 0 l 628 126 l 329 126 l 276 35 q 253 10 267 19 q 215 0 239 0 l -56 0 m 457 397 l 614 397 l 590 656 l 457 397 m 390 1042 q 369 1051 376 1042 q 365 1074 363 1060 l 396 1218 q 410 1241 399 1232 q 435 1250 421 1250 l 958 1250 q 979 1241 972 1250 q 983 1218 986 1232 l 953 1074 q 939 1051 950 1060 q 914 1042 928 1042 l 390 1042 z "},"Ą":{"ha":1049,"x_min":-64,"x_max":989,"o":"m 844 -306 q 697 -260 744 -306 q 650 -135 650 -214 q 657 -68 650 -97 q 678 0 665 -32 q 647 35 647 6 l 633 126 l 335 126 l 282 35 q 219 0 260 0 l -37 0 q -57 9 -50 0 q -61 31 -64 18 q -58 40 -61 32 l 440 926 q 467 958 449 944 q 513 972 486 972 l 814 972 q 853 958 840 972 q 867 926 865 944 l 988 40 q 988 34 989 36 q 988 31 988 32 q 974 9 985 18 q 950 0 963 0 l 907 0 q 856 -22 875 -1 q 832 -68 838 -43 q 829 -86 829 -79 q 843 -122 829 -107 q 886 -136 857 -136 l 900 -136 q 924 -147 915 -136 q 931 -174 933 -158 l 910 -268 q 893 -294 907 -283 q 864 -306 879 -306 l 844 -306 m 463 397 l 619 397 l 596 656 l 463 397 z "},"Å":{"ha":1057,"x_min":-81,"x_max":976,"o":"m -56 0 q -74 7 -67 0 q -81 25 -81 14 q -76 40 -81 32 l 421 926 q 450 958 432 944 q 493 972 468 972 l 801 972 q 839 959 826 972 q 854 926 851 946 l 976 40 q 967 11 978 22 q 939 0 956 0 l 689 0 q 642 35 644 0 l 628 126 l 329 126 l 276 35 q 253 10 267 19 q 215 0 239 0 l -56 0 m 457 397 l 614 397 l 590 656 l 457 397 m 656 1028 q 574 1056 606 1028 q 542 1132 542 1085 q 566 1212 542 1175 q 630 1270 590 1249 q 711 1292 669 1292 q 793 1263 761 1292 q 825 1188 825 1235 q 801 1108 825 1144 q 737 1049 776 1071 q 656 1028 697 1028 m 675 1118 q 710 1133 694 1118 q 726 1169 726 1149 q 717 1192 726 1183 q 692 1201 707 1201 q 656 1186 672 1201 q 640 1150 640 1171 q 650 1127 640 1136 q 675 1118 660 1118 z "},"Ã":{"ha":1057,"x_min":-81,"x_max":986,"o":"m -56 0 q -74 7 -67 0 q -81 25 -81 14 q -76 40 -81 32 l 421 926 q 450 958 432 944 q 493 972 468 972 l 801 972 q 839 959 826 972 q 854 926 851 946 l 976 40 q 967 11 978 22 q 939 0 956 0 l 689 0 q 642 35 644 0 l 628 126 l 329 126 l 276 35 q 253 10 267 19 q 215 0 239 0 l -56 0 m 457 397 l 614 397 l 590 656 l 457 397 m 765 1035 q 713 1042 735 1035 q 664 1064 690 1050 q 628 1080 643 1075 q 599 1085 614 1085 q 573 1078 583 1085 q 551 1061 563 1072 q 536 1047 543 1051 q 519 1042 529 1042 l 403 1042 q 386 1049 392 1042 q 382 1067 381 1057 q 451 1214 399 1143 q 603 1285 503 1285 q 656 1277 633 1285 q 704 1256 678 1269 q 740 1240 725 1244 q 769 1235 754 1235 q 794 1241 785 1235 q 815 1258 804 1247 q 832 1273 825 1268 q 849 1278 839 1278 l 965 1278 q 983 1270 978 1278 q 986 1251 989 1263 q 917 1106 969 1176 q 765 1035 864 1035 z "},"Æ":{"ha":1411,"x_min":-75,"x_max":1464,"o":"m -49 0 q -67 7 -60 0 q -75 25 -75 14 q -69 40 -75 29 l 428 926 q 455 958 436 944 q 500 972 474 972 l 1431 972 q 1455 961 1446 972 q 1461 935 1464 950 l 1419 739 q 1402 713 1415 724 q 1374 701 1389 701 l 999 701 l 979 614 l 1324 614 q 1348 603 1339 614 q 1354 576 1357 592 l 1315 396 q 1299 369 1313 381 q 1269 358 1285 358 l 925 358 l 907 271 l 1293 271 q 1317 260 1308 271 q 1322 233 1325 249 l 1281 38 q 1265 11 1278 22 q 1236 0 1251 0 l 554 0 q 530 11 539 0 q 524 38 521 22 l 543 126 l 336 126 l 283 35 q 260 10 274 19 q 222 0 246 0 l -49 0 m 464 397 l 600 397 l 665 701 l 621 701 l 464 397 z "},"Ǽ":{"ha":1411,"x_min":-75,"x_max":1463,"o":"m -49 0 q -67 7 -60 0 q -75 25 -75 14 q -69 40 -75 29 l 428 926 q 455 958 436 944 q 500 972 474 972 l 1431 972 q 1455 961 1446 972 q 1461 935 1464 950 l 1419 739 q 1402 713 1415 724 q 1374 701 1389 701 l 999 701 l 979 614 l 1324 614 q 1348 603 1339 614 q 1354 576 1357 592 l 1315 396 q 1299 369 1313 381 q 1269 358 1285 358 l 925 358 l 907 271 l 1293 271 q 1317 260 1308 271 q 1322 233 1325 249 l 1281 38 q 1265 11 1278 22 q 1236 0 1251 0 l 554 0 q 530 11 539 0 q 524 38 521 22 l 543 126 l 336 126 l 283 35 q 260 10 274 19 q 222 0 246 0 l -49 0 m 464 397 l 600 397 l 665 701 l 621 701 l 464 397 m 738 1042 q 719 1058 719 1042 q 731 1082 719 1074 l 906 1251 q 935 1273 925 1268 q 963 1278 946 1278 l 1235 1278 q 1253 1270 1247 1278 q 1256 1250 1258 1263 q 1244 1233 1254 1240 l 1006 1065 q 975 1047 989 1053 q 942 1042 961 1042 l 738 1042 z "},"B":{"ha":1018,"x_min":-7,"x_max":1024,"o":"m 26 0 q 2 11 11 0 q -4 38 -7 22 l 188 935 q 203 961 190 950 q 232 972 217 972 l 665 972 q 929 914 835 972 q 1024 743 1024 856 q 1017 681 1024 718 q 959 574 1004 621 q 868 507 914 528 q 935 445 910 488 q 961 350 961 403 q 957 306 961 329 q 820 74 924 149 q 529 0 717 0 l 26 0 m 581 607 q 627 626 608 607 q 651 669 646 644 q 653 686 653 675 q 642 719 653 706 q 608 733 632 733 l 492 733 l 464 607 l 581 607 m 515 239 q 568 260 547 239 q 593 307 589 281 q 596 325 596 318 q 583 360 596 346 q 544 375 569 375 l 415 375 l 386 239 l 515 239 z "},"C":{"ha":1015,"x_min":35,"x_max":1039,"o":"m 454 -14 q 152 63 269 -14 q 35 292 35 139 q 42 363 35 321 q 94 610 58 463 q 611 986 189 986 q 817 955 719 986 q 977 858 915 924 q 1039 694 1039 792 q 1032 631 1039 668 q 1018 609 1029 618 q 994 600 1007 600 l 711 600 q 681 608 689 600 q 668 640 672 617 q 641 699 663 682 q 581 715 619 715 q 501 690 532 715 q 454 603 469 664 q 404 369 425 488 q 400 332 400 349 q 422 274 400 292 q 483 257 443 257 q 603 332 564 257 q 627 364 615 356 q 663 372 639 372 l 946 372 q 966 363 958 372 q 971 342 974 354 q 791 74 929 161 q 454 -14 653 -14 z "},"Ć":{"ha":1015,"x_min":35,"x_max":1046,"o":"m 454 -14 q 152 63 269 -14 q 35 292 35 139 q 42 363 35 321 q 94 610 58 463 q 611 986 189 986 q 817 955 719 986 q 977 858 915 924 q 1039 694 1039 792 q 1032 631 1039 668 q 1018 609 1029 618 q 994 600 1007 600 l 711 600 q 681 608 689 600 q 668 640 672 617 q 641 699 663 682 q 581 715 619 715 q 501 690 532 715 q 454 603 469 664 q 404 369 425 488 q 400 332 400 349 q 422 274 400 292 q 483 257 443 257 q 603 332 564 257 q 627 364 615 356 q 663 372 639 372 l 946 372 q 966 363 958 372 q 971 342 974 354 q 791 74 929 161 q 454 -14 653 -14 m 528 1042 q 510 1058 510 1042 q 521 1082 510 1074 l 696 1251 q 726 1273 715 1268 q 753 1278 736 1278 l 1025 1278 q 1043 1270 1038 1278 q 1046 1250 1049 1263 q 1035 1233 1044 1240 l 796 1065 q 765 1047 779 1053 q 732 1042 751 1042 l 528 1042 z "},"Č":{"ha":1015,"x_min":35,"x_max":1039,"o":"m 454 -14 q 152 63 269 -14 q 35 292 35 139 q 42 363 35 321 q 94 610 58 463 q 611 986 189 986 q 817 955 719 986 q 977 858 915 924 q 1039 694 1039 792 q 1032 631 1039 668 q 1018 609 1029 618 q 994 600 1007 600 l 711 600 q 681 608 689 600 q 668 640 672 617 q 641 699 663 682 q 581 715 619 715 q 501 690 532 715 q 454 603 469 664 q 404 369 425 488 q 400 332 400 349 q 422 274 400 292 q 483 257 443 257 q 603 332 564 257 q 627 364 615 356 q 663 372 639 372 l 946 372 q 966 363 958 372 q 971 342 974 354 q 791 74 929 161 q 454 -14 653 -14 m 560 1042 q 535 1047 544 1042 q 514 1068 525 1053 l 394 1238 q 392 1250 392 1243 q 399 1270 392 1263 q 418 1278 407 1278 l 506 1278 q 560 1268 542 1278 l 675 1210 l 815 1268 q 872 1278 836 1278 l 982 1278 q 1000 1261 1000 1278 q 989 1238 1000 1246 l 797 1068 q 768 1047 781 1053 q 740 1042 756 1042 l 560 1042 z "},"Ç":{"ha":1018,"x_min":54,"x_max":1058,"o":"m 375 -306 q 302 -290 333 -306 q 271 -254 271 -274 q 283 -235 271 -243 l 318 -210 q 338 -201 331 -201 q 358 -208 342 -201 q 394 -214 374 -214 q 426 -204 413 -214 q 442 -181 439 -194 q 437 -157 444 -167 q 410 -147 429 -147 q 394 -149 401 -147 q 382 -151 388 -150 q 354 -156 367 -156 q 335 -147 342 -156 l 311 -118 q 304 -103 304 -108 q 318 -72 304 -92 l 360 -8 q 134 78 214 7 q 54 279 54 149 q 61 363 54 326 q 114 610 82 490 q 308 891 161 796 q 658 986 454 986 q 945 915 832 986 q 1058 701 1058 844 q 1051 631 1058 663 q 1038 609 1049 618 q 1014 600 1026 600 l 731 600 q 700 608 708 600 q 688 640 692 617 q 660 699 682 682 q 600 715 639 715 q 519 690 551 715 q 472 603 488 664 q 424 369 443 476 q 419 332 419 349 q 441 274 419 292 q 503 257 463 257 q 622 332 583 257 q 647 364 635 356 q 682 372 658 372 l 965 372 q 985 363 978 372 q 989 342 992 354 q 879 141 961 221 q 684 24 797 61 q 446 -14 571 -14 l 411 -62 q 433 -58 418 -60 q 454 -56 447 -56 q 521 -80 497 -56 q 544 -146 544 -104 q 496 -260 544 -214 q 375 -306 447 -306 z "},"Ĉ":{"ha":1015,"x_min":35,"x_max":1039,"o":"m 454 -14 q 152 63 269 -14 q 35 292 35 139 q 42 363 35 321 q 94 610 58 463 q 611 986 189 986 q 817 955 719 986 q 977 858 915 924 q 1039 694 1039 792 q 1032 631 1039 668 q 1018 609 1029 618 q 994 600 1007 600 l 711 600 q 681 608 689 600 q 668 640 672 617 q 641 699 663 682 q 581 715 619 715 q 501 690 532 715 q 454 603 469 664 q 404 369 425 488 q 400 332 400 349 q 422 274 400 292 q 483 257 443 257 q 603 332 564 257 q 627 364 615 356 q 663 372 639 372 l 946 372 q 966 363 958 372 q 971 342 974 354 q 791 74 929 161 q 454 -14 653 -14 m 351 1042 q 333 1058 333 1042 q 344 1082 333 1074 l 536 1251 q 565 1272 553 1267 q 593 1278 578 1278 l 774 1278 q 799 1272 789 1278 q 819 1251 808 1267 l 939 1082 q 942 1069 942 1076 q 934 1049 942 1057 q 915 1042 926 1042 l 828 1042 q 774 1051 792 1042 l 658 1110 l 518 1051 q 461 1042 497 1042 l 351 1042 z "},"Ċ":{"ha":1015,"x_min":35,"x_max":1039,"o":"m 454 -14 q 152 63 269 -14 q 35 292 35 139 q 42 363 35 321 q 94 610 58 463 q 611 986 189 986 q 817 955 719 986 q 977 858 915 924 q 1039 694 1039 792 q 1032 631 1039 668 q 1018 609 1029 618 q 994 600 1007 600 l 711 600 q 681 608 689 600 q 668 640 672 617 q 641 699 663 682 q 581 715 619 715 q 501 690 532 715 q 454 603 469 664 q 404 369 425 488 q 400 332 400 349 q 422 274 400 292 q 483 257 443 257 q 603 332 564 257 q 627 364 615 356 q 663 372 639 372 l 946 372 q 966 363 958 372 q 971 342 974 354 q 791 74 929 161 q 454 -14 653 -14 m 546 1042 q 525 1051 532 1042 q 521 1074 518 1060 l 561 1263 q 574 1285 563 1276 q 600 1294 586 1294 l 789 1294 q 810 1285 803 1294 q 814 1263 817 1276 l 774 1074 q 760 1051 771 1060 q 735 1042 749 1042 l 546 1042 z "},"D":{"ha":1026,"x_min":-7,"x_max":1021,"o":"m 26 0 q 2 11 11 0 q -4 38 -7 22 l 188 935 q 203 961 190 950 q 232 972 217 972 l 604 972 q 809 935 714 972 q 963 824 904 897 q 1021 651 1021 751 q 1015 590 1021 618 q 971 383 996 481 q 800 92 921 185 q 461 0 679 0 l 26 0 m 483 271 q 567 299 532 271 q 618 383 603 328 q 663 590 646 490 q 665 615 665 607 q 639 680 665 658 q 568 701 613 701 l 485 701 l 393 271 l 483 271 z "},"Ð":{"ha":1057,"x_min":15,"x_max":1051,"o":"m 57 0 q 33 11 42 0 q 26 38 24 22 l 100 382 l 47 382 q 24 393 32 382 q 18 419 15 404 l 47 560 q 64 586 50 575 q 93 597 78 597 l 146 597 l 218 935 q 234 961 221 950 q 263 972 247 972 l 635 972 q 840 935 744 972 q 993 824 935 897 q 1051 651 1051 751 q 1046 590 1051 618 q 1001 383 1026 481 q 831 92 951 185 q 492 0 710 0 l 57 0 m 514 271 q 598 299 563 271 q 649 383 633 328 q 693 590 676 490 q 696 615 696 607 q 669 680 696 658 q 599 701 643 701 l 515 701 l 493 597 l 571 597 q 594 586 586 597 q 600 560 603 575 l 571 419 q 554 393 568 404 q 525 382 540 382 l 447 382 l 424 271 l 514 271 z "},"Ď":{"ha":1026,"x_min":-6,"x_max":1021,"o":"m 26 0 q 2 11 11 0 q -4 38 -7 22 l 188 935 q 203 961 190 950 q 232 972 217 972 l 604 972 q 809 935 714 972 q 963 824 904 897 q 1021 651 1021 751 q 1015 590 1021 618 q 971 383 996 481 q 800 92 921 185 q 461 0 679 0 l 26 0 m 483 271 q 567 299 532 271 q 618 383 603 328 q 663 590 646 490 q 665 615 665 607 q 639 680 665 658 q 568 701 613 701 l 485 701 l 393 271 l 483 271 m 489 1042 q 464 1047 474 1042 q 443 1068 454 1053 l 324 1238 q 321 1250 321 1243 q 328 1270 321 1263 q 347 1278 336 1278 l 435 1278 q 489 1268 471 1278 l 604 1210 l 744 1268 q 801 1278 765 1278 l 911 1278 q 929 1261 929 1278 q 918 1238 929 1246 l 726 1068 q 697 1047 710 1053 q 669 1042 685 1042 l 489 1042 z "},"Đ":{"ha":1057,"x_min":15,"x_max":1051,"o":"m 57 0 q 33 11 42 0 q 26 38 24 22 l 100 382 l 47 382 q 24 393 32 382 q 18 419 15 404 l 47 560 q 64 586 50 575 q 93 597 78 597 l 146 597 l 218 935 q 234 961 221 950 q 263 972 247 972 l 635 972 q 840 935 744 972 q 993 824 935 897 q 1051 651 1051 751 q 1046 590 1051 618 q 1001 383 1026 481 q 831 92 951 185 q 492 0 710 0 l 57 0 m 514 271 q 598 299 563 271 q 649 383 633 328 q 693 590 676 490 q 696 615 696 607 q 669 680 696 658 q 599 701 643 701 l 515 701 l 493 597 l 571 597 q 594 586 586 597 q 600 560 603 575 l 571 419 q 554 393 568 404 q 525 382 540 382 l 447 382 l 424 271 l 514 271 z "},"E":{"ha":925,"x_min":-7,"x_max":978,"o":"m 26 0 q 2 11 11 0 q -4 38 -7 22 l 188 935 q 203 961 190 950 q 232 972 217 972 l 944 972 q 969 961 960 972 q 975 935 978 950 l 933 739 q 916 713 929 724 q 888 701 903 701 l 471 701 l 451 614 l 838 614 q 862 603 853 614 q 868 576 871 592 l 829 396 q 813 369 826 381 q 783 358 799 358 l 397 358 l 379 271 l 807 271 q 831 260 822 271 q 836 233 839 249 l 794 38 q 778 11 792 22 q 750 0 765 0 l 26 0 z "},"É":{"ha":925,"x_min":-6,"x_max":985,"o":"m 26 0 q 2 11 11 0 q -4 38 -7 22 l 188 935 q 203 961 190 950 q 232 972 217 972 l 944 972 q 969 961 960 972 q 975 935 978 950 l 933 739 q 916 713 929 724 q 888 701 903 701 l 471 701 l 451 614 l 838 614 q 862 603 853 614 q 868 576 871 592 l 829 396 q 813 369 826 381 q 783 358 799 358 l 397 358 l 379 271 l 807 271 q 831 260 822 271 q 836 233 839 249 l 794 38 q 778 11 792 22 q 750 0 765 0 l 26 0 m 467 1042 q 449 1058 449 1042 q 460 1082 449 1074 l 635 1251 q 665 1273 654 1268 q 692 1278 675 1278 l 964 1278 q 982 1270 976 1278 q 985 1250 988 1263 q 974 1233 983 1240 l 735 1065 q 704 1047 718 1053 q 671 1042 690 1042 l 467 1042 z "},"Ĕ":{"ha":925,"x_min":-6,"x_max":976,"o":"m 26 0 q 2 11 11 0 q -4 38 -7 22 l 188 935 q 203 961 190 950 q 232 972 217 972 l 944 972 q 969 961 960 972 q 975 935 978 950 l 933 739 q 916 713 929 724 q 888 701 903 701 l 471 701 l 451 614 l 838 614 q 862 603 853 614 q 868 576 871 592 l 829 396 q 813 369 826 381 q 783 358 799 358 l 397 358 l 379 271 l 807 271 q 831 260 822 271 q 836 233 839 249 l 794 38 q 778 11 792 22 q 750 0 765 0 l 26 0 m 604 1035 q 445 1083 504 1035 q 386 1208 386 1131 q 390 1251 386 1229 q 401 1270 393 1263 q 422 1278 410 1278 l 560 1278 q 578 1270 572 1278 q 581 1251 583 1263 q 576 1219 576 1235 q 619 1175 576 1175 q 692 1251 676 1175 q 703 1270 694 1263 q 724 1278 711 1278 l 861 1278 q 879 1270 874 1278 q 882 1251 885 1263 q 796 1092 860 1149 q 604 1035 732 1035 z "},"Ě":{"ha":925,"x_min":-6,"x_max":976,"o":"m 26 0 q 2 11 11 0 q -4 38 -7 22 l 188 935 q 203 961 190 950 q 232 972 217 972 l 944 972 q 969 961 960 972 q 975 935 978 950 l 933 739 q 916 713 929 724 q 888 701 903 701 l 471 701 l 451 614 l 838 614 q 862 603 853 614 q 868 576 871 592 l 829 396 q 813 369 826 381 q 783 358 799 358 l 397 358 l 379 271 l 807 271 q 831 260 822 271 q 836 233 839 249 l 794 38 q 778 11 792 22 q 750 0 765 0 l 26 0 m 500 1042 q 475 1047 485 1042 q 454 1068 465 1053 l 335 1238 q 332 1250 332 1243 q 340 1270 332 1263 q 358 1278 347 1278 l 446 1278 q 500 1268 482 1278 l 615 1210 l 756 1268 q 813 1278 776 1278 l 922 1278 q 940 1261 940 1278 q 929 1238 940 1246 l 738 1068 q 708 1047 721 1053 q 681 1042 696 1042 l 500 1042 z "},"Ê":{"ha":925,"x_min":-6,"x_max":976,"o":"m 26 0 q 2 11 11 0 q -4 38 -7 22 l 188 935 q 203 961 190 950 q 232 972 217 972 l 944 972 q 969 961 960 972 q 975 935 978 950 l 933 739 q 916 713 929 724 q 888 701 903 701 l 471 701 l 451 614 l 838 614 q 862 603 853 614 q 868 576 871 592 l 829 396 q 813 369 826 381 q 783 358 799 358 l 397 358 l 379 271 l 807 271 q 831 260 822 271 q 836 233 839 249 l 794 38 q 778 11 792 22 q 750 0 765 0 l 26 0 m 299 1042 q 281 1058 281 1042 q 292 1082 281 1074 l 483 1251 q 513 1272 500 1267 q 540 1278 525 1278 l 721 1278 q 746 1272 736 1278 q 767 1251 756 1267 l 886 1082 q 889 1069 889 1076 q 881 1049 889 1057 q 863 1042 874 1042 l 775 1042 q 721 1051 739 1042 l 606 1110 l 465 1051 q 408 1042 444 1042 l 299 1042 z "},"Ë":{"ha":925,"x_min":-6,"x_max":976,"o":"m 26 0 q 2 11 11 0 q -4 38 -7 22 l 188 935 q 203 961 190 950 q 232 972 217 972 l 944 972 q 969 961 960 972 q 975 935 978 950 l 933 739 q 916 713 929 724 q 888 701 903 701 l 471 701 l 451 614 l 838 614 q 862 603 853 614 q 868 576 871 592 l 829 396 q 813 369 826 381 q 783 358 799 358 l 397 358 l 379 271 l 807 271 q 831 260 822 271 q 836 233 839 249 l 794 38 q 778 11 792 22 q 750 0 765 0 l 26 0 m 329 1042 q 308 1051 315 1042 q 304 1074 301 1060 l 340 1246 q 354 1269 343 1260 q 379 1278 365 1278 l 551 1278 q 572 1269 565 1278 q 576 1246 579 1260 l 540 1074 q 526 1051 538 1060 q 501 1042 515 1042 l 329 1042 m 703 1042 q 682 1051 689 1042 q 678 1074 675 1060 l 714 1246 q 728 1269 717 1260 q 753 1278 739 1278 l 925 1278 q 946 1269 939 1278 q 950 1246 953 1260 l 914 1074 q 900 1051 911 1060 q 875 1042 889 1042 l 703 1042 z "},"Ė":{"ha":925,"x_min":-6,"x_max":976,"o":"m 26 0 q 2 11 11 0 q -4 38 -7 22 l 188 935 q 203 961 190 950 q 232 972 217 972 l 944 972 q 969 961 960 972 q 975 935 978 950 l 933 739 q 916 713 929 724 q 888 701 903 701 l 471 701 l 451 614 l 838 614 q 862 603 853 614 q 868 576 871 592 l 829 396 q 813 369 826 381 q 783 358 799 358 l 397 358 l 379 271 l 807 271 q 831 260 822 271 q 836 233 839 249 l 794 38 q 778 11 792 22 q 750 0 765 0 l 26 0 m 508 1042 q 488 1051 494 1042 q 483 1074 481 1060 l 524 1263 q 537 1285 525 1276 q 563 1294 549 1294 l 751 1294 q 772 1285 765 1294 q 776 1263 779 1276 l 736 1074 q 722 1051 733 1060 q 697 1042 711 1042 l 508 1042 z "},"È":{"ha":925,"x_min":-6,"x_max":976,"o":"m 26 0 q 2 11 11 0 q -4 38 -7 22 l 188 935 q 203 961 190 950 q 232 972 217 972 l 944 972 q 969 961 960 972 q 975 935 978 950 l 933 739 q 916 713 929 724 q 888 701 903 701 l 471 701 l 451 614 l 838 614 q 862 603 853 614 q 868 576 871 592 l 829 396 q 813 369 826 381 q 783 358 799 358 l 397 358 l 379 271 l 807 271 q 831 260 822 271 q 836 233 839 249 l 794 38 q 778 11 792 22 q 750 0 765 0 l 26 0 m 526 1042 q 497 1047 507 1042 q 474 1065 486 1053 l 304 1233 q 301 1244 301 1239 q 310 1268 301 1258 q 333 1278 319 1278 l 592 1278 q 617 1273 608 1278 q 638 1251 626 1268 l 740 1082 q 743 1069 743 1076 q 735 1049 743 1057 q 717 1042 728 1042 l 526 1042 z "},"Ē":{"ha":925,"x_min":-6,"x_max":976,"o":"m 26 0 q 2 11 11 0 q -4 38 -7 22 l 188 935 q 203 961 190 950 q 232 972 217 972 l 944 972 q 969 961 960 972 q 975 935 978 950 l 933 739 q 916 713 929 724 q 888 701 903 701 l 471 701 l 451 614 l 838 614 q 862 603 853 614 q 868 576 871 592 l 829 396 q 813 369 826 381 q 783 358 799 358 l 397 358 l 379 271 l 807 271 q 831 260 822 271 q 836 233 839 249 l 794 38 q 778 11 792 22 q 750 0 765 0 l 26 0 m 340 1042 q 319 1051 326 1042 q 315 1074 313 1060 l 346 1218 q 360 1241 349 1232 q 385 1250 371 1250 l 908 1250 q 929 1241 922 1250 q 933 1218 936 1232 l 903 1074 q 889 1051 900 1060 q 864 1042 878 1042 l 340 1042 z "},"Ę":{"ha":925,"x_min":-7,"x_max":978,"o":"m 679 -306 q 523 -251 576 -306 q 469 -112 469 -197 q 476 -54 469 -86 q 492 0 485 -18 l 26 0 q 2 11 11 0 q -4 38 -7 22 l 188 935 q 203 961 190 950 q 232 972 217 972 l 944 972 q 969 961 960 972 q 975 935 978 950 l 933 739 q 916 713 929 724 q 888 701 903 701 l 471 701 l 451 614 l 838 614 q 862 603 853 614 q 868 576 871 592 l 829 396 q 813 369 826 381 q 783 358 799 358 l 397 358 l 379 271 l 807 271 q 831 260 822 271 q 836 233 839 249 l 794 38 q 778 11 792 22 q 750 0 765 0 l 728 0 q 669 -30 688 -1 q 650 -85 650 -58 q 663 -122 650 -107 q 707 -136 676 -136 l 721 -136 q 744 -147 736 -136 q 750 -174 753 -158 l 729 -268 q 713 -294 726 -283 q 685 -306 700 -306 l 679 -306 z "},"F":{"ha":897,"x_min":-7,"x_max":965,"o":"m 26 0 q 2 11 11 0 q -4 38 -7 22 l 188 935 q 203 961 190 950 q 232 972 217 972 l 932 972 q 956 961 947 972 q 963 935 965 950 l 917 724 q 901 697 914 708 q 872 686 888 686 l 475 686 l 453 583 l 822 583 q 846 572 838 583 q 851 546 854 561 l 807 336 q 790 310 804 321 q 761 299 776 299 l 392 299 l 336 38 q 320 11 333 22 q 292 0 307 0 l 26 0 z "},"G":{"ha":1046,"x_min":54,"x_max":1078,"o":"m 449 -14 q 157 60 260 -14 q 54 283 54 135 q 63 368 54 322 q 115 618 81 478 q 305 892 160 799 q 661 986 450 986 q 885 951 792 986 q 1028 855 979 915 q 1078 719 1078 794 q 1074 676 1078 697 q 1060 655 1071 664 q 1036 646 1049 646 l 729 646 q 692 661 703 646 q 683 678 690 663 q 656 704 676 693 q 604 715 635 715 q 475 611 500 715 q 425 375 447 503 q 421 339 421 357 q 513 257 421 257 q 604 281 568 257 q 651 356 640 304 l 651 357 l 586 357 q 562 368 571 357 q 557 394 553 379 l 589 549 q 606 575 592 564 q 635 586 619 586 l 1017 586 q 1040 575 1032 586 q 1046 549 1049 564 l 1008 368 q 817 85 968 185 q 449 -14 665 -14 z "},"Ğ":{"ha":1046,"x_min":54,"x_max":1078,"o":"m 449 -14 q 157 60 260 -14 q 54 283 54 135 q 63 368 54 322 q 115 618 81 478 q 305 892 160 799 q 661 986 450 986 q 885 951 792 986 q 1028 855 979 915 q 1078 719 1078 794 q 1074 676 1078 697 q 1060 655 1071 664 q 1036 646 1049 646 l 729 646 q 692 661 703 646 q 683 678 690 663 q 656 704 676 693 q 604 715 635 715 q 475 611 500 715 q 425 375 447 503 q 421 339 421 357 q 513 257 421 257 q 604 281 568 257 q 651 356 640 304 l 651 357 l 586 357 q 562 368 571 357 q 557 394 553 379 l 589 549 q 606 575 592 564 q 635 586 619 586 l 1017 586 q 1040 575 1032 586 q 1046 549 1049 564 l 1008 368 q 817 85 968 185 q 449 -14 665 -14 m 656 1035 q 497 1083 556 1035 q 438 1208 438 1131 q 442 1251 438 1229 q 453 1270 444 1263 q 474 1278 461 1278 l 611 1278 q 629 1270 624 1278 q 632 1251 635 1263 q 628 1219 628 1235 q 671 1175 628 1175 q 743 1251 728 1175 q 754 1270 746 1263 q 775 1278 763 1278 l 913 1278 q 931 1270 925 1278 q 933 1251 936 1263 q 847 1092 911 1149 q 656 1035 783 1035 z "},"Ĝ":{"ha":1046,"x_min":54,"x_max":1078,"o":"m 449 -14 q 157 60 260 -14 q 54 283 54 135 q 63 368 54 322 q 115 618 81 478 q 305 892 160 799 q 661 986 450 986 q 885 951 792 986 q 1028 855 979 915 q 1078 719 1078 794 q 1074 676 1078 697 q 1060 655 1071 664 q 1036 646 1049 646 l 729 646 q 692 661 703 646 q 683 678 690 663 q 656 704 676 693 q 604 715 635 715 q 475 611 500 715 q 425 375 447 503 q 421 339 421 357 q 513 257 421 257 q 604 281 568 257 q 651 356 640 304 l 651 357 l 586 357 q 562 368 571 357 q 557 394 553 379 l 589 549 q 606 575 592 564 q 635 586 619 586 l 1017 586 q 1040 575 1032 586 q 1046 549 1049 564 l 1008 368 q 817 85 968 185 q 449 -14 665 -14 m 354 1042 q 336 1058 336 1042 q 347 1082 336 1074 l 539 1251 q 568 1272 556 1267 q 596 1278 581 1278 l 776 1278 q 801 1272 792 1278 q 822 1251 811 1267 l 942 1082 q 944 1069 944 1076 q 937 1049 944 1057 q 918 1042 929 1042 l 831 1042 q 776 1051 794 1042 l 661 1110 l 521 1051 q 464 1042 500 1042 l 354 1042 z "},"Ģ":{"ha":1046,"x_min":54,"x_max":1078,"o":"m 449 -14 q 157 60 260 -14 q 54 283 54 135 q 63 368 54 322 q 115 618 81 478 q 305 892 160 799 q 661 986 450 986 q 885 951 792 986 q 1028 855 979 915 q 1078 719 1078 794 q 1074 676 1078 697 q 1060 655 1071 664 q 1036 646 1049 646 l 729 646 q 692 661 703 646 q 683 678 690 663 q 656 704 676 693 q 604 715 635 715 q 475 611 500 715 q 425 375 447 503 q 421 339 421 357 q 513 257 421 257 q 604 281 568 257 q 651 356 640 304 l 651 357 l 586 357 q 562 368 571 357 q 557 394 553 379 l 589 549 q 606 575 592 564 q 635 586 619 586 l 1017 586 q 1040 575 1032 586 q 1046 549 1049 564 l 1008 368 q 817 85 968 185 q 449 -14 665 -14 m 208 -347 q 187 -337 194 -347 q 185 -314 179 -326 l 256 -124 q 281 -86 263 -103 q 326 -69 300 -69 l 536 -69 q 554 -77 547 -69 q 561 -94 561 -85 q 557 -110 561 -101 l 439 -303 q 369 -347 411 -347 l 208 -347 z "},"Ġ":{"ha":1046,"x_min":54,"x_max":1078,"o":"m 449 -14 q 157 60 260 -14 q 54 283 54 135 q 63 368 54 322 q 115 618 81 478 q 305 892 160 799 q 661 986 450 986 q 885 951 792 986 q 1028 855 979 915 q 1078 719 1078 794 q 1074 676 1078 697 q 1060 655 1071 664 q 1036 646 1049 646 l 729 646 q 692 661 703 646 q 683 678 690 663 q 656 704 676 693 q 604 715 635 715 q 475 611 500 715 q 425 375 447 503 q 421 339 421 357 q 513 257 421 257 q 604 281 568 257 q 651 356 640 304 l 651 357 l 586 357 q 562 368 571 357 q 557 394 553 379 l 589 549 q 606 575 592 564 q 635 586 619 586 l 1017 586 q 1040 575 1032 586 q 1046 549 1049 564 l 1008 368 q 817 85 968 185 q 449 -14 665 -14 m 549 1042 q 528 1051 535 1042 q 524 1074 521 1060 l 564 1263 q 577 1285 565 1276 q 603 1294 589 1294 l 792 1294 q 813 1285 806 1294 q 817 1263 819 1276 l 776 1074 q 763 1051 774 1060 q 738 1042 751 1042 l 549 1042 z "},"H":{"ha":1071,"x_min":-7,"x_max":1110,"o":"m 26 0 q 2 10 11 0 q -4 38 -7 21 l 188 935 q 203 961 190 950 q 232 972 217 972 l 504 972 q 528 961 519 972 q 535 935 538 950 l 472 643 l 697 643 l 760 935 q 776 961 763 950 q 804 972 789 972 l 1076 972 q 1101 961 1092 972 q 1107 935 1110 950 l 915 38 q 899 11 913 22 q 871 0 886 0 l 599 0 q 574 11 583 0 q 568 38 565 22 l 632 338 l 407 338 l 343 38 q 327 11 340 22 q 299 0 314 0 l 26 0 z "},"Ħ":{"ha":1071,"x_min":-7,"x_max":1110,"o":"m 1076 972 q 1101 961 1092 972 q 1107 935 1110 950 l 915 38 q 899 11 913 22 q 871 0 886 0 l 599 0 q 574 11 583 0 q 568 38 565 22 l 632 338 l 407 338 l 343 38 q 327 11 340 22 q 299 0 314 0 l 26 0 q 2 10 11 0 q -4 38 -7 21 l 188 935 q 203 961 190 950 q 232 972 217 972 l 504 972 q 528 961 519 972 q 535 935 538 950 l 526 893 l 751 893 l 760 935 q 776 961 763 950 q 804 972 789 972 l 1076 972 m 472 643 l 697 643 l 714 724 l 489 724 l 472 643 z "},"Ĥ":{"ha":1071,"x_min":-6,"x_max":1108,"o":"m 26 0 q 2 10 11 0 q -4 38 -7 21 l 188 935 q 203 961 190 950 q 232 972 217 972 l 504 972 q 528 961 519 972 q 535 935 538 950 l 472 643 l 697 643 l 760 935 q 776 961 763 950 q 804 972 789 972 l 1076 972 q 1101 961 1092 972 q 1107 935 1110 950 l 915 38 q 899 11 913 22 q 871 0 886 0 l 599 0 q 574 11 583 0 q 568 38 565 22 l 632 338 l 407 338 l 343 38 q 327 11 340 22 q 299 0 314 0 l 26 0 m 364 1042 q 346 1058 346 1042 q 357 1082 346 1074 l 549 1251 q 578 1272 565 1267 q 606 1278 590 1278 l 786 1278 q 811 1272 801 1278 q 832 1251 821 1267 l 951 1082 q 954 1069 954 1076 q 947 1049 954 1057 q 928 1042 939 1042 l 840 1042 q 786 1051 804 1042 l 671 1110 l 531 1051 q 474 1042 510 1042 l 364 1042 z "},"I":{"ha":510,"x_min":-7,"x_max":549,"o":"m 26 0 q 2 11 11 0 q -4 38 -7 22 l 188 935 q 203 961 190 950 q 232 972 217 972 l 515 972 q 540 961 531 972 q 546 935 549 950 l 354 38 q 338 11 351 22 q 310 0 325 0 l 26 0 z "},"Ĳ":{"ha":1121,"x_min":-7,"x_max":1167,"o":"m 26 0 q 2 11 11 0 q -4 38 -7 22 l 188 935 q 203 961 190 950 q 232 972 217 972 l 515 972 q 540 961 531 972 q 546 935 549 950 l 354 38 q 338 11 351 22 q 310 0 325 0 l 26 0 m 492 -14 q 468 -3 476 -14 q 463 24 460 8 l 510 247 q 527 274 514 263 q 556 285 540 285 q 647 313 615 285 q 693 414 678 342 l 804 935 q 820 961 807 950 q 849 972 833 972 l 1133 972 q 1158 961 1149 972 q 1164 935 1167 950 l 1040 358 q 944 131 1010 211 q 772 18 879 50 q 492 -14 664 -14 z "},"Í":{"ha":510,"x_min":-6,"x_max":793,"o":"m 26 0 q 2 11 11 0 q -4 38 -7 22 l 188 935 q 203 961 190 950 q 232 972 217 972 l 515 972 q 540 961 531 972 q 546 935 549 950 l 354 38 q 338 11 351 22 q 310 0 325 0 l 26 0 m 275 1042 q 257 1058 257 1042 q 268 1082 257 1074 l 443 1251 q 473 1273 463 1268 q 500 1278 483 1278 l 772 1278 q 790 1270 785 1278 q 793 1250 796 1263 q 782 1233 792 1240 l 543 1065 q 513 1047 526 1053 q 479 1042 499 1042 l 275 1042 z "},"Ĭ":{"ha":510,"x_min":-6,"x_max":679,"o":"m 26 0 q 2 11 11 0 q -4 38 -7 22 l 188 935 q 203 961 190 950 q 232 972 217 972 l 515 972 q 540 961 531 972 q 546 935 549 950 l 354 38 q 338 11 351 22 q 310 0 325 0 l 26 0 m 401 1035 q 242 1083 301 1035 q 183 1208 183 1131 q 188 1251 183 1229 q 199 1270 190 1263 q 219 1278 207 1278 l 357 1278 q 375 1270 369 1278 q 378 1251 381 1263 q 374 1219 374 1235 q 417 1175 374 1175 q 489 1251 474 1175 q 500 1270 492 1263 q 521 1278 508 1278 l 658 1278 q 676 1270 671 1278 q 679 1251 682 1263 q 593 1092 657 1149 q 401 1035 529 1035 z "},"Î":{"ha":510,"x_min":-6,"x_max":686,"o":"m 26 0 q 2 11 11 0 q -4 38 -7 22 l 188 935 q 203 961 190 950 q 232 972 217 972 l 515 972 q 540 961 531 972 q 546 935 549 950 l 354 38 q 338 11 351 22 q 310 0 325 0 l 26 0 m 96 1042 q 78 1058 78 1042 q 89 1082 78 1074 l 281 1251 q 310 1272 297 1267 q 338 1278 322 1278 l 518 1278 q 543 1272 533 1278 q 564 1251 553 1267 l 683 1082 q 686 1069 686 1076 q 678 1049 686 1057 q 660 1042 671 1042 l 572 1042 q 518 1051 536 1042 l 403 1110 l 263 1051 q 206 1042 242 1042 l 96 1042 z "},"Ï":{"ha":510,"x_min":-6,"x_max":739,"o":"m 26 0 q 2 11 11 0 q -4 38 -7 22 l 188 935 q 203 961 190 950 q 232 972 217 972 l 515 972 q 540 961 531 972 q 546 935 549 950 l 354 38 q 338 11 351 22 q 310 0 325 0 l 26 0 m 117 1042 q 96 1051 103 1042 q 92 1074 89 1060 l 128 1246 q 142 1269 131 1260 q 167 1278 153 1278 l 339 1278 q 360 1269 353 1278 q 364 1246 367 1260 l 328 1074 q 314 1051 325 1060 q 289 1042 303 1042 l 117 1042 m 490 1042 q 469 1051 476 1042 q 465 1074 463 1060 l 501 1246 q 515 1269 504 1260 q 540 1278 526 1278 l 713 1278 q 733 1269 726 1278 q 738 1246 740 1260 l 701 1074 q 688 1051 699 1060 q 663 1042 676 1042 l 490 1042 z "},"İ":{"ha":510,"x_min":-6,"x_max":563,"o":"m 26 0 q 2 11 11 0 q -4 38 -7 22 l 188 935 q 203 961 190 950 q 232 972 217 972 l 515 972 q 540 961 531 972 q 546 935 549 950 l 354 38 q 338 11 351 22 q 310 0 325 0 l 26 0 m 294 1042 q 274 1051 281 1042 q 269 1074 267 1060 l 310 1263 q 323 1285 311 1276 q 349 1294 335 1294 l 538 1294 q 558 1285 551 1294 q 563 1263 565 1276 l 522 1074 q 508 1051 519 1060 q 483 1042 497 1042 l 294 1042 z "},"Ì":{"ha":510,"x_min":-6,"x_max":547,"o":"m 26 0 q 2 11 11 0 q -4 38 -7 22 l 188 935 q 203 961 190 950 q 232 972 217 972 l 515 972 q 540 961 531 972 q 546 935 549 950 l 354 38 q 338 11 351 22 q 310 0 325 0 l 26 0 m 306 1042 q 276 1047 286 1042 q 253 1065 265 1053 l 83 1233 q 81 1244 81 1239 q 90 1268 81 1258 q 113 1278 99 1278 l 371 1278 q 397 1273 388 1278 q 417 1251 406 1268 l 519 1082 q 522 1069 522 1076 q 515 1049 522 1057 q 496 1042 507 1042 l 306 1042 z "},"Ī":{"ha":510,"x_min":-6,"x_max":722,"o":"m 26 0 q 2 11 11 0 q -4 38 -7 22 l 188 935 q 203 961 190 950 q 232 972 217 972 l 515 972 q 540 961 531 972 q 546 935 549 950 l 354 38 q 338 11 351 22 q 310 0 325 0 l 26 0 m 128 1042 q 107 1051 114 1042 q 103 1074 100 1060 l 133 1218 q 147 1241 136 1232 q 172 1250 158 1250 l 696 1250 q 717 1241 710 1250 q 721 1218 724 1232 l 690 1074 q 676 1051 688 1060 q 651 1042 665 1042 l 128 1042 z "},"Į":{"ha":511,"x_min":14,"x_max":568,"o":"m 244 -308 q 97 -262 146 -308 q 49 -137 49 -215 q 57 -69 49 -106 q 78 0 61 -44 l 46 0 q 22 11 31 0 q 17 38 14 22 l 207 935 q 224 961 210 950 q 253 972 238 972 l 536 972 q 560 961 551 972 q 565 935 568 950 l 375 38 q 358 11 372 22 q 329 0 344 0 l 315 0 q 258 -22 279 0 q 232 -69 238 -43 q 229 -87 229 -81 q 242 -124 229 -110 q 286 -139 256 -139 l 300 -139 q 324 -150 315 -139 q 329 -176 332 -161 l 310 -271 q 293 -297 307 -286 q 264 -308 279 -308 l 244 -308 z "},"Ĩ":{"ha":510,"x_min":-6,"x_max":717,"o":"m 26 0 q 2 11 11 0 q -4 38 -7 22 l 188 935 q 203 961 190 950 q 232 972 217 972 l 515 972 q 540 961 531 972 q 546 935 549 950 l 354 38 q 338 11 351 22 q 310 0 325 0 l 26 0 m 496 1035 q 443 1042 465 1035 q 394 1064 421 1050 q 359 1080 374 1075 q 329 1085 344 1085 q 303 1078 314 1085 q 282 1061 293 1072 q 267 1047 274 1051 q 250 1042 260 1042 l 133 1042 q 117 1049 122 1042 q 113 1067 111 1057 q 181 1214 129 1143 q 333 1285 233 1285 q 386 1277 364 1285 q 435 1256 408 1269 q 470 1240 456 1244 q 500 1235 485 1235 q 525 1241 515 1235 q 546 1258 535 1247 q 563 1273 556 1268 q 579 1278 569 1278 l 696 1278 q 714 1270 708 1278 q 717 1251 719 1263 q 647 1106 700 1176 q 496 1035 594 1035 z "},"J":{"ha":969,"x_min":-14,"x_max":1017,"o":"m 400 -14 q 207 22 303 -14 q 49 124 111 57 q -14 279 -14 190 q -10 326 -14 301 q 4 348 -7 339 q 28 357 15 357 l 311 357 q 343 347 333 357 q 358 313 353 336 q 381 269 367 282 q 428 257 396 257 q 494 283 468 257 q 533 369 521 308 l 601 690 l 189 690 q 165 701 174 690 q 160 728 157 713 l 204 935 q 220 961 207 950 q 249 972 233 972 l 983 972 q 1008 961 999 972 q 1014 935 1017 950 l 890 358 q 731 76 850 167 q 400 -14 611 -14 z "},"Ĵ":{"ha":969,"x_min":-14,"x_max":1015,"o":"m 400 -14 q 207 22 303 -14 q 49 124 111 57 q -14 279 -14 190 q -10 326 -14 301 q 4 348 -7 339 q 28 357 15 357 l 311 357 q 343 347 333 357 q 358 313 353 336 q 381 269 367 282 q 428 257 396 257 q 494 283 468 257 q 533 369 521 308 l 601 690 l 189 690 q 165 701 174 690 q 160 728 157 713 l 204 935 q 220 961 207 950 q 249 972 233 972 l 983 972 q 1008 961 999 972 q 1014 935 1017 950 l 890 358 q 731 76 850 167 q 400 -14 611 -14 m 335 1042 q 317 1058 317 1042 q 328 1082 317 1074 l 519 1251 q 549 1272 536 1267 q 576 1278 561 1278 l 757 1278 q 782 1272 772 1278 q 803 1251 792 1267 l 922 1082 q 925 1069 925 1076 q 917 1049 925 1057 q 899 1042 910 1042 l 811 1042 q 757 1051 775 1042 l 642 1110 l 501 1051 q 444 1042 481 1042 l 335 1042 z "},"K":{"ha":989,"x_min":-7,"x_max":1086,"o":"m 26 0 q 2 11 11 0 q -4 38 -7 22 l 188 935 q 203 961 190 950 q 232 972 217 972 l 497 972 q 522 961 513 972 q 528 935 531 950 l 468 660 l 686 942 q 747 972 708 972 l 1061 972 q 1080 965 1074 972 q 1086 947 1086 958 q 1078 926 1086 938 l 718 478 l 901 46 q 904 33 904 38 q 892 10 904 19 q 865 0 879 0 l 569 0 q 518 32 531 0 l 400 335 l 336 38 q 320 11 333 22 q 292 0 307 0 l 26 0 z "},"Ķ":{"ha":989,"x_min":-6,"x_max":1086,"o":"m 26 0 q 2 11 11 0 q -4 38 -7 22 l 188 935 q 203 961 190 950 q 232 972 217 972 l 497 972 q 522 961 513 972 q 528 935 531 950 l 468 660 l 686 942 q 747 972 708 972 l 1061 972 q 1080 965 1074 972 q 1086 947 1086 958 q 1078 926 1086 938 l 718 478 l 901 46 q 904 33 904 38 q 892 10 904 19 q 865 0 879 0 l 569 0 q 518 32 531 0 l 400 335 l 336 38 q 320 11 333 22 q 292 0 307 0 l 26 0 m 189 -347 q 167 -337 175 -347 q 165 -314 160 -326 l 236 -124 q 262 -86 243 -103 q 307 -69 281 -69 l 517 -69 q 535 -77 528 -69 q 542 -94 542 -85 q 538 -110 542 -101 l 419 -303 q 350 -347 392 -347 l 189 -347 z "},"L":{"ha":865,"x_min":-7,"x_max":819,"o":"m 26 0 q 2 11 11 0 q -4 38 -7 22 l 188 935 q 203 961 190 950 q 232 972 217 972 l 510 972 q 534 961 525 972 q 540 935 543 950 l 401 285 l 786 285 q 810 274 801 285 q 815 247 819 263 l 771 38 q 755 11 768 22 q 726 0 742 0 l 26 0 z "},"Ĺ":{"ha":865,"x_min":-6,"x_max":817,"o":"m 26 0 q 2 11 11 0 q -4 38 -7 22 l 188 935 q 203 961 190 950 q 232 972 217 972 l 510 972 q 534 961 525 972 q 540 935 543 950 l 401 285 l 786 285 q 810 274 801 285 q 815 247 819 263 l 771 38 q 755 11 768 22 q 726 0 742 0 l 26 0 m 265 1042 q 247 1058 247 1042 q 258 1082 247 1074 l 433 1251 q 463 1273 453 1268 q 490 1278 474 1278 l 763 1278 q 781 1270 775 1278 q 783 1250 786 1263 q 772 1233 782 1240 l 533 1065 q 503 1047 517 1053 q 469 1042 489 1042 l 265 1042 z "},"Ľ":{"ha":875,"x_min":-6,"x_max":961,"o":"m 608 708 q 587 719 594 708 q 585 742 579 729 l 656 932 q 681 969 663 953 q 726 986 700 986 l 936 986 q 954 978 947 986 q 961 961 961 971 q 957 946 961 954 l 839 753 q 769 708 811 708 l 608 708 m 26 0 q 2 11 11 0 q -4 38 -7 22 l 188 935 q 203 961 190 950 q 232 972 217 972 l 510 972 q 534 961 525 972 q 540 935 543 950 l 401 285 l 786 285 q 810 274 801 285 q 815 247 819 263 l 771 38 q 755 11 768 22 q 726 0 742 0 l 26 0 z "},"Ļ":{"ha":865,"x_min":-6,"x_max":817,"o":"m 26 0 q 2 11 11 0 q -4 38 -7 22 l 188 935 q 203 961 190 950 q 232 972 217 972 l 510 972 q 534 961 525 972 q 540 935 543 950 l 401 285 l 786 285 q 810 274 801 285 q 815 247 819 263 l 771 38 q 755 11 768 22 q 726 0 742 0 l 26 0 m 119 -347 q 98 -337 106 -347 q 96 -314 90 -326 l 167 -124 q 192 -86 174 -103 q 238 -69 211 -69 l 447 -69 q 465 -77 458 -69 q 472 -94 472 -85 q 468 -110 472 -101 l 350 -303 q 281 -347 322 -347 l 119 -347 z "},"Ŀ":{"ha":865,"x_min":-7,"x_max":819,"o":"m 26 0 q 2 11 11 0 q -4 38 -7 22 l 188 935 q 203 961 190 950 q 232 972 217 972 l 510 972 q 534 961 525 972 q 540 935 543 950 l 401 285 l 786 285 q 810 274 801 285 q 815 247 819 263 l 771 38 q 755 11 768 22 q 726 0 742 0 l 26 0 m 542 429 q 521 438 528 429 q 517 461 514 447 l 557 650 q 571 673 560 664 q 596 682 582 682 l 785 682 q 806 673 799 682 q 810 650 813 664 l 769 461 q 756 438 767 447 q 731 429 744 429 l 542 429 z "},"Ł":{"ha":876,"x_min":-3,"x_max":831,"o":"m 38 0 q 13 11 22 0 q 7 38 4 22 l 65 313 l 39 303 l 22 299 q 3 307 10 299 q 0 328 -3 315 l 32 478 q 44 506 35 496 q 72 524 53 517 l 114 539 l 199 935 q 215 961 201 950 q 243 972 228 972 l 521 972 q 545 961 536 972 q 551 935 554 950 l 496 678 l 714 757 l 731 761 q 750 753 743 761 q 754 732 757 744 l 722 582 q 709 553 718 564 q 682 536 700 543 l 449 451 l 413 285 l 797 285 q 822 274 813 285 q 826 247 831 263 l 782 38 q 766 11 779 22 q 738 0 753 0 l 38 0 z "},"M":{"ha":1188,"x_min":-7,"x_max":1226,"o":"m 26 0 q 2 11 11 0 q -4 38 -7 22 l 188 935 q 203 961 190 950 q 232 972 217 972 l 451 972 q 504 935 488 972 l 635 601 l 907 935 q 974 972 933 972 l 1193 972 q 1217 961 1208 972 q 1224 935 1226 950 l 1032 38 q 1016 11 1029 22 q 988 0 1003 0 l 736 0 q 712 11 721 0 q 706 38 703 22 l 786 418 l 664 268 q 635 242 649 251 q 604 233 622 233 l 507 233 q 464 268 476 233 l 403 418 l 322 38 q 306 11 319 22 q 278 0 293 0 l 26 0 z "},"N":{"ha":1026,"x_min":-7,"x_max":1065,"o":"m 26 0 q 2 11 11 0 q -4 38 -7 22 l 188 935 q 203 961 190 950 q 232 972 217 972 l 451 972 q 501 940 492 972 l 656 556 l 736 935 q 752 961 739 950 q 781 972 765 972 l 1032 972 q 1056 961 1047 972 q 1063 935 1065 950 l 871 38 q 855 11 868 22 q 826 0 842 0 l 607 0 q 573 10 583 0 q 556 32 563 19 l 397 386 l 322 38 q 306 11 319 22 q 278 0 293 0 l 26 0 z "},"Ń":{"ha":1026,"x_min":-6,"x_max":1064,"o":"m 26 0 q 2 11 11 0 q -4 38 -7 22 l 188 935 q 203 961 190 950 q 232 972 217 972 l 451 972 q 501 940 492 972 l 656 556 l 736 935 q 752 961 739 950 q 781 972 765 972 l 1032 972 q 1056 961 1047 972 q 1063 935 1065 950 l 871 38 q 855 11 868 22 q 826 0 842 0 l 607 0 q 573 10 583 0 q 556 32 563 19 l 397 386 l 322 38 q 306 11 319 22 q 278 0 293 0 l 26 0 m 510 1042 q 492 1058 492 1042 q 503 1082 492 1074 l 678 1251 q 708 1273 697 1268 q 735 1278 718 1278 l 1007 1278 q 1025 1270 1019 1278 q 1028 1250 1031 1263 q 1017 1233 1026 1240 l 778 1065 q 747 1047 761 1053 q 714 1042 733 1042 l 510 1042 z "},"Ň":{"ha":1026,"x_min":-6,"x_max":1064,"o":"m 26 0 q 2 11 11 0 q -4 38 -7 22 l 188 935 q 203 961 190 950 q 232 972 217 972 l 451 972 q 501 940 492 972 l 656 556 l 736 935 q 752 961 739 950 q 781 972 765 972 l 1032 972 q 1056 961 1047 972 q 1063 935 1065 950 l 871 38 q 855 11 868 22 q 826 0 842 0 l 607 0 q 573 10 583 0 q 556 32 563 19 l 397 386 l 322 38 q 306 11 319 22 q 278 0 293 0 l 26 0 m 535 1042 q 510 1047 519 1042 q 489 1068 500 1053 l 369 1238 q 367 1250 367 1243 q 374 1270 367 1263 q 393 1278 382 1278 l 481 1278 q 535 1268 517 1278 l 650 1210 l 790 1268 q 847 1278 811 1278 l 957 1278 q 975 1261 975 1278 q 964 1238 975 1246 l 772 1068 q 743 1047 756 1053 q 715 1042 731 1042 l 535 1042 z "},"Ņ":{"ha":1026,"x_min":-6,"x_max":1064,"o":"m 26 0 q 2 11 11 0 q -4 38 -7 22 l 188 935 q 203 961 190 950 q 232 972 217 972 l 451 972 q 501 940 492 972 l 656 556 l 736 935 q 752 961 739 950 q 781 972 765 972 l 1032 972 q 1056 961 1047 972 q 1063 935 1065 950 l 871 38 q 855 11 868 22 q 826 0 842 0 l 607 0 q 573 10 583 0 q 556 32 563 19 l 397 386 l 322 38 q 306 11 319 22 q 278 0 293 0 l 26 0 m 203 -347 q 181 -337 189 -347 q 179 -314 174 -326 l 250 -124 q 276 -86 257 -103 q 321 -69 294 -69 l 531 -69 q 549 -77 542 -69 q 556 -94 556 -85 q 551 -110 556 -101 l 433 -303 q 364 -347 406 -347 l 203 -347 z "},"Ŋ":{"ha":1028,"x_min":14,"x_max":1085,"o":"m 342 -312 q 318 -301 326 -312 q 313 -275 310 -290 l 357 -68 q 374 -42 360 -53 q 403 -31 388 -31 l 458 -31 q 532 -8 503 -31 q 568 50 561 14 l 568 53 l 417 386 l 343 38 q 326 11 340 22 q 297 0 313 0 l 46 0 q 22 11 31 0 q 17 38 14 22 l 207 935 q 224 961 210 950 q 253 972 238 972 l 472 972 q 522 940 513 972 l 675 556 l 756 935 q 772 961 758 950 q 801 972 786 972 l 1053 972 q 1076 961 1068 972 q 1082 935 1085 950 l 892 36 q 709 -224 854 -135 q 364 -312 564 -312 l 342 -312 z "},"Ñ":{"ha":1026,"x_min":-6,"x_max":1064,"o":"m 26 0 q 2 11 11 0 q -4 38 -7 22 l 188 935 q 203 961 190 950 q 232 972 217 972 l 451 972 q 501 940 492 972 l 656 556 l 736 935 q 752 961 739 950 q 781 972 765 972 l 1032 972 q 1056 961 1047 972 q 1063 935 1065 950 l 871 38 q 855 11 868 22 q 826 0 842 0 l 607 0 q 573 10 583 0 q 556 32 563 19 l 397 386 l 322 38 q 306 11 319 22 q 278 0 293 0 l 26 0 m 747 1035 q 694 1042 717 1035 q 646 1064 672 1050 q 610 1080 625 1075 q 581 1085 596 1085 q 555 1078 565 1085 q 533 1061 544 1072 q 518 1047 525 1051 q 501 1042 511 1042 l 385 1042 q 368 1049 374 1042 q 364 1067 363 1057 q 433 1214 381 1143 q 585 1285 485 1285 q 638 1277 615 1285 q 686 1256 660 1269 q 722 1240 707 1244 q 751 1235 736 1235 q 776 1241 767 1235 q 797 1258 786 1247 q 814 1273 807 1268 q 831 1278 821 1278 l 947 1278 q 965 1270 960 1278 q 968 1251 971 1263 q 899 1106 951 1176 q 747 1035 846 1035 z "},"O":{"ha":1031,"x_min":36,"x_max":1026,"o":"m 453 -14 q 243 22 338 -14 q 92 129 149 58 q 36 300 36 200 q 42 361 36 333 q 93 606 60 471 q 265 890 140 793 q 610 986 390 986 q 819 948 724 986 q 970 838 914 910 q 1026 667 1026 765 q 1021 606 1026 633 q 969 361 1001 492 q 797 78 921 171 q 453 -14 674 -14 m 483 257 q 610 369 582 257 q 660 603 639 489 q 663 635 663 615 q 641 695 663 675 q 581 715 619 715 q 501 688 535 715 q 454 603 468 660 q 404 369 425 488 q 401 336 401 357 q 483 257 401 257 z "},"Ó":{"ha":1031,"x_min":36,"x_max":1038,"o":"m 453 -14 q 243 22 338 -14 q 92 129 149 58 q 36 300 36 200 q 42 361 36 333 q 93 606 60 471 q 265 890 140 793 q 610 986 390 986 q 819 948 724 986 q 970 838 914 910 q 1026 667 1026 765 q 1021 606 1026 633 q 969 361 1001 492 q 797 78 921 171 q 453 -14 674 -14 m 483 257 q 610 369 582 257 q 660 603 639 489 q 663 635 663 615 q 641 695 663 675 q 581 715 619 715 q 501 688 535 715 q 454 603 468 660 q 404 369 425 488 q 401 336 401 357 q 483 257 401 257 m 519 1042 q 501 1058 501 1042 q 513 1082 501 1074 l 688 1251 q 717 1273 707 1268 q 744 1278 728 1278 l 1017 1278 q 1035 1270 1029 1278 q 1038 1250 1040 1263 q 1026 1233 1036 1240 l 788 1065 q 757 1047 771 1053 q 724 1042 743 1042 l 519 1042 z "},"Ŏ":{"ha":1031,"x_min":36,"x_max":1026,"o":"m 453 -14 q 243 22 338 -14 q 92 129 149 58 q 36 300 36 200 q 42 361 36 333 q 93 606 60 471 q 265 890 140 793 q 610 986 390 986 q 819 948 724 986 q 970 838 914 910 q 1026 667 1026 765 q 1021 606 1026 633 q 969 361 1001 492 q 797 78 921 171 q 453 -14 674 -14 m 483 257 q 610 369 582 257 q 660 603 639 489 q 663 635 663 615 q 641 695 663 675 q 581 715 619 715 q 501 688 535 715 q 454 603 468 660 q 404 369 425 488 q 401 336 401 357 q 483 257 401 257 m 649 1035 q 490 1083 549 1035 q 431 1208 431 1131 q 435 1251 431 1229 q 446 1270 438 1263 q 467 1278 454 1278 l 604 1278 q 622 1270 617 1278 q 625 1251 628 1263 q 621 1219 621 1235 q 664 1175 621 1175 q 736 1251 721 1175 q 747 1270 739 1263 q 768 1278 756 1278 l 906 1278 q 924 1270 918 1278 q 926 1251 929 1263 q 840 1092 904 1149 q 649 1035 776 1035 z "},"Ô":{"ha":1031,"x_min":36,"x_max":1026,"o":"m 453 -14 q 243 22 338 -14 q 92 129 149 58 q 36 300 36 200 q 42 361 36 333 q 93 606 60 471 q 265 890 140 793 q 610 986 390 986 q 819 948 724 986 q 970 838 914 910 q 1026 667 1026 765 q 1021 606 1026 633 q 969 361 1001 492 q 797 78 921 171 q 453 -14 674 -14 m 483 257 q 610 369 582 257 q 660 603 639 489 q 663 635 663 615 q 641 695 663 675 q 581 715 619 715 q 501 688 535 715 q 454 603 468 660 q 404 369 425 488 q 401 336 401 357 q 483 257 401 257 m 343 1042 q 325 1058 325 1042 q 336 1082 325 1074 l 528 1251 q 557 1272 544 1267 q 585 1278 569 1278 l 765 1278 q 790 1272 781 1278 q 811 1251 800 1267 l 931 1082 q 933 1069 933 1076 q 926 1049 933 1057 q 907 1042 918 1042 l 819 1042 q 765 1051 783 1042 l 650 1110 l 510 1051 q 453 1042 489 1042 l 343 1042 z "},"Ö":{"ha":1031,"x_min":36,"x_max":1026,"o":"m 453 -14 q 243 22 338 -14 q 92 129 149 58 q 36 300 36 200 q 42 361 36 333 q 93 606 60 471 q 265 890 140 793 q 610 986 390 986 q 819 948 724 986 q 970 838 914 910 q 1026 667 1026 765 q 1021 606 1026 633 q 969 361 1001 492 q 797 78 921 171 q 453 -14 674 -14 m 483 257 q 610 369 582 257 q 660 603 639 489 q 663 635 663 615 q 641 695 663 675 q 581 715 619 715 q 501 688 535 715 q 454 603 468 660 q 404 369 425 488 q 401 336 401 357 q 483 257 401 257 m 371 1042 q 350 1051 357 1042 q 346 1074 343 1060 l 382 1246 q 396 1269 385 1260 q 421 1278 407 1278 l 593 1278 q 614 1269 607 1278 q 618 1246 621 1260 l 582 1074 q 568 1051 579 1060 q 543 1042 557 1042 l 371 1042 m 744 1042 q 724 1051 731 1042 q 719 1074 717 1060 l 756 1246 q 769 1269 758 1260 q 794 1278 781 1278 l 967 1278 q 988 1269 981 1278 q 992 1246 994 1260 l 956 1074 q 942 1051 953 1060 q 917 1042 931 1042 l 744 1042 z "},"Ò":{"ha":1031,"x_min":36,"x_max":1026,"o":"m 453 -14 q 243 22 338 -14 q 92 129 149 58 q 36 300 36 200 q 42 361 36 333 q 93 606 60 471 q 265 890 140 793 q 610 986 390 986 q 819 948 724 986 q 970 838 914 910 q 1026 667 1026 765 q 1021 606 1026 633 q 969 361 1001 492 q 797 78 921 171 q 453 -14 674 -14 m 483 257 q 610 369 582 257 q 660 603 639 489 q 663 635 663 615 q 641 695 663 675 q 581 715 619 715 q 501 688 535 715 q 454 603 468 660 q 404 369 425 488 q 401 336 401 357 q 483 257 401 257 m 561 1042 q 531 1047 542 1042 q 508 1065 521 1053 l 339 1233 q 336 1244 336 1239 q 345 1268 336 1258 q 368 1278 354 1278 l 626 1278 q 652 1273 643 1278 q 672 1251 661 1268 l 775 1082 q 778 1069 778 1076 q 770 1049 778 1057 q 751 1042 763 1042 l 561 1042 z "},"Ő":{"ha":1031,"x_min":36,"x_max":1125,"o":"m 453 -14 q 243 22 338 -14 q 92 129 149 58 q 36 300 36 200 q 42 361 36 333 q 93 606 60 471 q 265 890 140 793 q 610 986 390 986 q 819 948 724 986 q 970 838 914 910 q 1026 667 1026 765 q 1021 606 1026 633 q 969 361 1001 492 q 797 78 921 171 q 453 -14 674 -14 m 483 257 q 610 369 582 257 q 660 603 639 489 q 663 635 663 615 q 641 695 663 675 q 581 715 619 715 q 501 688 535 715 q 454 603 468 660 q 404 369 425 488 q 401 336 401 357 q 483 257 401 257 m 382 1042 q 367 1048 371 1042 q 364 1064 363 1054 q 376 1085 365 1069 l 486 1251 q 509 1272 496 1265 q 543 1278 522 1278 l 761 1278 q 780 1271 774 1278 q 783 1251 786 1264 q 771 1233 782 1242 l 576 1061 q 525 1042 554 1042 l 382 1042 m 722 1042 q 707 1048 711 1042 q 704 1064 703 1054 q 717 1085 706 1069 l 826 1251 q 849 1272 836 1265 q 883 1278 863 1278 l 1101 1278 q 1120 1271 1114 1278 q 1124 1251 1126 1264 q 1111 1233 1122 1242 l 917 1061 q 865 1042 894 1042 l 722 1042 z "},"Ō":{"ha":1031,"x_min":36,"x_max":1026,"o":"m 453 -14 q 243 22 338 -14 q 92 129 149 58 q 36 300 36 200 q 42 361 36 333 q 93 606 60 471 q 265 890 140 793 q 610 986 390 986 q 819 948 724 986 q 970 838 914 910 q 1026 667 1026 765 q 1021 606 1026 633 q 969 361 1001 492 q 797 78 921 171 q 453 -14 674 -14 m 483 257 q 610 369 582 257 q 660 603 639 489 q 663 635 663 615 q 641 695 663 675 q 581 715 619 715 q 501 688 535 715 q 454 603 468 660 q 404 369 425 488 q 401 336 401 357 q 483 257 401 257 m 375 1042 q 354 1051 361 1042 q 350 1074 347 1060 l 381 1218 q 394 1241 383 1232 q 419 1250 406 1250 l 943 1250 q 964 1241 957 1250 q 968 1218 971 1232 l 938 1074 q 924 1051 935 1060 q 899 1042 913 1042 l 375 1042 z "},"Ø":{"ha":1083,"x_min":-7,"x_max":1169,"o":"m 475 -14 q 213 44 313 -14 q 90 215 113 103 l 35 196 q 19 192 25 192 q 0 200 7 192 q -4 221 -7 208 l 28 371 q 41 399 32 389 q 68 417 50 410 l 103 429 q 143 606 131 560 q 335 886 189 786 q 688 986 481 986 q 935 932 836 986 q 1064 776 1033 878 l 1128 800 q 1143 804 1139 804 q 1163 796 1156 804 q 1167 775 1169 788 l 1135 625 q 1122 597 1131 607 q 1094 579 1113 586 l 1064 568 q 1018 361 1050 494 q 827 82 971 178 q 475 -14 683 -14 m 710 649 q 631 715 704 715 q 550 688 583 715 q 503 603 517 660 q 496 571 497 581 l 710 649 m 533 257 q 660 369 632 257 l 672 426 l 450 346 q 533 257 446 257 z "},"Ǿ":{"ha":1081,"x_min":-6,"x_max":1167,"o":"m 547 1042 q 529 1058 529 1042 q 540 1082 529 1074 l 715 1251 q 745 1273 735 1268 q 772 1278 756 1278 l 1044 1278 q 1063 1270 1057 1278 q 1065 1250 1068 1263 q 1054 1233 1064 1240 l 815 1065 q 785 1047 799 1053 q 751 1042 771 1042 l 547 1042 m 475 -14 q 213 44 313 -14 q 90 215 113 103 l 35 196 q 19 192 25 192 q 0 200 7 192 q -4 221 -7 208 l 28 371 q 41 399 32 389 q 68 417 50 410 l 103 429 q 143 606 131 560 q 335 886 189 786 q 688 986 481 986 q 935 932 836 986 q 1064 776 1033 878 l 1128 800 q 1143 804 1139 804 q 1163 796 1156 804 q 1167 775 1169 788 l 1135 625 q 1122 597 1131 607 q 1094 579 1113 586 l 1064 568 q 1018 361 1050 494 q 827 82 971 178 q 475 -14 683 -14 m 710 649 q 631 715 704 715 q 550 688 583 715 q 503 603 517 660 q 496 571 497 581 l 710 649 m 533 257 q 660 369 632 257 l 672 426 l 450 346 q 533 257 446 257 z "},"Õ":{"ha":1031,"x_min":36,"x_max":1026,"o":"m 453 -14 q 243 22 338 -14 q 92 129 149 58 q 36 300 36 200 q 42 361 36 333 q 93 606 60 471 q 265 890 140 793 q 610 986 390 986 q 819 948 724 986 q 970 838 914 910 q 1026 667 1026 765 q 1021 606 1026 633 q 969 361 1001 492 q 797 78 921 171 q 453 -14 674 -14 m 483 257 q 610 369 582 257 q 660 603 639 489 q 663 635 663 615 q 641 695 663 675 q 581 715 619 715 q 501 688 535 715 q 454 603 468 660 q 404 369 425 488 q 401 336 401 357 q 483 257 401 257 m 757 1035 q 704 1042 726 1035 q 656 1064 682 1050 q 620 1080 635 1075 q 590 1085 606 1085 q 565 1078 575 1085 q 543 1061 554 1072 q 528 1047 535 1051 q 511 1042 521 1042 l 394 1042 q 378 1049 383 1042 q 374 1067 372 1057 q 442 1214 390 1143 q 594 1285 494 1285 q 647 1277 625 1285 q 696 1256 669 1269 q 731 1240 717 1244 q 761 1235 746 1235 q 786 1241 776 1235 q 807 1258 796 1247 q 824 1273 817 1268 q 840 1278 831 1278 l 957 1278 q 975 1270 969 1278 q 978 1251 981 1263 q 908 1106 961 1176 q 757 1035 856 1035 z "},"Œ":{"ha":1390,"x_min":38,"x_max":1443,"o":"m 447 0 q 242 35 335 0 q 93 141 149 69 q 38 315 38 213 q 43 383 38 351 q 88 590 63 489 q 604 972 183 972 l 1410 972 q 1434 961 1425 972 q 1440 935 1443 950 l 1399 739 q 1381 713 1394 724 q 1353 701 1368 701 l 964 701 l 944 614 l 1303 614 q 1327 603 1318 614 q 1333 576 1336 592 l 1294 396 q 1278 369 1292 381 q 1249 358 1264 358 l 890 358 l 872 271 l 1272 271 q 1296 260 1288 271 q 1301 233 1304 249 l 1260 38 q 1244 11 1257 22 q 1215 0 1231 0 l 447 0 m 540 271 l 632 701 l 582 701 q 494 674 532 701 q 440 590 456 646 q 396 383 413 488 q 393 356 393 364 q 417 292 393 314 q 483 271 442 271 l 540 271 z "},"P":{"ha":979,"x_min":-7,"x_max":1007,"o":"m 26 0 q 2 11 11 0 q -4 38 -7 22 l 188 935 q 203 961 190 950 q 232 972 217 972 l 625 972 q 899 903 792 972 q 1007 703 1007 833 q 999 632 1007 669 q 851 381 963 460 q 539 303 739 303 l 414 303 l 357 38 q 341 11 354 22 q 313 0 328 0 l 26 0 m 558 560 q 607 578 583 560 q 639 635 631 597 q 642 660 642 651 q 592 714 642 714 l 494 714 l 461 560 l 558 560 z "},"Þ":{"ha":978,"x_min":-7,"x_max":978,"o":"m 26 0 q 2 11 11 0 q -4 38 -7 22 l 188 935 q 203 961 190 950 q 232 972 217 972 l 518 972 q 542 961 533 972 q 549 935 551 950 l 526 835 l 596 835 q 870 765 763 835 q 978 565 978 696 q 969 494 978 532 q 822 244 933 322 q 510 165 710 165 l 385 165 l 357 38 q 341 11 354 22 q 313 0 328 0 l 26 0 m 529 422 q 578 441 554 422 q 610 497 601 460 q 613 522 613 514 q 563 576 613 576 l 465 576 l 432 422 l 529 422 z "},"Q":{"ha":1031,"x_min":51,"x_max":1046,"o":"m 604 -90 q 572 -82 582 -90 q 553 -58 563 -74 l 525 -10 q 443 -14 486 -14 q 154 62 257 -14 q 51 285 51 138 q 58 361 51 317 q 111 606 81 482 q 303 886 157 786 q 656 986 449 986 q 942 906 839 986 q 1046 682 1046 826 q 1039 606 1046 650 q 986 361 1017 479 q 833 110 944 204 l 910 -47 q 911 -60 913 -54 q 900 -81 911 -72 q 876 -90 889 -90 l 604 -90 m 501 257 q 628 369 600 257 q 676 603 658 497 q 679 636 679 615 q 658 696 679 676 q 599 715 638 715 q 518 688 551 715 q 471 603 485 660 q 422 369 442 476 q 419 336 419 357 q 501 257 419 257 z "},"R":{"ha":1003,"x_min":14,"x_max":1025,"o":"m 46 0 q 22 11 31 0 q 17 38 14 22 l 207 935 q 224 961 210 950 q 253 972 238 972 l 664 972 q 931 903 838 972 q 1025 711 1025 835 q 1017 635 1025 675 q 942 476 997 544 q 810 363 888 407 l 913 46 q 914 31 915 36 q 900 9 911 18 q 876 0 889 0 l 592 0 q 555 12 567 0 q 540 38 543 24 l 478 303 l 421 303 l 364 38 q 347 11 361 22 q 318 0 333 0 l 46 0 m 578 567 q 636 594 614 567 q 658 658 658 622 q 647 699 658 683 q 608 714 635 714 l 507 714 l 476 567 l 578 567 z "},"Ŕ":{"ha":1000,"x_min":15,"x_max":1025,"o":"m 46 0 q 22 11 31 0 q 17 38 14 22 l 207 935 q 224 961 210 950 q 253 972 238 972 l 664 972 q 931 903 838 972 q 1025 711 1025 835 q 1017 635 1025 675 q 942 476 997 544 q 810 363 888 407 l 913 46 q 914 31 915 36 q 900 9 911 18 q 876 0 889 0 l 592 0 q 555 12 567 0 q 540 38 543 24 l 478 303 l 421 303 l 364 38 q 347 11 361 22 q 318 0 333 0 l 46 0 m 578 567 q 636 594 614 567 q 658 658 658 622 q 647 699 658 683 q 608 714 635 714 l 507 714 l 476 567 l 578 567 m 479 1042 q 461 1058 461 1042 q 472 1082 461 1074 l 647 1251 q 677 1273 667 1268 q 704 1278 688 1278 l 976 1278 q 994 1270 989 1278 q 997 1250 1000 1263 q 986 1233 996 1240 l 747 1065 q 717 1047 731 1053 q 683 1042 703 1042 l 479 1042 z "},"Ř":{"ha":1000,"x_min":15,"x_max":1025,"o":"m 46 0 q 22 11 31 0 q 17 38 14 22 l 207 935 q 224 961 210 950 q 253 972 238 972 l 664 972 q 931 903 838 972 q 1025 711 1025 835 q 1017 635 1025 675 q 942 476 997 544 q 810 363 888 407 l 913 46 q 914 31 915 36 q 900 9 911 18 q 876 0 889 0 l 592 0 q 555 12 567 0 q 540 38 543 24 l 478 303 l 421 303 l 364 38 q 347 11 361 22 q 318 0 333 0 l 46 0 m 578 567 q 636 594 614 567 q 658 658 658 622 q 647 699 658 683 q 608 714 635 714 l 507 714 l 476 567 l 578 567 m 519 1042 q 494 1047 504 1042 q 474 1068 485 1053 l 354 1238 q 351 1250 351 1243 q 359 1270 351 1263 q 378 1278 367 1278 l 465 1278 q 519 1268 501 1278 l 635 1210 l 775 1268 q 832 1278 796 1278 l 942 1278 q 960 1261 960 1278 q 949 1238 960 1246 l 757 1068 q 728 1047 740 1053 q 700 1042 715 1042 l 519 1042 z "},"Ŗ":{"ha":1000,"x_min":15,"x_max":1025,"o":"m 46 0 q 22 11 31 0 q 17 38 14 22 l 207 935 q 224 961 210 950 q 253 972 238 972 l 664 972 q 931 903 838 972 q 1025 711 1025 835 q 1017 635 1025 675 q 942 476 997 544 q 810 363 888 407 l 913 46 q 914 31 915 36 q 900 9 911 18 q 876 0 889 0 l 592 0 q 555 12 567 0 q 540 38 543 24 l 478 303 l 421 303 l 364 38 q 347 11 361 22 q 318 0 333 0 l 46 0 m 578 567 q 636 594 614 567 q 658 658 658 622 q 647 699 658 683 q 608 714 635 714 l 507 714 l 476 567 l 578 567 m 196 -347 q 174 -337 182 -347 q 172 -314 167 -326 l 243 -124 q 269 -86 250 -103 q 314 -69 288 -69 l 524 -69 q 542 -77 535 -69 q 549 -94 549 -85 q 544 -110 549 -101 l 426 -303 q 357 -347 399 -347 l 196 -347 z "},"S":{"ha":969,"x_min":-7,"x_max":969,"o":"m 418 -14 q 186 21 282 -14 q 42 114 90 56 q -7 243 -7 172 q -3 282 -7 264 q 10 303 -1 294 q 33 313 21 313 l 297 313 q 327 308 317 313 q 353 289 338 303 q 449 257 388 257 q 531 269 500 257 q 563 303 563 281 q 526 336 563 324 q 396 361 490 349 q 176 446 254 381 q 97 617 97 511 q 106 686 97 649 q 256 907 135 828 q 565 986 376 986 q 771 945 678 986 q 917 842 864 904 q 969 719 969 779 q 968 699 969 706 q 956 677 967 686 q 933 668 944 668 l 656 668 q 626 673 636 668 q 604 690 615 678 q 536 715 579 715 q 461 676 471 715 q 486 642 457 656 q 603 617 515 628 q 851 535 774 596 q 929 369 929 474 q 921 294 929 335 q 762 64 889 142 q 418 -14 635 -14 z "},"Ś":{"ha":969,"x_min":-7,"x_max":999,"o":"m 418 -14 q 186 21 282 -14 q 42 114 90 56 q -7 243 -7 172 q -3 282 -7 264 q 10 303 -1 294 q 33 313 21 313 l 297 313 q 327 308 317 313 q 353 289 338 303 q 449 257 388 257 q 531 269 500 257 q 563 303 563 281 q 526 336 563 324 q 396 361 490 349 q 176 446 254 381 q 97 617 97 511 q 106 686 97 649 q 256 907 135 828 q 565 986 376 986 q 771 945 678 986 q 917 842 864 904 q 969 719 969 779 q 968 699 969 706 q 956 677 967 686 q 933 668 944 668 l 656 668 q 626 673 636 668 q 604 690 615 678 q 536 715 579 715 q 461 676 471 715 q 486 642 457 656 q 603 617 515 628 q 851 535 774 596 q 929 369 929 474 q 921 294 929 335 q 762 64 889 142 q 418 -14 635 -14 m 481 1042 q 463 1058 463 1042 q 474 1082 463 1074 l 649 1251 q 678 1273 668 1268 q 706 1278 689 1278 l 978 1278 q 996 1270 990 1278 q 999 1250 1001 1263 q 988 1233 997 1240 l 749 1065 q 718 1047 732 1053 q 685 1042 704 1042 l 481 1042 z "},"Š":{"ha":969,"x_min":-7,"x_max":969,"o":"m 418 -14 q 186 21 282 -14 q 42 114 90 56 q -7 243 -7 172 q -3 282 -7 264 q 10 303 -1 294 q 33 313 21 313 l 297 313 q 327 308 317 313 q 353 289 338 303 q 449 257 388 257 q 531 269 500 257 q 563 303 563 281 q 526 336 563 324 q 396 361 490 349 q 176 446 254 381 q 97 617 97 511 q 106 686 97 649 q 256 907 135 828 q 565 986 376 986 q 771 945 678 986 q 917 842 864 904 q 969 719 969 779 q 968 699 969 706 q 956 677 967 686 q 933 668 944 668 l 656 668 q 626 673 636 668 q 604 690 615 678 q 536 715 579 715 q 461 676 471 715 q 486 642 457 656 q 603 617 515 628 q 851 535 774 596 q 929 369 929 474 q 921 294 929 335 q 762 64 889 142 q 418 -14 635 -14 m 506 1042 q 481 1047 490 1042 q 460 1068 471 1053 l 340 1238 q 338 1250 338 1243 q 345 1270 338 1263 q 364 1278 353 1278 l 451 1278 q 506 1268 488 1278 l 621 1210 l 761 1268 q 818 1278 782 1278 l 928 1278 q 946 1261 946 1278 q 935 1238 946 1246 l 743 1068 q 714 1047 726 1053 q 686 1042 701 1042 l 506 1042 z "},"Ş":{"ha":968,"x_min":13,"x_max":992,"o":"m 346 -306 q 273 -290 304 -306 q 242 -254 242 -274 q 254 -235 242 -243 l 289 -210 q 308 -201 301 -201 q 328 -208 313 -201 q 365 -214 344 -214 q 397 -204 383 -214 q 413 -181 410 -194 q 408 -157 415 -167 q 381 -147 400 -147 q 365 -149 372 -147 q 353 -151 358 -150 q 325 -156 338 -156 q 306 -147 313 -156 l 282 -118 q 275 -103 275 -108 q 289 -72 275 -92 l 331 -10 q 92 72 172 4 q 13 236 13 140 q 17 282 13 260 q 31 303 19 294 q 54 313 42 313 l 318 313 q 349 308 339 313 q 372 289 360 303 q 469 257 407 257 q 547 267 517 257 q 581 296 578 278 q 552 334 586 321 q 415 361 518 347 q 115 601 115 401 q 122 667 115 638 q 210 833 142 760 q 384 946 279 906 q 614 986 489 986 q 820 947 735 986 q 949 849 906 908 q 992 728 992 789 q 989 699 992 718 q 976 677 988 686 q 953 668 964 668 l 675 668 q 647 673 657 668 q 625 690 636 678 q 557 715 600 715 q 500 703 519 715 q 481 669 481 690 q 512 639 481 651 q 624 617 543 626 q 873 541 796 594 q 950 389 950 488 q 942 314 950 354 q 846 142 921 215 q 659 28 771 68 q 417 -14 547 -12 l 382 -62 q 403 -58 389 -60 q 425 -56 418 -56 q 492 -80 468 -56 q 515 -146 515 -104 q 467 -260 515 -214 q 346 -306 418 -306 z "},"Ŝ":{"ha":969,"x_min":-7,"x_max":969,"o":"m 418 -14 q 186 21 282 -14 q 42 114 90 56 q -7 243 -7 172 q -3 282 -7 264 q 10 303 -1 294 q 33 313 21 313 l 297 313 q 327 308 317 313 q 353 289 338 303 q 449 257 388 257 q 531 269 500 257 q 563 303 563 281 q 526 336 563 324 q 396 361 490 349 q 176 446 254 381 q 97 617 97 511 q 106 686 97 649 q 256 907 135 828 q 565 986 376 986 q 771 945 678 986 q 917 842 864 904 q 969 719 969 779 q 968 699 969 706 q 956 677 967 686 q 933 668 944 668 l 656 668 q 626 673 636 668 q 604 690 615 678 q 536 715 579 715 q 461 676 471 715 q 486 642 457 656 q 603 617 515 628 q 851 535 774 596 q 929 369 929 474 q 921 294 929 335 q 762 64 889 142 q 418 -14 635 -14 m 307 1042 q 289 1058 289 1042 q 300 1082 289 1074 l 492 1251 q 521 1272 508 1267 q 549 1278 533 1278 l 729 1278 q 754 1272 744 1278 q 775 1251 764 1267 l 894 1082 q 897 1069 897 1076 q 890 1049 897 1057 q 871 1042 882 1042 l 783 1042 q 729 1051 747 1042 l 614 1110 l 474 1051 q 417 1042 453 1042 l 307 1042 z "},"Ș":{"ha":969,"x_min":-7,"x_max":969,"o":"m 418 -14 q 186 21 282 -14 q 42 114 90 56 q -7 243 -7 172 q -3 282 -7 264 q 10 303 -1 294 q 33 313 21 313 l 297 313 q 327 308 317 313 q 353 289 338 303 q 449 257 388 257 q 531 269 500 257 q 563 303 563 281 q 526 336 563 324 q 396 361 490 349 q 176 446 254 381 q 97 617 97 511 q 106 686 97 649 q 256 907 135 828 q 565 986 376 986 q 771 945 678 986 q 917 842 864 904 q 969 719 969 779 q 968 699 969 706 q 956 677 967 686 q 933 668 944 668 l 656 668 q 626 673 636 668 q 604 690 615 678 q 536 715 579 715 q 461 676 471 715 q 486 642 457 656 q 603 617 515 628 q 851 535 774 596 q 929 369 929 474 q 921 294 929 335 q 762 64 889 142 q 418 -14 635 -14 m 167 -347 q 145 -337 153 -347 q 143 -314 138 -326 l 214 -124 q 240 -86 221 -103 q 285 -69 258 -69 l 494 -69 q 513 -77 506 -69 q 519 -94 519 -85 q 515 -110 519 -101 l 397 -303 q 328 -347 369 -347 l 167 -347 z "},"T":{"ha":935,"x_min":83,"x_max":1026,"o":"m 242 0 q 217 11 226 0 q 211 38 208 22 l 347 674 l 117 674 q 92 685 101 674 q 86 711 83 696 l 135 935 q 151 961 138 950 q 179 972 164 972 l 993 972 q 1017 961 1008 972 q 1024 935 1026 950 l 975 711 q 959 685 972 696 q 931 674 946 674 l 700 674 l 564 38 q 548 11 561 22 q 519 0 535 0 l 242 0 z "},"Ŧ":{"ha":944,"x_min":88,"x_max":1031,"o":"m 246 0 q 222 11 231 0 q 215 38 213 22 l 283 358 l 158 358 q 135 369 143 358 q 129 396 126 381 l 150 494 q 167 521 153 510 q 196 532 181 532 l 321 532 l 351 674 l 121 674 q 97 685 106 674 q 90 711 88 696 l 139 935 q 155 961 142 950 q 183 972 168 972 l 997 972 q 1022 961 1013 972 q 1028 935 1031 950 l 979 711 q 963 685 976 696 q 935 674 950 674 l 704 674 l 674 532 l 799 532 q 822 521 814 532 q 828 494 831 510 l 807 396 q 790 369 804 381 q 761 358 776 358 l 636 358 l 568 38 q 552 11 565 22 q 524 0 539 0 l 246 0 z "},"Ť":{"ha":935,"x_min":85,"x_max":1025,"o":"m 242 0 q 217 11 226 0 q 211 38 208 22 l 347 674 l 117 674 q 92 685 101 674 q 86 711 83 696 l 135 935 q 151 961 138 950 q 179 972 164 972 l 993 972 q 1017 961 1008 972 q 1024 935 1026 950 l 975 711 q 959 685 972 696 q 931 674 946 674 l 700 674 l 564 38 q 548 11 561 22 q 519 0 535 0 l 242 0 m 525 1042 q 500 1047 510 1042 q 479 1068 490 1053 l 360 1238 q 357 1250 357 1243 q 365 1270 357 1263 q 383 1278 372 1278 l 471 1278 q 525 1268 507 1278 l 640 1210 l 781 1268 q 838 1278 801 1278 l 947 1278 q 965 1261 965 1278 q 954 1238 965 1246 l 763 1068 q 733 1047 746 1053 q 706 1042 721 1042 l 525 1042 z "},"Ț":{"ha":935,"x_min":85,"x_max":1025,"o":"m 242 0 q 217 11 226 0 q 211 38 208 22 l 347 674 l 117 674 q 92 685 101 674 q 86 711 83 696 l 135 935 q 151 961 138 950 q 179 972 164 972 l 993 972 q 1017 961 1008 972 q 1024 935 1026 950 l 975 711 q 959 685 972 696 q 931 674 946 674 l 700 674 l 564 38 q 548 11 561 22 q 519 0 535 0 l 242 0 m 150 -347 q 128 -337 136 -347 q 126 -314 121 -326 l 197 -124 q 223 -86 204 -103 q 268 -69 242 -69 l 478 -69 q 496 -77 489 -69 q 503 -94 503 -85 q 499 -110 503 -101 l 381 -303 q 311 -347 353 -347 l 150 -347 z "},"U":{"ha":1035,"x_min":47,"x_max":1081,"o":"m 454 -14 q 251 19 343 -14 q 103 119 158 51 q 47 285 47 186 q 57 367 47 326 l 178 935 q 194 961 181 950 q 222 972 207 972 l 494 972 q 519 961 510 972 q 525 935 528 950 l 404 372 q 400 339 400 354 q 485 265 400 265 q 567 292 536 265 q 610 372 599 319 l 731 935 q 747 961 733 950 q 775 972 760 972 l 1047 972 q 1072 961 1063 972 q 1078 935 1081 950 l 957 367 q 793 78 914 169 q 454 -14 672 -14 z "},"Ú":{"ha":1035,"x_min":47,"x_max":1079,"o":"m 454 -14 q 251 19 343 -14 q 103 119 158 51 q 47 285 47 186 q 57 367 47 326 l 178 935 q 194 961 181 950 q 222 972 207 972 l 494 972 q 519 961 510 972 q 525 935 528 950 l 404 372 q 400 339 400 354 q 485 265 400 265 q 567 292 536 265 q 610 372 599 319 l 731 935 q 747 961 733 950 q 775 972 760 972 l 1047 972 q 1072 961 1063 972 q 1078 935 1081 950 l 957 367 q 793 78 914 169 q 454 -14 672 -14 m 521 1042 q 503 1058 503 1042 q 514 1082 503 1074 l 689 1251 q 719 1273 708 1268 q 746 1278 729 1278 l 1018 1278 q 1036 1270 1031 1278 q 1039 1250 1042 1263 q 1028 1233 1038 1240 l 789 1065 q 758 1047 772 1053 q 725 1042 744 1042 l 521 1042 z "},"Ŭ":{"ha":1035,"x_min":47,"x_max":1079,"o":"m 454 -14 q 251 19 343 -14 q 103 119 158 51 q 47 285 47 186 q 57 367 47 326 l 178 935 q 194 961 181 950 q 222 972 207 972 l 494 972 q 519 961 510 972 q 525 935 528 950 l 404 372 q 400 339 400 354 q 485 265 400 265 q 567 292 536 265 q 610 372 599 319 l 731 935 q 747 961 733 950 q 775 972 760 972 l 1047 972 q 1072 961 1063 972 q 1078 935 1081 950 l 957 367 q 793 78 914 169 q 454 -14 672 -14 m 642 1035 q 483 1083 542 1035 q 424 1208 424 1131 q 428 1251 424 1229 q 439 1270 431 1263 q 460 1278 447 1278 l 597 1278 q 615 1270 610 1278 q 618 1251 621 1263 q 614 1219 614 1235 q 657 1175 614 1175 q 729 1251 714 1175 q 740 1270 732 1263 q 761 1278 749 1278 l 899 1278 q 917 1270 911 1278 q 919 1251 922 1263 q 833 1092 897 1149 q 642 1035 769 1035 z "},"Û":{"ha":1035,"x_min":47,"x_max":1079,"o":"m 454 -14 q 251 19 343 -14 q 103 119 158 51 q 47 285 47 186 q 57 367 47 326 l 178 935 q 194 961 181 950 q 222 972 207 972 l 494 972 q 519 961 510 972 q 525 935 528 950 l 404 372 q 400 339 400 354 q 485 265 400 265 q 567 292 536 265 q 610 372 599 319 l 731 935 q 747 961 733 950 q 775 972 760 972 l 1047 972 q 1072 961 1063 972 q 1078 935 1081 950 l 957 367 q 793 78 914 169 q 454 -14 672 -14 m 351 1042 q 333 1058 333 1042 q 344 1082 333 1074 l 536 1251 q 565 1272 553 1267 q 593 1278 578 1278 l 774 1278 q 799 1272 789 1278 q 819 1251 808 1267 l 939 1082 q 942 1069 942 1076 q 934 1049 942 1057 q 915 1042 926 1042 l 828 1042 q 774 1051 792 1042 l 658 1110 l 518 1051 q 461 1042 497 1042 l 351 1042 z "},"Ü":{"ha":1035,"x_min":47,"x_max":1079,"o":"m 454 -14 q 251 19 343 -14 q 103 119 158 51 q 47 285 47 186 q 57 367 47 326 l 178 935 q 194 961 181 950 q 222 972 207 972 l 494 972 q 519 961 510 972 q 525 935 528 950 l 404 372 q 400 339 400 354 q 485 265 400 265 q 567 292 536 265 q 610 372 599 319 l 731 935 q 747 961 733 950 q 775 972 760 972 l 1047 972 q 1072 961 1063 972 q 1078 935 1081 950 l 957 367 q 793 78 914 169 q 454 -14 672 -14 m 378 1042 q 357 1051 364 1042 q 353 1074 350 1060 l 389 1246 q 403 1269 392 1260 q 428 1278 414 1278 l 600 1278 q 621 1269 614 1278 q 625 1246 628 1260 l 589 1074 q 575 1051 586 1060 q 550 1042 564 1042 l 378 1042 m 751 1042 q 731 1051 738 1042 q 726 1074 724 1060 l 763 1246 q 776 1269 765 1260 q 801 1278 788 1278 l 974 1278 q 994 1269 988 1278 q 999 1246 1001 1260 l 963 1074 q 949 1051 960 1060 q 924 1042 938 1042 l 751 1042 z "},"Ù":{"ha":1035,"x_min":47,"x_max":1079,"o":"m 454 -14 q 251 19 343 -14 q 103 119 158 51 q 47 285 47 186 q 57 367 47 326 l 178 935 q 194 961 181 950 q 222 972 207 972 l 494 972 q 519 961 510 972 q 525 935 528 950 l 404 372 q 400 339 400 354 q 485 265 400 265 q 567 292 536 265 q 610 372 599 319 l 731 935 q 747 961 733 950 q 775 972 760 972 l 1047 972 q 1072 961 1063 972 q 1078 935 1081 950 l 957 367 q 793 78 914 169 q 454 -14 672 -14 m 563 1042 q 533 1047 543 1042 q 510 1065 522 1053 l 340 1233 q 338 1244 338 1239 q 347 1268 338 1258 q 369 1278 356 1278 l 628 1278 q 653 1273 644 1278 q 674 1251 663 1268 l 776 1082 q 779 1069 779 1076 q 772 1049 779 1057 q 753 1042 764 1042 l 563 1042 z "},"Ű":{"ha":1035,"x_min":47,"x_max":1131,"o":"m 454 -14 q 251 19 343 -14 q 103 119 158 51 q 47 285 47 186 q 57 367 47 326 l 178 935 q 194 961 181 950 q 222 972 207 972 l 494 972 q 519 961 510 972 q 525 935 528 950 l 404 372 q 400 339 400 354 q 485 265 400 265 q 567 292 536 265 q 610 372 599 319 l 731 935 q 747 961 733 950 q 775 972 760 972 l 1047 972 q 1072 961 1063 972 q 1078 935 1081 950 l 957 367 q 793 78 914 169 q 454 -14 672 -14 m 388 1042 q 372 1048 376 1042 q 369 1064 368 1054 q 382 1085 371 1069 l 492 1251 q 515 1272 501 1265 q 549 1278 528 1278 l 767 1278 q 785 1271 779 1278 q 789 1251 792 1264 q 776 1233 788 1242 l 582 1061 q 531 1042 560 1042 l 388 1042 m 728 1042 q 713 1048 717 1042 q 710 1064 708 1054 q 722 1085 711 1069 l 832 1251 q 855 1272 842 1265 q 889 1278 868 1278 l 1107 1278 q 1126 1271 1119 1278 q 1129 1251 1132 1264 q 1117 1233 1128 1242 l 922 1061 q 871 1042 900 1042 l 728 1042 z "},"Ū":{"ha":1035,"x_min":47,"x_max":1079,"o":"m 454 -14 q 251 19 343 -14 q 103 119 158 51 q 47 285 47 186 q 57 367 47 326 l 178 935 q 194 961 181 950 q 222 972 207 972 l 494 972 q 519 961 510 972 q 525 935 528 950 l 404 372 q 400 339 400 354 q 485 265 400 265 q 567 292 536 265 q 610 372 599 319 l 731 935 q 747 961 733 950 q 775 972 760 972 l 1047 972 q 1072 961 1063 972 q 1078 935 1081 950 l 957 367 q 793 78 914 169 q 454 -14 672 -14 m 375 1042 q 354 1051 361 1042 q 350 1074 347 1060 l 381 1218 q 394 1241 383 1232 q 419 1250 406 1250 l 943 1250 q 964 1241 957 1250 q 968 1218 971 1232 l 938 1074 q 924 1051 935 1060 q 899 1042 913 1042 l 375 1042 z "},"Ų":{"ha":1033,"x_min":47,"x_max":1081,"o":"m 496 -306 q 340 -251 393 -306 q 286 -112 286 -197 q 293 -54 286 -86 q 308 1 299 -26 q 119 100 190 29 q 47 283 47 171 q 57 367 47 326 l 178 935 q 194 961 181 950 q 222 972 207 972 l 494 972 q 519 961 510 972 q 525 935 528 950 l 404 372 q 400 339 400 354 q 485 265 400 265 q 567 292 536 265 q 610 372 599 319 l 731 935 q 747 961 733 950 q 775 972 760 972 l 1047 972 q 1072 961 1063 972 q 1078 935 1081 950 l 957 367 q 819 99 918 190 q 549 -10 721 8 q 468 -68 481 -17 q 467 -85 467 -74 q 480 -122 467 -107 q 524 -136 493 -136 l 538 -136 q 561 -147 553 -136 q 567 -174 569 -158 l 546 -268 q 530 -294 543 -283 q 501 -306 517 -306 l 496 -306 z "},"Ů":{"ha":1035,"x_min":47,"x_max":1079,"o":"m 454 -14 q 251 19 343 -14 q 103 119 158 51 q 47 285 47 186 q 57 367 47 326 l 178 935 q 194 961 181 950 q 222 972 207 972 l 494 972 q 519 961 510 972 q 525 935 528 950 l 404 372 q 400 339 400 354 q 485 265 400 265 q 567 292 536 265 q 610 372 599 319 l 731 935 q 747 961 733 950 q 775 972 760 972 l 1047 972 q 1072 961 1063 972 q 1078 935 1081 950 l 957 367 q 793 78 914 169 q 454 -14 672 -14 m 633 1028 q 551 1056 583 1028 q 519 1132 519 1085 q 544 1212 519 1175 q 608 1270 568 1249 q 689 1292 647 1292 q 771 1263 739 1292 q 803 1188 803 1235 q 778 1108 803 1144 q 715 1049 754 1071 q 633 1028 675 1028 m 653 1118 q 688 1133 672 1118 q 704 1169 704 1149 q 694 1192 704 1183 q 669 1201 685 1201 q 634 1186 650 1201 q 618 1150 618 1171 q 628 1127 618 1136 q 653 1118 638 1118 z "},"Ũ":{"ha":1035,"x_min":47,"x_max":1079,"o":"m 454 -14 q 251 19 343 -14 q 103 119 158 51 q 47 285 47 186 q 57 367 47 326 l 178 935 q 194 961 181 950 q 222 972 207 972 l 494 972 q 519 961 510 972 q 525 935 528 950 l 404 372 q 400 339 400 354 q 485 265 400 265 q 567 292 536 265 q 610 372 599 319 l 731 935 q 747 961 733 950 q 775 972 760 972 l 1047 972 q 1072 961 1063 972 q 1078 935 1081 950 l 957 367 q 793 78 914 169 q 454 -14 672 -14 m 757 1035 q 704 1042 726 1035 q 656 1064 682 1050 q 620 1080 635 1075 q 590 1085 606 1085 q 565 1078 575 1085 q 543 1061 554 1072 q 528 1047 535 1051 q 511 1042 521 1042 l 394 1042 q 378 1049 383 1042 q 374 1067 372 1057 q 442 1214 390 1143 q 594 1285 494 1285 q 647 1277 625 1285 q 696 1256 669 1269 q 731 1240 717 1244 q 761 1235 746 1235 q 786 1241 776 1235 q 807 1258 796 1247 q 824 1273 817 1268 q 840 1278 831 1278 l 957 1278 q 975 1270 969 1278 q 978 1251 981 1263 q 908 1106 961 1176 q 757 1035 856 1035 z "},"V":{"ha":1008,"x_min":129,"x_max":1103,"o":"m 257 0 q 217 14 231 0 q 204 46 204 28 l 131 932 q 140 961 129 950 q 168 972 151 972 l 417 972 q 456 958 443 972 q 469 926 468 944 l 492 410 l 733 926 q 760 958 742 944 q 806 972 779 972 l 1078 972 q 1097 965 1090 972 q 1103 949 1103 958 q 1099 932 1103 940 l 650 46 q 622 14 640 28 q 578 0 603 0 l 257 0 z "},"W":{"ha":1188,"x_min":89,"x_max":1264,"o":"m 144 0 q 103 16 118 0 q 92 53 89 32 l 138 938 q 151 962 139 951 q 176 972 163 972 l 428 972 q 461 964 451 972 q 469 935 471 956 l 433 543 l 526 717 q 582 757 549 757 l 724 757 q 763 717 758 757 l 783 544 l 914 935 q 933 964 919 956 q 972 972 947 972 l 1238 972 q 1258 961 1251 972 q 1260 938 1264 950 l 958 53 q 931 16 951 32 q 883 0 910 0 l 685 0 q 635 38 644 0 l 561 322 l 407 38 q 384 13 400 25 q 343 0 368 0 l 144 0 z "},"Ẃ":{"ha":1188,"x_min":92,"x_max":1261,"o":"m 144 0 q 103 16 118 0 q 92 53 89 32 l 138 938 q 151 962 139 951 q 176 972 163 972 l 428 972 q 461 964 451 972 q 469 935 471 956 l 433 543 l 526 717 q 582 757 549 757 l 724 757 q 763 717 758 757 l 783 544 l 914 935 q 933 964 919 956 q 972 972 947 972 l 1238 972 q 1258 961 1251 972 q 1260 938 1264 950 l 958 53 q 931 16 951 32 q 883 0 910 0 l 685 0 q 635 38 644 0 l 561 322 l 407 38 q 384 13 400 25 q 343 0 368 0 l 144 0 m 590 1042 q 572 1058 572 1042 q 583 1082 572 1074 l 758 1251 q 788 1273 778 1268 q 815 1278 799 1278 l 1088 1278 q 1106 1270 1100 1278 q 1108 1250 1111 1263 q 1097 1233 1107 1240 l 858 1065 q 828 1047 842 1053 q 794 1042 814 1042 l 590 1042 z "},"Ŵ":{"ha":1188,"x_min":92,"x_max":1261,"o":"m 144 0 q 103 16 118 0 q 92 53 89 32 l 138 938 q 151 962 139 951 q 176 972 163 972 l 428 972 q 461 964 451 972 q 469 935 471 956 l 433 543 l 526 717 q 582 757 549 757 l 724 757 q 763 717 758 757 l 783 544 l 914 935 q 933 964 919 956 q 972 972 947 972 l 1238 972 q 1258 961 1251 972 q 1260 938 1264 950 l 958 53 q 931 16 951 32 q 883 0 910 0 l 685 0 q 635 38 644 0 l 561 322 l 407 38 q 384 13 400 25 q 343 0 368 0 l 144 0 m 411 1042 q 393 1058 393 1042 q 404 1082 393 1074 l 596 1251 q 625 1272 613 1267 q 653 1278 638 1278 l 833 1278 q 858 1272 849 1278 q 879 1251 868 1267 l 999 1082 q 1001 1069 1001 1076 q 994 1049 1001 1057 q 975 1042 986 1042 l 888 1042 q 833 1051 851 1042 l 718 1110 l 578 1051 q 521 1042 557 1042 l 411 1042 z "},"Ẅ":{"ha":1188,"x_min":92,"x_max":1261,"o":"m 144 0 q 103 16 118 0 q 92 53 89 32 l 138 938 q 151 962 139 951 q 176 972 163 972 l 428 972 q 461 964 451 972 q 469 935 471 956 l 433 543 l 526 717 q 582 757 549 757 l 724 757 q 763 717 758 757 l 783 544 l 914 935 q 933 964 919 956 q 972 972 947 972 l 1238 972 q 1258 961 1251 972 q 1260 938 1264 950 l 958 53 q 931 16 951 32 q 883 0 910 0 l 685 0 q 635 38 644 0 l 561 322 l 407 38 q 384 13 400 25 q 343 0 368 0 l 144 0 m 428 1042 q 407 1051 414 1042 q 403 1074 400 1060 l 439 1246 q 453 1269 442 1260 q 478 1278 464 1278 l 650 1278 q 671 1269 664 1278 q 675 1246 678 1260 l 639 1074 q 625 1051 636 1060 q 600 1042 614 1042 l 428 1042 m 801 1042 q 781 1051 788 1042 q 776 1074 774 1060 l 813 1246 q 826 1269 815 1260 q 851 1278 838 1278 l 1024 1278 q 1044 1269 1038 1278 q 1049 1246 1051 1260 l 1013 1074 q 999 1051 1010 1060 q 974 1042 988 1042 l 801 1042 z "},"Ẁ":{"ha":1188,"x_min":92,"x_max":1261,"o":"m 144 0 q 103 16 118 0 q 92 53 89 32 l 138 938 q 151 962 139 951 q 176 972 163 972 l 428 972 q 461 964 451 972 q 469 935 471 956 l 433 543 l 526 717 q 582 757 549 757 l 724 757 q 763 717 758 757 l 783 544 l 914 935 q 933 964 919 956 q 972 972 947 972 l 1238 972 q 1258 961 1251 972 q 1260 938 1264 950 l 958 53 q 931 16 951 32 q 883 0 910 0 l 685 0 q 635 38 644 0 l 561 322 l 407 38 q 384 13 400 25 q 343 0 368 0 l 144 0 m 621 1042 q 591 1047 601 1042 q 568 1065 581 1053 l 399 1233 q 396 1244 396 1239 q 405 1268 396 1258 q 428 1278 414 1278 l 686 1278 q 712 1273 703 1278 q 732 1251 721 1268 l 835 1082 q 838 1069 838 1076 q 830 1049 838 1057 q 811 1042 822 1042 l 621 1042 z "},"X":{"ha":1025,"x_min":-79,"x_max":1128,"o":"m -54 0 q -72 8 -65 0 q -79 25 -79 15 q -71 46 -79 38 l 342 501 l 131 926 q 128 939 128 935 q 138 963 128 953 q 167 972 149 972 l 440 972 q 492 938 476 972 l 582 754 l 736 938 q 801 972 765 972 l 1103 972 q 1122 965 1115 972 q 1128 947 1128 958 q 1119 926 1128 935 l 729 460 l 935 46 q 938 32 938 38 q 927 9 938 18 q 899 0 917 0 l 626 0 q 591 10 603 0 q 575 32 579 21 l 490 200 l 339 32 q 276 0 314 0 l -54 0 z "},"Y":{"ha":985,"x_min":111,"x_max":1094,"o":"m 269 0 q 245 11 254 0 q 239 38 236 22 l 297 311 l 117 929 q 122 959 111 946 q 153 972 133 972 l 400 972 q 435 961 424 972 q 451 938 447 950 l 531 658 l 729 938 q 753 960 736 949 q 794 972 771 972 l 1069 972 q 1088 965 1082 972 q 1094 947 1094 957 q 1089 929 1094 936 l 644 311 l 586 38 q 570 11 583 22 q 542 0 557 0 l 269 0 z "},"Ý":{"ha":985,"x_min":115,"x_max":1094,"o":"m 269 0 q 245 11 254 0 q 239 38 236 22 l 297 311 l 117 929 q 122 959 111 946 q 153 972 133 972 l 400 972 q 435 961 424 972 q 451 938 447 950 l 531 658 l 729 938 q 753 960 736 949 q 794 972 771 972 l 1069 972 q 1088 965 1082 972 q 1094 947 1094 957 q 1089 929 1094 936 l 644 311 l 586 38 q 570 11 583 22 q 542 0 557 0 l 269 0 m 499 1042 q 481 1058 481 1042 q 492 1082 481 1074 l 667 1251 q 697 1273 686 1268 q 724 1278 707 1278 l 996 1278 q 1014 1270 1008 1278 q 1017 1250 1019 1263 q 1006 1233 1015 1240 l 767 1065 q 736 1047 750 1053 q 703 1042 722 1042 l 499 1042 z "},"Ŷ":{"ha":985,"x_min":115,"x_max":1094,"o":"m 269 0 q 245 11 254 0 q 239 38 236 22 l 297 311 l 117 929 q 122 959 111 946 q 153 972 133 972 l 400 972 q 435 961 424 972 q 451 938 447 950 l 531 658 l 729 938 q 753 960 736 949 q 794 972 771 972 l 1069 972 q 1088 965 1082 972 q 1094 947 1094 957 q 1089 929 1094 936 l 644 311 l 586 38 q 570 11 583 22 q 542 0 557 0 l 269 0 m 317 1042 q 299 1058 299 1042 q 310 1082 299 1074 l 501 1251 q 531 1272 518 1267 q 558 1278 543 1278 l 739 1278 q 764 1272 754 1278 q 785 1251 774 1267 l 904 1082 q 907 1069 907 1076 q 899 1049 907 1057 q 881 1042 892 1042 l 793 1042 q 739 1051 757 1042 l 624 1110 l 483 1051 q 426 1042 463 1042 l 317 1042 z "},"Ÿ":{"ha":985,"x_min":115,"x_max":1094,"o":"m 269 0 q 245 11 254 0 q 239 38 236 22 l 297 311 l 117 929 q 122 959 111 946 q 153 972 133 972 l 400 972 q 435 961 424 972 q 451 938 447 950 l 531 658 l 729 938 q 753 960 736 949 q 794 972 771 972 l 1069 972 q 1088 965 1082 972 q 1094 947 1094 957 q 1089 929 1094 936 l 644 311 l 586 38 q 570 11 583 22 q 542 0 557 0 l 269 0 m 326 1042 q 306 1051 313 1042 q 301 1074 299 1060 l 338 1246 q 351 1269 340 1260 q 376 1278 363 1278 l 549 1278 q 569 1269 563 1278 q 574 1246 576 1260 l 538 1074 q 524 1051 535 1060 q 499 1042 513 1042 l 326 1042 m 700 1042 q 679 1051 686 1042 q 675 1074 672 1060 l 711 1246 q 725 1269 714 1260 q 750 1278 736 1278 l 922 1278 q 943 1269 936 1278 q 947 1246 950 1260 l 911 1074 q 897 1051 908 1060 q 872 1042 886 1042 l 700 1042 z "},"Ỳ":{"ha":985,"x_min":115,"x_max":1094,"o":"m 269 0 q 245 11 254 0 q 239 38 236 22 l 297 311 l 117 929 q 122 959 111 946 q 153 972 133 972 l 400 972 q 435 961 424 972 q 451 938 447 950 l 531 658 l 729 938 q 753 960 736 949 q 794 972 771 972 l 1069 972 q 1088 965 1082 972 q 1094 947 1094 957 q 1089 929 1094 936 l 644 311 l 586 38 q 570 11 583 22 q 542 0 557 0 l 269 0 m 513 1042 q 483 1047 493 1042 q 460 1065 472 1053 l 290 1233 q 288 1244 288 1239 q 297 1268 288 1258 q 319 1278 306 1278 l 578 1278 q 603 1273 594 1278 q 624 1251 613 1268 l 726 1082 q 729 1069 729 1076 q 722 1049 729 1057 q 703 1042 714 1042 l 513 1042 z "},"Z":{"ha":961,"x_min":-35,"x_max":1013,"o":"m -1 0 q -26 11 -17 0 q -32 38 -35 22 l 11 238 q 42 286 17 265 l 503 690 l 158 690 q 135 701 143 690 q 129 728 126 713 l 174 935 q 190 961 176 950 q 218 972 203 972 l 979 972 q 1003 961 994 972 q 1010 935 1013 950 l 967 738 q 939 692 961 714 l 499 285 l 851 285 q 876 274 867 285 q 881 247 885 263 l 836 38 q 820 11 833 22 q 792 0 807 0 l -1 0 z "},"Ź":{"ha":961,"x_min":-33,"x_max":1015,"o":"m -1 0 q -26 11 -17 0 q -32 38 -35 22 l 11 238 q 42 286 17 265 l 503 690 l 158 690 q 135 701 143 690 q 129 728 126 713 l 174 935 q 190 961 176 950 q 218 972 203 972 l 979 972 q 1003 961 994 972 q 1010 935 1013 950 l 967 738 q 939 692 961 714 l 499 285 l 851 285 q 876 274 867 285 q 881 247 885 263 l 836 38 q 820 11 833 22 q 792 0 807 0 l -1 0 m 497 1042 q 479 1058 479 1042 q 490 1082 479 1074 l 665 1251 q 695 1273 685 1268 q 722 1278 706 1278 l 994 1278 q 1013 1270 1007 1278 q 1015 1250 1018 1263 q 1004 1233 1014 1240 l 765 1065 q 735 1047 749 1053 q 701 1042 721 1042 l 497 1042 z "},"Ž":{"ha":961,"x_min":-33,"x_max":1011,"o":"m -1 0 q -26 11 -17 0 q -32 38 -35 22 l 11 238 q 42 286 17 265 l 503 690 l 158 690 q 135 701 143 690 q 129 728 126 713 l 174 935 q 190 961 176 950 q 218 972 203 972 l 979 972 q 1003 961 994 972 q 1010 935 1013 950 l 967 738 q 939 692 961 714 l 499 285 l 851 285 q 876 274 867 285 q 881 247 885 263 l 836 38 q 820 11 833 22 q 792 0 807 0 l -1 0 m 511 1042 q 486 1047 496 1042 q 465 1068 476 1053 l 346 1238 q 343 1250 343 1243 q 351 1270 343 1263 q 369 1278 358 1278 l 457 1278 q 511 1268 493 1278 l 626 1210 l 767 1268 q 824 1278 788 1278 l 933 1278 q 951 1261 951 1278 q 940 1238 951 1246 l 749 1068 q 719 1047 732 1053 q 692 1042 707 1042 l 511 1042 z "},"Ż":{"ha":961,"x_min":-33,"x_max":1011,"o":"m -1 0 q -26 11 -17 0 q -32 38 -35 22 l 11 238 q 42 286 17 265 l 503 690 l 158 690 q 135 701 143 690 q 129 728 126 713 l 174 935 q 190 961 176 950 q 218 972 203 972 l 979 972 q 1003 961 994 972 q 1010 935 1013 950 l 967 738 q 939 692 961 714 l 499 285 l 851 285 q 876 274 867 285 q 881 247 885 263 l 836 38 q 820 11 833 22 q 792 0 807 0 l -1 0 m 521 1042 q 500 1051 507 1042 q 496 1074 493 1060 l 536 1263 q 549 1285 538 1276 q 575 1294 561 1294 l 764 1294 q 785 1285 778 1294 q 789 1263 792 1276 l 749 1074 q 735 1051 746 1060 q 710 1042 724 1042 l 521 1042 z "},"a":{"ha":917,"x_min":14,"x_max":915,"o":"m 261 -14 q 81 44 149 -14 q 14 224 14 101 q 21 307 14 269 q 44 417 33 367 q 178 656 85 576 q 407 736 272 736 q 524 718 481 736 q 599 667 568 700 l 603 685 q 619 711 606 700 q 647 722 632 722 l 882 722 q 906 711 897 722 q 913 685 915 700 l 775 38 q 759 11 772 22 q 731 0 746 0 l 494 0 q 470 11 479 0 q 464 38 461 22 l 471 69 q 376 7 425 28 q 261 -14 328 -14 m 415 235 q 472 255 451 235 q 503 315 492 275 q 524 418 517 369 q 525 438 525 425 q 469 488 525 488 q 415 468 433 488 q 383 407 396 449 q 364 315 368 356 q 363 289 363 306 q 374 248 363 261 q 415 235 386 235 z "},"á":{"ha":917,"x_min":14,"x_max":936,"o":"m 261 -14 q 81 44 149 -14 q 14 224 14 101 q 21 307 14 269 q 44 417 33 367 q 178 656 85 576 q 407 736 272 736 q 524 718 481 736 q 599 667 568 700 l 603 685 q 619 711 606 700 q 647 722 632 722 l 882 722 q 906 711 897 722 q 913 685 915 700 l 775 38 q 759 11 772 22 q 731 0 746 0 l 494 0 q 470 11 479 0 q 464 38 461 22 l 471 69 q 376 7 425 28 q 261 -14 328 -14 m 415 235 q 472 255 451 235 q 503 315 492 275 q 524 418 517 369 q 525 438 525 425 q 469 488 525 488 q 415 468 433 488 q 383 407 396 449 q 364 315 368 356 q 363 289 363 306 q 374 248 363 261 q 415 235 386 235 m 432 826 q 414 843 414 826 q 425 867 414 858 l 600 1036 q 630 1058 619 1053 q 657 1063 640 1063 l 915 1063 q 933 1055 928 1063 q 936 1035 939 1047 q 925 1018 935 1025 l 686 850 q 656 832 669 838 q 622 826 642 826 l 432 826 z "},"ă":{"ha":917,"x_min":14,"x_max":914,"o":"m 261 -14 q 81 44 149 -14 q 14 224 14 101 q 21 307 14 269 q 44 417 33 367 q 178 656 85 576 q 407 736 272 736 q 524 718 481 736 q 599 667 568 700 l 603 685 q 619 711 606 700 q 647 722 632 722 l 882 722 q 906 711 897 722 q 913 685 915 700 l 775 38 q 759 11 772 22 q 731 0 746 0 l 494 0 q 470 11 479 0 q 464 38 461 22 l 471 69 q 376 7 425 28 q 261 -14 328 -14 m 415 235 q 472 255 451 235 q 503 315 492 275 q 524 418 517 369 q 525 438 525 425 q 469 488 525 488 q 415 468 433 488 q 383 407 396 449 q 364 315 368 356 q 363 289 363 306 q 374 248 363 261 q 415 235 386 235 m 556 819 q 403 869 463 819 q 344 994 344 918 q 349 1036 344 1015 q 360 1055 351 1047 q 381 1063 368 1063 l 511 1063 q 529 1055 524 1063 q 532 1036 535 1047 q 529 1007 529 1017 q 571 960 529 960 q 618 981 600 960 q 643 1036 636 1001 q 654 1055 646 1047 q 675 1063 663 1063 l 806 1063 q 824 1055 818 1063 q 826 1036 829 1047 q 740 877 806 935 q 556 819 674 819 z "},"â":{"ha":917,"x_min":14,"x_max":914,"o":"m 261 -14 q 81 44 149 -14 q 14 224 14 101 q 21 307 14 269 q 44 417 33 367 q 178 656 85 576 q 407 736 272 736 q 524 718 481 736 q 599 667 568 700 l 603 685 q 619 711 606 700 q 647 722 632 722 l 882 722 q 906 711 897 722 q 913 685 915 700 l 775 38 q 759 11 772 22 q 731 0 746 0 l 494 0 q 470 11 479 0 q 464 38 461 22 l 471 69 q 376 7 425 28 q 261 -14 328 -14 m 415 235 q 472 255 451 235 q 503 315 492 275 q 524 418 517 369 q 525 438 525 425 q 469 488 525 488 q 415 468 433 488 q 383 407 396 449 q 364 315 368 356 q 363 289 363 306 q 374 248 363 261 q 415 235 386 235 m 261 826 q 243 843 243 826 q 254 867 243 858 l 446 1036 q 475 1057 463 1051 q 503 1063 488 1063 l 669 1063 q 694 1057 685 1063 q 715 1036 704 1051 l 835 867 q 838 854 838 861 q 830 834 838 842 q 811 826 822 826 l 731 826 q 676 836 694 826 l 561 894 l 421 836 q 364 826 400 826 l 261 826 z "},"ä":{"ha":917,"x_min":14,"x_max":914,"o":"m 261 -14 q 81 44 149 -14 q 14 224 14 101 q 21 307 14 269 q 44 417 33 367 q 178 656 85 576 q 407 736 272 736 q 524 718 481 736 q 599 667 568 700 l 603 685 q 619 711 606 700 q 647 722 632 722 l 882 722 q 906 711 897 722 q 913 685 915 700 l 775 38 q 759 11 772 22 q 731 0 746 0 l 494 0 q 470 11 479 0 q 464 38 461 22 l 471 69 q 376 7 425 28 q 261 -14 328 -14 m 415 235 q 472 255 451 235 q 503 315 492 275 q 524 418 517 369 q 525 438 525 425 q 469 488 525 488 q 415 468 433 488 q 383 407 396 449 q 364 315 368 356 q 363 289 363 306 q 374 248 363 261 q 415 235 386 235 m 289 826 q 268 835 275 826 q 264 858 261 844 l 300 1031 q 314 1053 303 1044 q 339 1063 325 1063 l 511 1063 q 532 1053 525 1063 q 536 1031 539 1044 l 500 858 q 486 835 497 844 q 461 826 475 826 l 289 826 m 621 826 q 600 835 607 826 q 596 858 593 844 l 632 1031 q 646 1053 635 1044 q 671 1063 657 1063 l 843 1063 q 864 1053 857 1063 q 868 1031 871 1044 l 832 858 q 818 835 829 844 q 793 826 807 826 l 621 826 z "},"à":{"ha":917,"x_min":14,"x_max":914,"o":"m 261 -14 q 81 44 149 -14 q 14 224 14 101 q 21 307 14 269 q 44 417 33 367 q 178 656 85 576 q 407 736 272 736 q 524 718 481 736 q 599 667 568 700 l 603 685 q 619 711 606 700 q 647 722 632 722 l 882 722 q 906 711 897 722 q 913 685 915 700 l 775 38 q 759 11 772 22 q 731 0 746 0 l 494 0 q 470 11 479 0 q 464 38 461 22 l 471 69 q 376 7 425 28 q 261 -14 328 -14 m 415 235 q 472 255 451 235 q 503 315 492 275 q 524 418 517 369 q 525 438 525 425 q 469 488 525 488 q 415 468 433 488 q 383 407 396 449 q 364 315 368 356 q 363 289 363 306 q 374 248 363 261 q 415 235 386 235 m 440 826 q 410 832 421 826 q 388 850 400 838 l 218 1018 q 215 1029 215 1024 q 224 1053 215 1043 q 247 1063 233 1063 l 519 1063 q 545 1058 536 1063 q 565 1036 554 1053 l 668 867 q 671 854 671 861 q 663 834 671 842 q 644 826 656 826 l 440 826 z "},"ā":{"ha":917,"x_min":14,"x_max":914,"o":"m 261 -14 q 81 44 149 -14 q 14 224 14 101 q 21 307 14 269 q 44 417 33 367 q 178 656 85 576 q 407 736 272 736 q 524 718 481 736 q 599 667 568 700 l 603 685 q 619 711 606 700 q 647 722 632 722 l 882 722 q 906 711 897 722 q 913 685 915 700 l 775 38 q 759 11 772 22 q 731 0 746 0 l 494 0 q 470 11 479 0 q 464 38 461 22 l 471 69 q 376 7 425 28 q 261 -14 328 -14 m 415 235 q 472 255 451 235 q 503 315 492 275 q 524 418 517 369 q 525 438 525 425 q 469 488 525 488 q 415 468 433 488 q 383 407 396 449 q 364 315 368 356 q 363 289 363 306 q 374 248 363 261 q 415 235 386 235 m 310 826 q 289 835 296 826 q 285 858 282 844 l 315 1003 q 329 1026 318 1017 q 354 1035 340 1035 l 808 1035 q 829 1026 822 1035 q 833 1003 836 1017 l 803 858 q 789 835 800 844 q 764 826 778 826 l 310 826 z "},"ą":{"ha":864,"x_min":-4,"x_max":842,"o":"m 618 -306 q 471 -260 518 -306 q 424 -135 424 -214 q 431 -68 424 -97 q 450 0 438 -28 q 433 13 439 3 q 431 38 428 24 l 439 76 q 342 10 399 33 q 222 -14 286 -14 q 57 35 118 -14 q -4 164 -4 85 q 0 207 -4 185 q 356 447 39 394 l 507 471 l 507 472 q 514 514 514 503 q 506 535 514 529 q 481 542 499 542 q 453 536 465 542 q 426 519 442 531 q 400 503 410 508 q 375 497 390 497 l 371 497 l 139 497 q 118 506 125 497 q 115 528 111 514 q 176 618 126 569 q 316 701 226 667 q 525 736 406 736 q 763 679 683 736 q 842 514 842 622 q 833 436 842 478 l 749 38 q 732 11 746 22 q 703 0 718 0 l 681 0 q 630 -22 649 -1 q 606 -68 611 -43 q 603 -86 603 -79 q 617 -122 603 -107 q 660 -136 631 -136 l 674 -136 q 698 -147 689 -136 q 704 -174 707 -158 l 683 -268 q 667 -294 681 -283 q 638 -306 653 -306 l 618 -306 m 363 192 q 434 218 404 192 q 475 299 464 244 l 475 300 l 389 282 q 317 224 317 265 q 328 201 317 210 q 363 192 340 192 z "},"å":{"ha":917,"x_min":14,"x_max":914,"o":"m 261 -14 q 81 44 149 -14 q 14 224 14 101 q 21 307 14 269 q 44 417 33 367 q 178 656 85 576 q 407 736 272 736 q 524 718 481 736 q 599 667 568 700 l 603 685 q 619 711 606 700 q 647 722 632 722 l 882 722 q 906 711 897 722 q 913 685 915 700 l 775 38 q 759 11 772 22 q 731 0 746 0 l 494 0 q 470 11 479 0 q 464 38 461 22 l 471 69 q 376 7 425 28 q 261 -14 328 -14 m 415 235 q 472 255 451 235 q 503 315 492 275 q 524 418 517 369 q 525 438 525 425 q 469 488 525 488 q 415 468 433 488 q 383 407 396 449 q 364 315 368 356 q 363 289 363 306 q 374 248 363 261 q 415 235 386 235 m 535 819 q 453 848 485 819 q 421 924 421 876 q 445 1003 421 967 q 509 1062 469 1040 q 590 1083 549 1083 q 672 1055 640 1083 q 704 979 704 1026 q 680 899 704 936 q 616 841 656 863 q 535 819 576 819 m 554 910 q 590 925 574 910 q 606 961 606 940 q 596 984 606 975 q 571 993 586 993 q 535 978 551 993 q 519 942 519 963 q 529 919 519 928 q 554 910 539 910 z "},"ã":{"ha":917,"x_min":14,"x_max":914,"o":"m 261 -14 q 81 44 149 -14 q 14 224 14 101 q 21 307 14 269 q 44 417 33 367 q 178 656 85 576 q 407 736 272 736 q 524 718 481 736 q 599 667 568 700 l 603 685 q 619 711 606 700 q 647 722 632 722 l 882 722 q 906 711 897 722 q 913 685 915 700 l 775 38 q 759 11 772 22 q 731 0 746 0 l 494 0 q 470 11 479 0 q 464 38 461 22 l 471 69 q 376 7 425 28 q 261 -14 328 -14 m 415 235 q 472 255 451 235 q 503 315 492 275 q 524 418 517 369 q 525 438 525 425 q 469 488 525 488 q 415 468 433 488 q 383 407 396 449 q 364 315 368 356 q 363 289 363 306 q 374 248 363 261 q 415 235 386 235 m 653 819 q 600 827 622 819 q 551 849 578 835 q 515 865 529 860 q 486 869 501 869 q 460 863 471 869 q 439 846 450 857 q 424 831 431 836 q 407 826 417 826 l 290 826 q 274 834 279 826 q 269 851 268 842 q 338 999 286 928 q 490 1069 390 1069 q 544 1062 521 1069 q 593 1040 567 1054 q 628 1024 614 1029 q 658 1019 643 1019 q 683 1026 674 1019 q 704 1043 693 1032 q 719 1056 711 1050 q 736 1063 726 1063 l 853 1063 q 871 1055 865 1063 q 874 1036 876 1047 q 804 890 857 961 q 653 819 751 819 z "},"æ":{"ha":1299,"x_min":-4,"x_max":1282,"o":"m 250 -14 q 62 35 128 -14 q -4 164 -4 85 q 0 207 -4 186 q 356 447 39 394 l 507 471 l 508 475 q 514 514 514 506 q 506 535 514 529 q 481 542 499 542 q 453 536 465 542 q 426 519 442 531 q 400 503 410 508 q 375 497 390 497 l 371 497 l 139 497 q 119 506 125 497 q 115 528 113 514 q 174 617 124 568 q 315 701 225 665 q 525 736 406 736 q 732 685 672 736 q 956 736 839 736 q 1201 658 1119 736 q 1282 454 1282 581 q 1271 358 1282 411 l 1263 317 q 1245 290 1258 301 q 1217 279 1232 279 l 803 279 l 801 272 q 796 232 796 251 q 838 188 796 188 q 857 193 847 188 q 873 204 867 199 q 883 213 879 210 q 907 228 897 225 q 933 232 917 232 l 1196 232 q 1216 224 1210 232 q 1219 201 1222 215 q 1157 110 1211 161 q 1010 23 1103 60 q 797 -14 917 -14 q 542 71 626 -14 q 250 -14 425 -14 m 951 453 l 951 458 q 956 493 956 479 q 914 542 956 542 q 840 458 858 542 l 840 453 l 951 453 m 363 192 q 434 218 404 192 q 475 299 464 244 l 475 300 l 389 282 q 317 224 317 265 q 328 201 317 210 q 363 192 340 192 z "},"ǽ":{"ha":1299,"x_min":-4,"x_max":1282,"o":"m 250 -14 q 62 35 128 -14 q -4 164 -4 85 q 0 207 -4 186 q 356 447 39 394 l 507 471 l 508 475 q 514 514 514 506 q 506 535 514 529 q 481 542 499 542 q 453 536 465 542 q 426 519 442 531 q 400 503 410 508 q 375 497 390 497 l 371 497 l 139 497 q 119 506 125 497 q 115 528 113 514 q 174 617 124 568 q 315 701 225 665 q 525 736 406 736 q 732 685 672 736 q 956 736 839 736 q 1201 658 1119 736 q 1282 454 1282 581 q 1271 358 1282 411 l 1263 317 q 1245 290 1258 301 q 1217 279 1232 279 l 803 279 l 801 272 q 796 232 796 251 q 838 188 796 188 q 857 193 847 188 q 873 204 867 199 q 883 213 879 210 q 907 228 897 225 q 933 232 917 232 l 1196 232 q 1216 224 1210 232 q 1219 201 1222 215 q 1157 110 1211 161 q 1010 23 1103 60 q 797 -14 917 -14 q 542 71 626 -14 q 250 -14 425 -14 m 951 453 l 951 458 q 956 493 956 479 q 914 542 956 542 q 840 458 858 542 l 840 453 l 951 453 m 363 192 q 434 218 404 192 q 475 299 464 244 l 475 300 l 389 282 q 317 224 317 265 q 328 201 317 210 q 363 192 340 192 m 642 826 q 624 843 624 826 q 635 867 624 858 l 810 1036 q 840 1058 829 1053 q 867 1063 850 1063 l 1125 1063 q 1143 1055 1138 1063 q 1146 1035 1149 1047 q 1135 1018 1144 1025 l 896 850 q 865 832 879 838 q 832 826 851 826 l 642 826 z "},"b":{"ha":917,"x_min":-19,"x_max":882,"o":"m 503 -14 q 379 8 432 -14 q 301 69 326 31 l 294 38 q 278 11 292 22 q 250 0 265 0 l 14 0 q -10 11 -1 0 q -17 38 -19 22 l 178 949 q 194 975 181 964 q 222 986 207 986 l 479 986 q 503 975 494 986 q 510 949 513 964 l 450 671 q 536 719 493 703 q 635 736 579 736 q 814 675 746 736 q 882 496 882 614 q 875 417 882 451 q 851 307 865 360 q 503 -14 771 -14 m 426 235 q 481 254 463 235 q 514 315 500 274 q 533 407 529 367 l 535 431 q 523 474 535 460 q 481 488 511 488 q 396 418 415 488 q 375 315 382 365 q 372 286 372 293 q 426 235 372 235 z "},"c":{"ha":863,"x_min":13,"x_max":849,"o":"m 351 -14 q 181 17 258 -14 q 58 110 104 49 q 13 256 13 171 q 17 304 13 279 q 40 417 32 386 q 197 653 81 569 q 483 736 313 736 q 688 692 606 736 q 810 587 771 647 q 849 479 849 526 l 847 467 q 831 440 846 451 q 801 429 817 429 l 531 429 q 508 436 515 429 q 496 457 500 443 q 482 489 490 479 q 454 499 474 499 q 407 477 424 499 q 379 410 390 456 q 358 311 364 347 q 354 268 354 286 q 364 234 354 244 q 396 224 374 224 q 429 233 418 224 q 456 265 440 242 q 501 293 474 293 l 772 293 q 797 282 788 293 q 803 256 807 271 q 740 149 789 211 q 594 36 692 86 q 351 -14 497 -14 z "},"ć":{"ha":863,"x_min":13,"x_max":899,"o":"m 351 -14 q 181 17 258 -14 q 58 110 104 49 q 13 256 13 171 q 17 304 13 279 q 40 417 32 386 q 197 653 81 569 q 483 736 313 736 q 688 692 606 736 q 810 587 771 647 q 849 479 849 526 l 847 467 q 831 440 846 451 q 801 429 817 429 l 531 429 q 508 436 515 429 q 496 457 500 443 q 482 489 490 479 q 454 499 474 499 q 407 477 424 499 q 379 410 390 456 q 358 311 364 347 q 354 268 354 286 q 364 234 354 244 q 396 224 374 224 q 429 233 418 224 q 456 265 440 242 q 501 293 474 293 l 772 293 q 797 282 788 293 q 803 256 807 271 q 740 149 789 211 q 594 36 692 86 q 351 -14 497 -14 m 394 826 q 376 843 376 826 q 388 867 376 858 l 563 1036 q 592 1058 582 1053 q 619 1063 603 1063 l 878 1063 q 896 1055 890 1063 q 899 1035 901 1047 q 888 1018 897 1025 l 649 850 q 618 832 632 838 q 585 826 604 826 l 394 826 z "},"č":{"ha":863,"x_min":13,"x_max":854,"o":"m 351 -14 q 181 17 258 -14 q 58 110 104 49 q 13 256 13 171 q 17 304 13 279 q 40 417 32 386 q 197 653 81 569 q 483 736 313 736 q 688 692 606 736 q 810 587 771 647 q 849 479 849 526 l 847 467 q 831 440 846 451 q 801 429 817 429 l 531 429 q 508 436 515 429 q 496 457 500 443 q 482 489 490 479 q 454 499 474 499 q 407 477 424 499 q 379 410 390 456 q 358 311 364 347 q 354 268 354 286 q 364 234 354 244 q 396 224 374 224 q 429 233 418 224 q 456 265 440 242 q 501 293 474 293 l 772 293 q 797 282 788 293 q 803 256 807 271 q 740 149 789 211 q 594 36 692 86 q 351 -14 497 -14 m 428 826 q 403 832 413 826 q 382 853 393 838 l 263 1022 q 260 1035 260 1028 q 267 1055 260 1047 q 286 1063 275 1063 l 367 1063 q 421 1053 403 1063 l 536 994 l 676 1053 q 733 1063 697 1063 l 836 1063 q 854 1046 854 1063 q 843 1022 854 1031 l 651 853 q 622 832 635 838 q 594 826 610 826 l 428 826 z "},"ç":{"ha":863,"x_min":13,"x_max":849,"o":"m 379 410 q 358 311 364 347 q 354 268 354 286 q 364 234 354 244 q 396 224 374 224 q 429 233 418 224 q 456 265 440 242 q 501 293 474 293 l 772 293 q 797 282 788 293 q 803 256 807 271 q 741 149 789 211 q 597 38 693 88 q 356 -14 500 -12 l 321 -62 q 344 -58 332 -60 q 364 -56 357 -56 q 430 -82 407 -56 q 453 -151 453 -108 q 449 -187 453 -169 q 399 -275 438 -244 q 300 -306 361 -306 q 219 -289 256 -306 q 183 -253 183 -272 q 194 -235 183 -243 l 228 -210 q 249 -201 240 -201 q 269 -208 253 -201 q 306 -214 285 -214 q 336 -204 324 -214 q 351 -181 349 -194 q 347 -157 354 -167 q 319 -147 339 -147 q 304 -149 311 -147 q 292 -151 297 -150 q 264 -156 278 -156 q 244 -147 251 -156 l 215 -108 q 208 -92 208 -99 q 224 -58 208 -82 l 258 -4 q 81 83 149 17 q 13 254 13 150 q 17 304 13 278 q 40 417 32 386 q 197 653 81 569 q 483 736 313 736 q 688 692 606 736 q 810 587 771 647 q 849 479 849 526 l 847 467 q 831 440 846 451 q 801 429 817 429 l 531 429 q 508 436 515 429 q 496 457 500 443 q 482 489 490 479 q 454 499 474 499 q 407 477 424 499 q 379 410 390 456 z "},"ĉ":{"ha":863,"x_min":13,"x_max":849,"o":"m 351 -14 q 181 17 258 -14 q 58 110 104 49 q 13 256 13 171 q 17 304 13 279 q 40 417 32 386 q 197 653 81 569 q 483 736 313 736 q 688 692 606 736 q 810 587 771 647 q 849 479 849 526 l 847 467 q 831 440 846 451 q 801 429 817 429 l 531 429 q 508 436 515 429 q 496 457 500 443 q 482 489 490 479 q 454 499 474 499 q 407 477 424 499 q 379 410 390 456 q 358 311 364 347 q 354 268 354 286 q 364 234 354 244 q 396 224 374 224 q 429 233 418 224 q 456 265 440 242 q 501 293 474 293 l 772 293 q 797 282 788 293 q 803 256 807 271 q 740 149 789 211 q 594 36 692 86 q 351 -14 497 -14 m 236 826 q 218 843 218 826 q 229 867 218 858 l 421 1036 q 450 1057 438 1051 q 478 1063 463 1063 l 644 1063 q 669 1057 660 1063 q 690 1036 679 1051 l 810 867 q 813 854 813 861 q 805 834 813 842 q 786 826 797 826 l 706 826 q 651 836 669 826 l 536 894 l 396 836 q 339 826 375 826 l 236 826 z "},"ċ":{"ha":863,"x_min":13,"x_max":849,"o":"m 351 -14 q 181 17 258 -14 q 58 110 104 49 q 13 256 13 171 q 17 304 13 279 q 40 417 32 386 q 197 653 81 569 q 483 736 313 736 q 688 692 606 736 q 810 587 771 647 q 849 479 849 526 l 847 467 q 831 440 846 451 q 801 429 817 429 l 531 429 q 508 436 515 429 q 496 457 500 443 q 482 489 490 479 q 454 499 474 499 q 407 477 424 499 q 379 410 390 456 q 358 311 364 347 q 354 268 354 286 q 364 234 354 244 q 396 224 374 224 q 429 233 418 224 q 456 265 440 242 q 501 293 474 293 l 772 293 q 797 282 788 293 q 803 256 807 271 q 740 149 789 211 q 594 36 692 86 q 351 -14 497 -14 m 435 826 q 414 835 421 826 q 410 858 407 844 l 449 1040 q 462 1063 450 1054 q 488 1072 474 1072 l 669 1072 q 690 1063 683 1072 q 694 1040 697 1054 l 656 858 q 642 835 653 844 q 617 826 631 826 l 435 826 z "},"d":{"ha":918,"x_min":14,"x_max":972,"o":"m 261 -14 q 81 44 149 -14 q 14 224 14 101 q 21 307 14 269 q 44 417 33 367 q 176 656 85 575 q 393 736 268 736 q 502 719 451 736 q 579 671 553 701 l 638 949 q 653 975 640 964 q 682 986 667 986 l 939 986 q 963 975 954 986 q 969 949 972 964 l 775 38 q 759 11 772 22 q 731 0 746 0 l 494 0 q 470 11 479 0 q 464 38 461 22 l 471 69 q 376 7 425 28 q 261 -14 328 -14 m 415 235 q 472 255 451 235 q 503 315 492 275 q 524 418 517 369 q 525 438 525 425 q 469 488 525 488 q 415 468 433 488 q 383 407 396 449 q 364 315 368 356 q 363 289 363 306 q 374 248 363 261 q 415 235 386 235 z "},"ð":{"ha":886,"x_min":26,"x_max":914,"o":"m 368 -14 q 117 49 207 -14 q 26 236 26 113 q 36 319 26 268 q 201 567 71 482 q 510 653 332 653 l 529 653 q 504 728 521 690 l 326 664 l 310 660 q 291 668 297 660 q 288 689 285 676 l 296 728 q 308 756 299 746 q 336 774 317 767 l 447 814 q 343 915 408 864 q 333 928 336 921 q 331 942 329 936 q 344 963 333 954 q 368 972 356 972 l 629 972 q 699 954 678 972 q 719 935 707 946 q 738 918 731 925 l 872 967 l 889 971 q 908 963 901 971 q 911 942 914 954 l 903 903 q 891 874 900 885 q 863 857 882 864 l 801 835 q 872 554 872 719 q 858 400 872 493 q 840 313 853 361 q 674 69 797 151 q 368 -14 551 -14 m 415 208 q 467 227 449 208 q 493 282 485 246 q 510 356 499 301 q 513 385 513 375 q 501 419 513 407 q 463 431 490 431 q 410 412 426 431 q 385 356 394 393 q 369 283 376 326 q 365 251 365 265 q 376 219 365 229 q 415 208 388 208 z "},"ď":{"ha":1200,"x_min":14,"x_max":1354,"o":"m 261 -14 q 81 44 149 -14 q 14 224 14 101 q 21 307 14 269 q 44 417 33 367 q 176 656 85 575 q 393 736 268 736 q 502 719 451 736 q 579 671 553 701 l 638 949 q 653 975 640 964 q 682 986 667 986 l 939 986 q 963 975 954 986 q 969 949 972 964 l 775 38 q 759 11 772 22 q 731 0 746 0 l 494 0 q 470 11 479 0 q 464 38 461 22 l 471 69 q 376 7 425 28 q 261 -14 328 -14 m 415 235 q 472 255 451 235 q 503 315 492 275 q 524 418 517 369 q 525 438 525 425 q 469 488 525 488 q 415 468 433 488 q 383 407 396 449 q 364 315 368 356 q 363 289 363 306 q 374 248 363 261 q 415 235 386 235 m 1018 708 q 999 717 1006 708 q 994 739 992 726 l 1064 932 q 1091 970 1072 954 q 1136 986 1110 986 l 1331 986 q 1350 977 1343 986 q 1354 956 1357 968 q 1353 951 1353 954 q 1350 946 1353 949 l 1233 753 q 1164 708 1206 708 l 1018 708 z "},"đ":{"ha":918,"x_min":11,"x_max":1033,"o":"m 246 -14 q 74 42 136 -14 q 11 217 11 97 q 19 307 11 257 q 43 417 32 367 q 181 655 83 574 q 406 736 279 736 q 576 671 518 736 l 596 761 l 554 761 q 531 772 539 761 q 525 799 522 783 l 540 869 q 556 896 543 885 q 585 907 569 907 l 626 907 l 636 949 q 652 975 639 964 q 681 986 665 986 l 938 986 q 962 975 953 986 q 968 949 971 964 l 958 907 l 1000 907 q 1024 896 1015 907 q 1031 869 1033 885 l 1015 799 q 999 772 1013 783 q 969 761 985 761 l 928 761 l 774 38 q 758 11 771 22 q 729 0 744 0 l 493 0 q 469 11 478 0 q 463 38 460 22 l 472 79 q 372 11 429 36 q 246 -14 314 -14 m 414 235 q 470 255 450 235 q 501 315 490 275 q 522 418 515 369 q 524 438 524 425 q 468 488 524 488 q 413 468 432 488 q 382 407 394 449 q 363 315 367 356 q 361 289 361 306 q 373 248 361 261 q 414 235 385 235 z "},"e":{"ha":863,"x_min":35,"x_max":850,"o":"m 365 -14 q 121 51 207 -14 q 35 251 35 117 q 47 360 35 301 l 50 369 q 216 641 90 546 q 524 736 342 736 q 769 658 688 736 q 850 454 850 581 q 839 358 850 411 l 831 317 q 813 290 826 301 q 785 279 800 279 l 371 279 l 369 272 q 364 232 364 251 q 406 188 364 188 q 425 193 415 188 q 441 204 435 199 q 451 213 447 210 q 475 228 465 225 q 501 232 485 232 l 764 232 q 785 224 778 232 q 788 201 792 215 q 722 110 776 161 q 576 23 668 60 q 365 -14 483 -14 m 519 453 l 519 454 q 524 493 524 478 q 482 542 524 542 q 408 454 426 542 l 408 453 l 519 453 z "},"é":{"ha":863,"x_min":35,"x_max":899,"o":"m 365 -14 q 121 51 207 -14 q 35 251 35 117 q 47 360 35 301 l 50 369 q 216 641 90 546 q 524 736 342 736 q 769 658 688 736 q 850 454 850 581 q 839 358 850 411 l 831 317 q 813 290 826 301 q 785 279 800 279 l 371 279 l 369 272 q 364 232 364 251 q 406 188 364 188 q 425 193 415 188 q 441 204 435 199 q 451 213 447 210 q 475 228 465 225 q 501 232 485 232 l 764 232 q 785 224 778 232 q 788 201 792 215 q 722 110 776 161 q 576 23 668 60 q 365 -14 483 -14 m 519 453 l 519 454 q 524 493 524 478 q 482 542 524 542 q 408 454 426 542 l 408 453 l 519 453 m 394 826 q 376 843 376 826 q 388 867 376 858 l 563 1036 q 592 1058 582 1053 q 619 1063 603 1063 l 878 1063 q 896 1055 890 1063 q 899 1035 901 1047 q 888 1018 897 1025 l 649 850 q 618 832 632 838 q 585 826 604 826 l 394 826 z "},"ĕ":{"ha":863,"x_min":35,"x_max":850,"o":"m 365 -14 q 121 51 207 -14 q 35 251 35 117 q 47 360 35 301 l 50 369 q 216 641 90 546 q 524 736 342 736 q 769 658 688 736 q 850 454 850 581 q 839 358 850 411 l 831 317 q 813 290 826 301 q 785 279 800 279 l 371 279 l 369 272 q 364 232 364 251 q 406 188 364 188 q 425 193 415 188 q 441 204 435 199 q 451 213 447 210 q 475 228 465 225 q 501 232 485 232 l 764 232 q 785 224 778 232 q 788 201 792 215 q 722 110 776 161 q 576 23 668 60 q 365 -14 483 -14 m 519 453 l 519 454 q 524 493 524 478 q 482 542 524 542 q 408 454 426 542 l 408 453 l 519 453 m 519 819 q 367 869 426 819 q 308 994 308 918 q 313 1036 308 1015 q 324 1055 315 1047 q 344 1063 332 1063 l 475 1063 q 493 1055 488 1063 q 496 1036 499 1047 q 493 1007 493 1017 q 535 960 493 960 q 582 981 564 960 q 607 1036 600 1001 q 618 1055 610 1047 q 639 1063 626 1063 l 769 1063 q 788 1055 782 1063 q 790 1036 793 1047 q 703 877 769 935 q 519 819 638 819 z "},"ě":{"ha":863,"x_min":35,"x_max":867,"o":"m 365 -14 q 121 51 207 -14 q 35 251 35 117 q 47 360 35 301 l 50 369 q 216 641 90 546 q 524 736 342 736 q 769 658 688 736 q 850 454 850 581 q 839 358 850 411 l 831 317 q 813 290 826 301 q 785 279 800 279 l 371 279 l 369 272 q 364 232 364 251 q 406 188 364 188 q 425 193 415 188 q 441 204 435 199 q 451 213 447 210 q 475 228 465 225 q 501 232 485 232 l 764 232 q 785 224 778 232 q 788 201 792 215 q 722 110 776 161 q 576 23 668 60 q 365 -14 483 -14 m 519 453 l 519 454 q 524 493 524 478 q 482 542 524 542 q 408 454 426 542 l 408 453 l 519 453 m 440 826 q 415 832 425 826 q 394 853 406 838 l 275 1022 q 272 1035 272 1028 q 280 1055 272 1047 q 299 1063 288 1063 l 379 1063 q 433 1053 415 1063 l 549 994 l 689 1053 q 746 1063 710 1063 l 849 1063 q 867 1046 867 1063 q 856 1022 867 1031 l 664 853 q 635 832 647 838 q 607 826 622 826 l 440 826 z "},"ê":{"ha":863,"x_min":35,"x_max":850,"o":"m 365 -14 q 121 51 207 -14 q 35 251 35 117 q 47 360 35 301 l 50 369 q 216 641 90 546 q 524 736 342 736 q 769 658 688 736 q 850 454 850 581 q 839 358 850 411 l 831 317 q 813 290 826 301 q 785 279 800 279 l 371 279 l 369 272 q 364 232 364 251 q 406 188 364 188 q 425 193 415 188 q 441 204 435 199 q 451 213 447 210 q 475 228 465 225 q 501 232 485 232 l 764 232 q 785 224 778 232 q 788 201 792 215 q 722 110 776 161 q 576 23 668 60 q 365 -14 483 -14 m 519 453 l 519 454 q 524 493 524 478 q 482 542 524 542 q 408 454 426 542 l 408 453 l 519 453 m 225 826 q 207 843 207 826 q 218 867 207 858 l 410 1036 q 439 1057 426 1051 q 467 1063 451 1063 l 633 1063 q 658 1057 649 1063 q 679 1036 668 1051 l 799 867 q 801 854 801 861 q 794 834 801 842 q 775 826 786 826 l 694 826 q 640 836 658 826 l 525 894 l 385 836 q 328 826 364 826 l 225 826 z "},"ë":{"ha":863,"x_min":35,"x_max":850,"o":"m 365 -14 q 121 51 207 -14 q 35 251 35 117 q 47 360 35 301 l 50 369 q 216 641 90 546 q 524 736 342 736 q 769 658 688 736 q 850 454 850 581 q 839 358 850 411 l 831 317 q 813 290 826 301 q 785 279 800 279 l 371 279 l 369 272 q 364 232 364 251 q 406 188 364 188 q 425 193 415 188 q 441 204 435 199 q 451 213 447 210 q 475 228 465 225 q 501 232 485 232 l 764 232 q 785 224 778 232 q 788 201 792 215 q 722 110 776 161 q 576 23 668 60 q 365 -14 483 -14 m 519 453 l 519 454 q 524 493 524 478 q 482 542 524 542 q 408 454 426 542 l 408 453 l 519 453 m 263 826 q 242 835 249 826 q 238 858 235 844 l 274 1031 q 288 1053 276 1044 q 313 1063 299 1063 l 485 1063 q 506 1053 499 1063 q 510 1031 513 1044 l 474 858 q 460 835 471 844 q 435 826 449 826 l 263 826 m 594 826 q 574 835 581 826 q 569 858 567 844 l 606 1031 q 619 1053 608 1044 q 644 1063 631 1063 l 817 1063 q 838 1053 831 1063 q 842 1031 844 1044 l 806 858 q 792 835 803 844 q 767 826 781 826 l 594 826 z "},"ė":{"ha":863,"x_min":35,"x_max":850,"o":"m 365 -14 q 121 51 207 -14 q 35 251 35 117 q 47 360 35 301 l 50 369 q 216 641 90 546 q 524 736 342 736 q 769 658 688 736 q 850 454 850 581 q 839 358 850 411 l 831 317 q 813 290 826 301 q 785 279 800 279 l 371 279 l 369 272 q 364 232 364 251 q 406 188 364 188 q 425 193 415 188 q 441 204 435 199 q 451 213 447 210 q 475 228 465 225 q 501 232 485 232 l 764 232 q 785 224 778 232 q 788 201 792 215 q 722 110 776 161 q 576 23 668 60 q 365 -14 483 -14 m 519 453 l 519 454 q 524 493 524 478 q 482 542 524 542 q 408 454 426 542 l 408 453 l 519 453 m 417 826 q 396 835 403 826 q 392 858 389 844 l 431 1040 q 444 1063 432 1054 q 469 1072 456 1072 l 651 1072 q 672 1063 665 1072 q 676 1040 679 1054 l 638 858 q 624 835 635 844 q 599 826 613 826 l 417 826 z "},"è":{"ha":863,"x_min":35,"x_max":850,"o":"m 365 -14 q 121 51 207 -14 q 35 251 35 117 q 47 360 35 301 l 50 369 q 216 641 90 546 q 524 736 342 736 q 769 658 688 736 q 850 454 850 581 q 839 358 850 411 l 831 317 q 813 290 826 301 q 785 279 800 279 l 371 279 l 369 272 q 364 232 364 251 q 406 188 364 188 q 425 193 415 188 q 441 204 435 199 q 451 213 447 210 q 475 228 465 225 q 501 232 485 232 l 764 232 q 785 224 778 232 q 788 201 792 215 q 722 110 776 161 q 576 23 668 60 q 365 -14 483 -14 m 519 453 l 519 454 q 524 493 524 478 q 482 542 524 542 q 408 454 426 542 l 408 453 l 519 453 m 428 826 q 398 832 408 826 q 375 850 388 838 l 206 1018 q 203 1029 203 1024 q 212 1053 203 1043 q 235 1063 221 1063 l 507 1063 q 533 1058 524 1063 q 553 1036 542 1053 l 656 867 q 658 854 658 861 q 651 834 658 842 q 632 826 643 826 l 428 826 z "},"ē":{"ha":863,"x_min":35,"x_max":850,"o":"m 365 -14 q 121 51 207 -14 q 35 251 35 117 q 47 360 35 301 l 50 369 q 216 641 90 546 q 524 736 342 736 q 769 658 688 736 q 850 454 850 581 q 839 358 850 411 l 831 317 q 813 290 826 301 q 785 279 800 279 l 371 279 l 369 272 q 364 232 364 251 q 406 188 364 188 q 425 193 415 188 q 441 204 435 199 q 451 213 447 210 q 475 228 465 225 q 501 232 485 232 l 764 232 q 785 224 778 232 q 788 201 792 215 q 722 110 776 161 q 576 23 668 60 q 365 -14 483 -14 m 519 453 l 519 454 q 524 493 524 478 q 482 542 524 542 q 408 454 426 542 l 408 453 l 519 453 m 281 826 q 260 835 267 826 q 256 858 253 844 l 286 1003 q 300 1026 289 1017 q 325 1035 311 1035 l 779 1035 q 800 1026 793 1035 q 804 1003 807 1017 l 774 858 q 760 835 771 844 q 735 826 749 826 l 281 826 z "},"ę":{"ha":865,"x_min":35,"x_max":850,"o":"m 378 -306 q 231 -260 278 -306 q 183 -135 183 -214 q 190 -68 183 -97 q 214 4 200 -25 q 35 250 35 58 q 47 360 35 300 q 49 367 49 363 q 215 640 89 544 q 524 736 342 736 q 769 658 688 736 q 850 454 850 581 q 839 358 850 411 l 831 317 q 813 290 826 301 q 785 279 800 279 l 371 279 l 369 272 q 364 232 364 251 q 406 188 364 188 q 425 193 415 188 q 441 204 435 199 q 451 213 447 210 q 475 228 465 225 q 501 232 485 232 l 764 232 q 785 224 778 232 q 788 201 792 215 q 735 123 778 167 q 622 42 693 79 q 458 -7 550 6 q 365 -68 375 -21 q 363 -86 363 -79 q 376 -122 363 -107 q 419 -136 390 -136 l 433 -136 q 458 -147 449 -136 q 464 -174 467 -158 l 443 -268 q 426 -294 440 -283 q 397 -306 413 -306 l 378 -306 m 519 453 l 519 454 q 524 493 524 478 q 482 542 524 542 q 408 454 426 542 l 408 453 l 519 453 z "},"f":{"ha":682,"x_min":40,"x_max":808,"o":"m 106 0 q 81 11 90 0 q 75 38 72 22 l 169 479 l 74 479 q 49 490 58 479 q 44 517 40 501 l 79 685 q 96 711 82 700 q 125 722 110 722 l 221 722 l 226 746 q 358 967 261 907 q 619 1028 454 1028 l 776 1028 q 800 1017 792 1028 q 806 990 808 1006 l 769 822 q 753 796 767 807 q 725 785 740 785 l 613 785 q 543 739 551 785 l 539 722 l 697 722 q 721 711 713 722 q 726 685 729 700 l 692 517 q 674 490 688 501 q 646 479 661 479 l 488 479 l 393 38 q 377 11 390 22 q 349 0 364 0 l 106 0 z "},"g":{"ha":924,"x_min":-49,"x_max":921,"o":"m 331 -306 q 108 -260 194 -306 q -13 -154 22 -214 q -43 -57 -49 -94 q -27 -31 -42 -42 q 3 -19 -12 -19 l 274 -19 q 296 -26 289 -19 q 306 -47 303 -33 q 323 -74 313 -67 q 357 -82 333 -82 q 435 0 417 -82 l 454 92 q 369 47 413 61 q 269 32 326 32 q 85 86 150 32 q 21 260 21 140 q 28 346 21 294 q 43 417 38 394 q 173 658 86 579 q 392 736 260 736 q 512 710 458 736 q 590 642 565 685 l 600 685 q 617 711 603 700 q 646 722 631 722 l 889 722 q 913 711 904 722 q 918 685 921 700 l 779 24 q 331 -306 708 -306 m 422 274 q 476 291 457 274 q 507 343 496 308 q 516 381 511 358 q 522 418 521 403 q 524 436 524 425 q 510 475 524 463 q 468 488 497 488 q 413 467 432 488 q 382 407 393 447 q 371 354 374 378 q 368 326 368 335 q 381 287 368 300 q 422 274 393 274 z "},"ğ":{"ha":924,"x_min":-43,"x_max":919,"o":"m 331 -306 q 108 -260 194 -306 q -13 -154 22 -214 q -43 -57 -49 -94 q -27 -31 -42 -42 q 3 -19 -12 -19 l 274 -19 q 296 -26 289 -19 q 306 -47 303 -33 q 323 -74 313 -67 q 357 -82 333 -82 q 435 0 417 -82 l 454 92 q 369 47 413 61 q 269 32 326 32 q 85 86 150 32 q 21 260 21 140 q 28 346 21 294 q 43 417 38 394 q 173 658 86 579 q 392 736 260 736 q 512 710 458 736 q 590 642 565 685 l 600 685 q 617 711 603 700 q 646 722 631 722 l 889 722 q 913 711 904 722 q 918 685 921 700 l 779 24 q 331 -306 708 -306 m 422 274 q 476 291 457 274 q 507 343 496 308 q 516 381 511 358 q 522 418 521 403 q 524 436 524 425 q 510 475 524 463 q 468 488 497 488 q 413 467 432 488 q 382 407 393 447 q 371 354 374 378 q 368 326 368 335 q 381 287 368 300 q 422 274 393 274 m 539 819 q 387 869 446 819 q 328 994 328 918 q 332 1036 328 1015 q 343 1055 335 1047 q 364 1063 351 1063 l 494 1063 q 513 1055 507 1063 q 515 1036 518 1047 q 513 1007 513 1017 q 554 960 513 960 q 601 981 583 960 q 626 1036 619 1001 q 638 1055 629 1047 q 658 1063 646 1063 l 789 1063 q 807 1055 801 1063 q 810 1036 813 1047 q 723 877 789 935 q 539 819 657 819 z "},"ĝ":{"ha":924,"x_min":-43,"x_max":919,"o":"m 331 -306 q 108 -260 194 -306 q -13 -154 22 -214 q -43 -57 -49 -94 q -27 -31 -42 -42 q 3 -19 -12 -19 l 274 -19 q 296 -26 289 -19 q 306 -47 303 -33 q 323 -74 313 -67 q 357 -82 333 -82 q 435 0 417 -82 l 454 92 q 369 47 413 61 q 269 32 326 32 q 85 86 150 32 q 21 260 21 140 q 28 346 21 294 q 43 417 38 394 q 173 658 86 579 q 392 736 260 736 q 512 710 458 736 q 590 642 565 685 l 600 685 q 617 711 603 700 q 646 722 631 722 l 889 722 q 913 711 904 722 q 918 685 921 700 l 779 24 q 331 -306 708 -306 m 422 274 q 476 291 457 274 q 507 343 496 308 q 516 381 511 358 q 522 418 521 403 q 524 436 524 425 q 510 475 524 463 q 468 488 497 488 q 413 467 432 488 q 382 407 393 447 q 371 354 374 378 q 368 326 368 335 q 381 287 368 300 q 422 274 393 274 m 249 826 q 231 843 231 826 q 242 867 231 858 l 433 1036 q 463 1057 450 1051 q 490 1063 475 1063 l 657 1063 q 682 1057 672 1063 q 703 1036 692 1051 l 822 867 q 825 854 825 861 q 817 834 825 842 q 799 826 810 826 l 718 826 q 664 836 682 826 l 549 894 l 408 836 q 351 826 388 826 l 249 826 z "},"ģ":{"ha":924,"x_min":-49,"x_max":921,"o":"m 850 1104 q 869 1095 863 1104 q 874 1074 876 1086 l 804 881 q 777 842 796 858 q 732 826 758 826 l 538 826 q 518 835 525 826 q 514 857 511 844 q 515 861 515 858 q 518 867 515 864 l 635 1060 q 704 1104 663 1104 l 850 1104 m 331 -306 q 108 -260 194 -306 q -13 -154 22 -214 q -43 -57 -49 -94 q -27 -31 -42 -42 q 3 -19 -12 -19 l 274 -19 q 296 -26 289 -19 q 306 -47 303 -33 q 323 -74 313 -67 q 357 -82 333 -82 q 435 0 417 -82 l 454 92 q 369 47 413 61 q 269 32 326 32 q 85 86 150 32 q 21 260 21 140 q 28 346 21 294 q 43 417 38 394 q 173 658 86 579 q 392 736 260 736 q 512 710 458 736 q 590 642 565 685 l 600 685 q 617 711 603 700 q 646 722 631 722 l 889 722 q 913 711 904 722 q 918 685 921 700 l 779 24 q 331 -306 708 -306 m 422 274 q 476 291 457 274 q 507 343 496 308 q 516 381 511 358 q 522 418 521 403 q 524 436 524 425 q 510 475 524 463 q 468 488 497 488 q 413 467 432 488 q 382 407 393 447 q 371 354 374 378 q 368 326 368 335 q 381 287 368 300 q 422 274 393 274 z "},"ġ":{"ha":924,"x_min":-43,"x_max":919,"o":"m 331 -306 q 108 -260 194 -306 q -13 -154 22 -214 q -43 -57 -49 -94 q -27 -31 -42 -42 q 3 -19 -12 -19 l 274 -19 q 296 -26 289 -19 q 306 -47 303 -33 q 323 -74 313 -67 q 357 -82 333 -82 q 435 0 417 -82 l 454 92 q 369 47 413 61 q 269 32 326 32 q 85 86 150 32 q 21 260 21 140 q 28 346 21 294 q 43 417 38 394 q 173 658 86 579 q 392 736 260 736 q 512 710 458 736 q 590 642 565 685 l 600 685 q 617 711 603 700 q 646 722 631 722 l 889 722 q 913 711 904 722 q 918 685 921 700 l 779 24 q 331 -306 708 -306 m 422 274 q 476 291 457 274 q 507 343 496 308 q 516 381 511 358 q 522 418 521 403 q 524 436 524 425 q 510 475 524 463 q 468 488 497 488 q 413 467 432 488 q 382 407 393 447 q 371 354 374 378 q 368 326 368 335 q 381 287 368 300 q 422 274 393 274 m 436 826 q 415 835 422 826 q 411 858 408 844 l 450 1040 q 463 1063 451 1054 q 489 1072 475 1072 l 671 1072 q 692 1063 685 1072 q 696 1040 699 1054 l 657 858 q 643 835 654 844 q 618 826 632 826 l 436 826 z "},"h":{"ha":951,"x_min":-19,"x_max":908,"o":"m 14 0 q -10 11 -1 0 q -17 38 -19 22 l 178 949 q 194 975 181 964 q 222 986 207 986 l 493 986 q 517 975 508 986 q 524 949 526 964 l 460 650 q 675 736 557 736 q 844 680 779 736 q 908 513 908 624 q 899 421 908 468 l 817 38 q 801 11 814 22 q 772 0 788 0 l 500 0 q 476 11 485 0 q 469 38 467 22 l 549 411 q 551 436 551 431 q 496 488 551 488 q 440 468 463 488 q 408 411 417 449 l 329 38 q 313 11 326 22 q 285 0 300 0 l 14 0 z "},"ħ":{"ha":951,"x_min":-19,"x_max":908,"o":"m 14 0 q -10 11 -1 0 q -17 38 -19 22 l 135 747 l 99 747 q 74 758 83 747 q 69 785 65 769 l 83 856 q 101 882 88 871 q 129 893 114 893 l 165 893 l 178 949 q 194 975 181 964 q 222 986 207 986 l 493 986 q 517 975 508 986 q 524 949 526 964 l 511 893 l 544 893 q 569 882 560 893 q 574 856 578 871 l 560 785 q 542 758 556 769 q 514 747 529 747 l 481 747 l 460 650 q 565 713 506 690 q 689 736 625 736 q 847 679 785 736 q 908 513 908 622 q 899 421 908 468 l 817 39 q 801 13 814 24 q 772 1 788 1 l 500 1 q 476 13 485 1 q 469 39 467 24 l 549 411 q 551 436 551 431 q 496 488 551 488 q 440 468 463 488 q 408 411 417 449 l 329 38 q 313 11 326 22 q 285 0 300 0 l 14 0 z "},"ĥ":{"ha":951,"x_min":-18,"x_max":908,"o":"m 14 0 q -10 11 -1 0 q -17 38 -19 22 l 178 949 q 194 975 181 964 q 222 986 207 986 l 493 986 q 517 975 508 986 q 524 949 526 964 l 460 650 q 675 736 557 736 q 844 680 779 736 q 908 513 908 624 q 899 421 908 468 l 817 38 q 801 11 814 22 q 772 0 788 0 l 500 0 q 476 11 485 0 q 469 38 467 22 l 549 411 q 551 436 551 431 q 496 488 551 488 q 440 468 463 488 q 408 411 417 449 l 329 38 q 313 11 326 22 q 285 0 300 0 l 14 0 m 293 1042 q 275 1058 275 1042 q 286 1082 275 1074 l 478 1251 q 507 1272 494 1267 q 535 1278 519 1278 l 701 1278 q 726 1272 717 1278 q 747 1251 736 1267 l 867 1082 q 869 1069 869 1076 q 862 1049 869 1057 q 843 1042 854 1042 l 763 1042 q 708 1051 726 1042 l 593 1110 l 453 1051 q 396 1042 432 1042 l 293 1042 z "},"i":{"ha":449,"x_min":-19,"x_max":508,"o":"m 190 799 q 166 810 175 799 q 160 836 157 821 l 196 1004 q 213 1031 199 1019 q 242 1042 226 1042 l 476 1042 q 500 1031 492 1042 q 506 1004 508 1019 l 469 836 q 453 810 467 821 q 425 799 440 799 l 190 799 m 14 0 q -10 11 -1 0 q -17 38 -19 22 l 121 685 q 138 711 124 700 q 167 722 151 722 l 415 722 q 439 711 431 722 q 444 685 447 700 l 307 38 q 291 11 304 22 q 263 0 278 0 l 14 0 z "},"ı":{"ha":449,"x_min":-19,"x_max":447,"o":"m 14 0 q -10 11 -1 0 q -17 38 -19 22 l 121 685 q 138 711 124 700 q 167 722 151 722 l 415 722 q 439 711 431 722 q 444 685 447 700 l 307 38 q 291 11 304 22 q 263 0 278 0 l 14 0 z "},"í":{"ha":449,"x_min":-18,"x_max":704,"o":"m 14 0 q -10 11 -1 0 q -17 38 -19 22 l 121 685 q 138 711 124 700 q 167 722 151 722 l 415 722 q 439 711 431 722 q 444 685 447 700 l 307 38 q 291 11 304 22 q 263 0 278 0 l 14 0 m 200 826 q 182 843 182 826 q 193 867 182 858 l 368 1036 q 398 1058 388 1053 q 425 1063 408 1063 l 683 1063 q 701 1055 696 1063 q 704 1035 707 1047 q 693 1018 703 1025 l 454 850 q 424 832 438 838 q 390 826 410 826 l 200 826 z "},"ĭ":{"ha":449,"x_min":-18,"x_max":596,"o":"m 14 0 q -10 11 -1 0 q -17 38 -19 22 l 121 685 q 138 711 124 700 q 167 722 151 722 l 415 722 q 439 711 431 722 q 444 685 447 700 l 307 38 q 291 11 304 22 q 263 0 278 0 l 14 0 m 325 819 q 173 869 232 819 q 114 994 114 918 q 118 1036 114 1015 q 129 1055 121 1047 q 150 1063 138 1063 l 281 1063 q 299 1055 293 1063 q 301 1036 304 1047 q 299 1007 299 1017 q 340 960 299 960 q 388 981 369 960 q 413 1036 406 1001 q 424 1055 415 1047 q 444 1063 432 1063 l 575 1063 q 593 1055 588 1063 q 596 1036 599 1047 q 509 877 575 935 q 325 819 443 819 z "},"î":{"ha":449,"x_min":-18,"x_max":604,"o":"m 14 0 q -10 11 -1 0 q -17 38 -19 22 l 121 685 q 138 711 124 700 q 167 722 151 722 l 415 722 q 439 711 431 722 q 444 685 447 700 l 307 38 q 291 11 304 22 q 263 0 278 0 l 14 0 m 28 826 q 10 843 10 826 q 21 867 10 858 l 213 1036 q 242 1057 229 1051 q 269 1063 254 1063 l 436 1063 q 461 1057 451 1063 q 482 1036 471 1051 l 601 867 q 604 854 604 861 q 597 834 604 842 q 578 826 589 826 l 497 826 q 443 836 461 826 l 328 894 l 188 836 q 131 826 167 826 l 28 826 z "},"ï":{"ha":449,"x_min":-18,"x_max":642,"o":"m 14 0 q -10 11 -1 0 q -17 38 -19 22 l 121 685 q 138 711 124 700 q 167 722 151 722 l 415 722 q 439 711 431 722 q 444 685 447 700 l 307 38 q 291 11 304 22 q 263 0 278 0 l 14 0 m 61 826 q 40 835 47 826 q 36 858 33 844 l 72 1031 q 86 1053 75 1044 q 111 1063 97 1063 l 283 1063 q 304 1053 297 1063 q 308 1031 311 1044 l 272 858 q 258 835 269 844 q 233 826 247 826 l 61 826 m 393 826 q 372 835 379 826 q 368 858 365 844 l 404 1031 q 418 1053 407 1044 q 443 1063 429 1063 l 615 1063 q 636 1053 629 1063 q 640 1031 643 1044 l 604 858 q 590 835 601 844 q 565 826 579 826 l 393 826 z "},"ì":{"ha":449,"x_min":-18,"x_max":468,"o":"m 14 0 q -10 11 -1 0 q -17 38 -19 22 l 121 685 q 138 711 124 700 q 167 722 151 722 l 415 722 q 439 711 431 722 q 444 685 447 700 l 307 38 q 291 11 304 22 q 263 0 278 0 l 14 0 m 238 826 q 208 832 218 826 q 185 850 197 838 l 15 1018 q 13 1029 13 1024 q 22 1053 13 1043 q 44 1063 31 1063 l 317 1063 q 342 1058 333 1063 q 363 1036 351 1053 l 465 867 q 468 854 468 861 q 460 834 468 842 q 442 826 453 826 l 238 826 z "},"ĳ":{"ha":928,"x_min":-18,"x_max":985,"o":"m 190 799 q 166 810 175 799 q 160 836 157 821 l 196 1004 q 213 1031 199 1019 q 242 1042 226 1042 l 476 1042 q 500 1031 492 1042 q 506 1004 508 1019 l 469 836 q 453 810 467 821 q 425 799 440 799 l 190 799 m 14 0 q -10 11 -1 0 q -17 38 -19 22 l 121 685 q 138 711 124 700 q 167 722 151 722 l 415 722 q 439 711 431 722 q 444 685 447 700 l 307 38 q 291 11 304 22 q 263 0 278 0 l 14 0 m 656 799 q 631 810 640 799 q 625 836 622 821 l 661 1004 q 678 1031 664 1019 q 707 1042 692 1042 l 954 1042 q 978 1031 969 1042 q 983 1004 986 1019 l 947 836 q 931 810 944 821 q 903 799 918 799 l 656 799 m 246 -264 q 222 -253 231 -264 q 217 -226 214 -242 l 253 -58 q 269 -32 256 -43 q 297 -21 282 -21 l 376 -21 q 451 49 436 -21 l 586 685 q 603 711 589 700 q 632 722 617 722 l 893 722 q 917 711 908 722 q 922 685 925 700 l 786 40 q 649 -188 753 -112 q 381 -264 546 -264 l 246 -264 z "},"ī":{"ha":449,"x_min":-18,"x_max":610,"o":"m 14 0 q -10 11 -1 0 q -17 38 -19 22 l 121 685 q 138 711 124 700 q 167 722 151 722 l 415 722 q 439 711 431 722 q 444 685 447 700 l 307 38 q 291 11 304 22 q 263 0 278 0 l 14 0 m 85 826 q 64 835 71 826 q 60 858 57 844 l 90 1003 q 104 1026 93 1017 q 129 1035 115 1035 l 583 1035 q 604 1026 597 1035 q 608 1003 611 1017 l 578 858 q 564 835 575 844 q 539 826 553 826 l 85 826 z "},"į":{"ha":449,"x_min":0,"x_max":528,"o":"m 208 799 q 185 810 193 799 q 179 836 176 821 l 215 1004 q 232 1031 218 1019 q 261 1042 246 1042 l 496 1042 q 519 1031 511 1042 q 525 1004 528 1019 l 489 836 q 472 810 486 821 q 443 799 458 799 l 208 799 m 204 -267 q 65 -224 111 -267 q 19 -111 19 -182 q 25 -56 19 -82 q 42 0 32 -24 l 32 0 q 8 11 17 0 q 3 38 0 22 l 140 685 q 157 711 143 700 q 186 722 171 722 l 435 722 q 458 711 450 722 q 464 685 467 700 l 326 38 q 310 11 324 22 q 281 0 296 0 l 267 0 q 186 -56 197 0 q 185 -71 185 -61 q 243 -111 185 -111 l 257 -111 q 281 -122 272 -111 q 286 -149 290 -133 l 269 -229 q 253 -256 267 -244 q 224 -267 239 -267 l 204 -267 z "},"ĩ":{"ha":449,"x_min":-18,"x_max":639,"o":"m 14 0 q -10 11 -1 0 q -17 38 -19 22 l 121 685 q 138 711 124 700 q 167 722 151 722 l 415 722 q 439 711 431 722 q 444 685 447 700 l 307 38 q 291 11 304 22 q 263 0 278 0 l 14 0 m 418 819 q 365 827 388 819 q 317 849 343 835 q 281 865 296 860 q 251 869 267 869 q 226 863 236 869 q 204 846 215 857 q 189 831 196 836 q 172 826 182 826 l 56 826 q 39 834 44 826 q 35 851 33 842 q 103 999 51 928 q 256 1069 156 1069 q 309 1062 286 1069 q 358 1040 332 1054 q 394 1024 381 1029 q 424 1019 408 1019 q 449 1026 439 1019 q 469 1043 458 1032 q 484 1056 476 1050 q 501 1063 492 1063 l 618 1063 q 636 1055 631 1063 q 639 1036 642 1047 q 569 890 622 961 q 418 819 517 819 z "},"j":{"ha":479,"x_min":-235,"x_max":538,"o":"m 207 799 q 183 810 192 799 q 176 836 174 821 l 213 1004 q 229 1031 215 1019 q 258 1042 243 1042 l 506 1042 q 529 1031 521 1042 q 535 1004 538 1019 l 499 836 q 483 810 496 821 q 454 799 469 799 l 207 799 m -203 -264 q -226 -253 -218 -264 q -232 -226 -235 -242 l -196 -58 q -180 -32 -193 -43 q -151 -21 -167 -21 l -72 -21 q 3 49 -12 -21 l 138 685 q 154 711 140 700 q 183 722 168 722 l 444 722 q 468 711 460 722 q 474 685 476 700 l 338 40 q 201 -188 304 -112 q -68 -264 97 -264 l -203 -264 z "},"ȷ":{"ha":668,"x_min":-107,"x_max":667,"o":"m -76 -264 q -99 -253 -92 -264 q -104 -226 -107 -242 l -60 -10 q -43 17 -57 6 q -14 28 -29 28 l 126 28 q 200 97 186 28 l 279 468 l 83 468 q 60 479 68 468 q 54 506 51 490 l 92 685 q 108 711 94 700 q 138 722 122 722 l 635 722 q 658 711 650 722 q 664 685 667 700 l 539 97 q 452 -96 515 -14 q 299 -221 389 -178 q 108 -264 210 -264 l -76 -264 z "},"ĵ":{"ha":668,"x_min":-106,"x_max":707,"o":"m -76 -264 q -99 -253 -92 -264 q -104 -226 -107 -242 l -60 -10 q -43 17 -57 6 q -14 28 -29 28 l 126 28 q 200 97 186 28 l 279 468 l 83 468 q 60 479 68 468 q 54 506 51 490 l 92 685 q 108 711 94 700 q 138 722 122 722 l 635 722 q 658 711 650 722 q 664 685 667 700 l 539 97 q 452 -96 515 -14 q 299 -221 389 -178 q 108 -264 210 -264 l -76 -264 m 131 826 q 113 843 113 826 q 124 867 113 858 l 315 1036 q 344 1057 332 1051 q 372 1063 357 1063 l 539 1063 q 564 1057 554 1063 q 585 1036 574 1051 l 704 867 q 707 854 707 861 q 699 834 707 842 q 681 826 692 826 l 600 826 q 546 836 564 826 l 431 894 l 290 836 q 233 826 269 826 l 131 826 z "},"k":{"ha":903,"x_min":-19,"x_max":933,"o":"m 14 0 q -10 11 -1 0 q -17 38 -19 22 l 178 949 q 194 975 181 964 q 222 986 207 986 l 465 986 q 490 975 481 986 q 496 949 499 964 l 400 499 l 564 699 q 610 722 583 722 l 904 722 q 926 715 918 722 q 933 699 933 708 q 919 668 933 685 l 672 372 l 808 51 q 813 35 813 43 q 801 10 813 21 q 771 0 790 0 l 493 0 q 454 24 464 0 l 351 282 l 301 38 q 285 11 299 22 q 257 0 272 0 l 14 0 z "},"ķ":{"ha":903,"x_min":-18,"x_max":933,"o":"m 14 0 q -10 11 -1 0 q -17 38 -19 22 l 178 949 q 194 975 181 964 q 222 986 207 986 l 465 986 q 490 975 481 986 q 496 949 499 964 l 400 499 l 564 699 q 610 722 583 722 l 904 722 q 926 715 918 722 q 933 699 933 708 q 919 668 933 685 l 672 372 l 808 51 q 813 35 813 43 q 801 10 813 21 q 771 0 790 0 l 493 0 q 454 24 464 0 l 351 282 l 301 38 q 285 11 299 22 q 257 0 272 0 l 14 0 m 17 -347 q -3 -338 4 -347 q -7 -317 -10 -329 l 63 -124 q 90 -85 71 -101 q 135 -69 108 -69 l 329 -69 q 349 -78 342 -69 q 353 -100 356 -87 q 351 -104 351 -101 q 349 -110 351 -107 l 232 -303 q 163 -347 204 -347 l 17 -347 z "},"ĸ":{"ha":893,"x_min":0,"x_max":939,"o":"m 32 0 q 8 11 17 0 q 3 38 0 22 l 140 685 q 157 711 143 700 q 186 722 171 722 l 429 722 q 453 711 444 722 q 458 685 461 700 l 410 457 l 597 699 q 643 722 617 722 l 910 722 q 931 713 924 722 q 936 689 939 703 q 924 668 932 676 l 685 369 l 828 51 q 829 33 832 40 q 815 10 828 19 q 789 0 803 0 l 497 0 q 471 8 479 0 q 460 24 463 17 l 368 260 l 321 38 q 304 11 318 22 q 275 0 290 0 l 32 0 z "},"l":{"ha":450,"x_min":-19,"x_max":504,"o":"m 14 0 q -10 11 -1 0 q -17 38 -19 22 l 178 949 q 194 975 181 964 q 222 986 207 986 l 471 986 q 495 975 486 986 q 501 949 504 964 l 307 38 q 291 11 304 22 q 263 0 278 0 l 14 0 z "},"ĺ":{"ha":450,"x_min":-18,"x_max":767,"o":"m 14 0 q -10 11 -1 0 q -17 38 -19 22 l 178 949 q 194 975 181 964 q 222 986 207 986 l 471 986 q 495 975 486 986 q 501 949 504 964 l 307 38 q 291 11 304 22 q 263 0 278 0 l 14 0 m 263 1042 q 244 1058 244 1042 q 256 1082 244 1074 l 431 1251 q 460 1273 450 1268 q 488 1278 471 1278 l 746 1278 q 764 1270 758 1278 q 767 1250 769 1263 q 756 1233 765 1240 l 517 1065 q 486 1047 500 1053 q 453 1042 472 1042 l 263 1042 z "},"ľ":{"ha":450,"x_min":-108,"x_max":503,"o":"m 14 0 q -10 11 -1 0 q -17 38 -19 22 l 178 949 q 194 975 181 964 q 222 986 207 986 l 471 986 q 495 975 486 986 q 501 949 504 964 l 307 38 q 291 11 304 22 q 263 0 278 0 l 14 0 m -83 -347 q -103 -338 -96 -347 q -107 -317 -110 -329 l -37 -124 q -10 -85 -29 -101 q 35 -69 8 -69 l 229 -69 q 249 -78 242 -69 q 253 -100 256 -87 q 251 -104 251 -101 q 249 -110 251 -107 l 132 -303 q 63 -347 104 -347 l -83 -347 z "},"ļ":{"ha":450,"x_min":-108,"x_max":503,"o":"m 14 0 q -10 11 -1 0 q -17 38 -19 22 l 178 949 q 194 975 181 964 q 222 986 207 986 l 471 986 q 495 975 486 986 q 501 949 504 964 l 307 38 q 291 11 304 22 q 263 0 278 0 l 14 0 m -83 -347 q -103 -338 -96 -347 q -107 -317 -110 -329 l -37 -124 q -10 -85 -29 -101 q 35 -69 8 -69 l 229 -69 q 249 -78 242 -69 q 253 -100 256 -87 q 251 -104 251 -101 q 249 -110 251 -107 l 132 -303 q 63 -347 104 -347 l -83 -347 z "},"ŀ":{"ha":711,"x_min":-19,"x_max":743,"o":"m 14 0 q -10 11 -1 0 q -17 38 -19 22 l 178 949 q 194 975 181 964 q 222 986 207 986 l 471 986 q 495 975 486 986 q 501 949 504 964 l 307 38 q 291 11 304 22 q 263 0 278 0 l 14 0 m 481 378 q 460 387 467 378 q 456 410 453 396 l 494 592 q 508 615 497 606 q 533 624 519 624 l 715 624 q 736 615 729 624 q 740 592 743 606 l 701 410 q 688 387 699 396 q 663 378 676 378 l 481 378 z "},"ł":{"ha":556,"x_min":32,"x_max":599,"o":"m 86 0 q 63 11 71 0 q 57 38 54 22 l 117 318 l 75 303 l 58 299 q 39 307 46 299 q 35 328 32 315 l 67 478 q 80 506 71 496 q 107 524 89 517 l 164 543 l 250 949 q 267 975 254 964 q 296 986 281 986 l 544 986 q 569 975 560 986 q 574 949 578 964 l 515 669 l 557 685 q 574 689 567 689 q 592 681 586 689 q 596 660 599 672 l 564 510 q 551 481 560 492 q 524 464 542 471 l 467 443 l 381 38 q 364 11 378 22 q 335 0 350 0 l 86 0 z "},"m":{"ha":1303,"x_min":-19,"x_max":1263,"o":"m 14 0 q -10 11 -1 0 q -17 38 -19 22 l 121 685 q 138 711 124 700 q 167 722 151 722 l 396 722 q 419 711 411 722 q 425 685 428 700 l 415 639 q 507 710 460 683 q 629 736 554 736 q 825 622 781 736 q 926 706 874 676 q 1047 736 979 736 q 1205 685 1147 736 q 1263 528 1263 633 q 1251 426 1263 476 l 1168 38 q 1152 11 1165 22 q 1124 0 1139 0 l 879 0 q 855 11 864 0 q 849 38 846 22 l 931 419 q 933 442 933 436 q 889 488 933 488 q 844 470 863 488 q 821 419 826 453 l 739 38 q 723 11 736 22 q 694 0 710 0 l 450 0 q 426 11 435 0 q 419 38 417 22 l 501 419 q 504 442 504 436 q 460 488 504 488 q 415 469 433 488 q 390 419 396 451 l 308 38 q 292 11 306 22 q 264 0 279 0 l 14 0 z "},"n":{"ha":936,"x_min":-19,"x_max":894,"o":"m 14 0 q -10 11 -1 0 q -17 38 -19 22 l 121 685 q 138 711 124 700 q 167 722 151 722 l 410 722 q 433 711 425 722 q 439 685 442 700 l 429 639 q 537 710 476 683 q 667 736 597 736 q 832 681 769 736 q 894 515 894 625 q 883 421 894 476 l 801 38 q 785 11 799 22 q 757 0 772 0 l 492 0 q 467 11 476 0 q 461 38 458 22 l 540 411 q 543 436 543 431 q 488 488 543 488 q 432 468 454 488 q 401 411 410 449 l 322 38 q 306 11 319 22 q 278 0 293 0 l 14 0 z "},"ń":{"ha":936,"x_min":-18,"x_max":938,"o":"m 14 0 q -10 11 -1 0 q -17 38 -19 22 l 121 685 q 138 711 124 700 q 167 722 151 722 l 410 722 q 433 711 425 722 q 439 685 442 700 l 429 639 q 537 710 476 683 q 667 736 597 736 q 832 681 769 736 q 894 515 894 625 q 883 421 894 476 l 801 38 q 785 11 799 22 q 757 0 772 0 l 492 0 q 467 11 476 0 q 461 38 458 22 l 540 411 q 543 436 543 431 q 488 488 543 488 q 432 468 454 488 q 401 411 410 449 l 322 38 q 306 11 319 22 q 278 0 293 0 l 14 0 m 433 826 q 415 843 415 826 q 426 867 415 858 l 601 1036 q 631 1058 621 1053 q 658 1063 642 1063 l 917 1063 q 935 1055 929 1063 q 938 1035 940 1047 q 926 1018 936 1025 l 688 850 q 657 832 671 838 q 624 826 643 826 l 433 826 z "},"ŉ":{"ha":936,"x_min":-18,"x_max":894,"o":"m 14 0 q -10 11 -1 0 q -17 38 -19 22 l 121 685 q 138 711 124 700 q 167 722 151 722 l 410 722 q 433 711 425 722 q 439 685 442 700 l 429 639 q 537 710 476 683 q 667 736 597 736 q 832 681 769 736 q 894 515 894 625 q 883 421 894 476 l 801 38 q 785 11 799 22 q 757 0 772 0 l 492 0 q 467 11 476 0 q 461 38 458 22 l 540 411 q 543 436 543 431 q 488 488 543 488 q 432 468 454 488 q 401 411 410 449 l 322 38 q 306 11 319 22 q 278 0 293 0 l 14 0 m 125 826 q 106 835 113 826 q 101 857 99 844 l 171 1050 q 198 1088 179 1072 q 243 1104 217 1104 l 438 1104 q 457 1095 450 1104 q 461 1074 464 1086 q 460 1069 460 1072 q 457 1064 460 1067 l 340 871 q 271 826 313 826 l 125 826 z "},"ň":{"ha":936,"x_min":-18,"x_max":894,"o":"m 14 0 q -10 11 -1 0 q -17 38 -19 22 l 121 685 q 138 711 124 700 q 167 722 151 722 l 410 722 q 433 711 425 722 q 439 685 442 700 l 429 639 q 537 710 476 683 q 667 736 597 736 q 832 681 769 736 q 894 515 894 625 q 883 421 894 476 l 801 38 q 785 11 799 22 q 757 0 772 0 l 492 0 q 467 11 476 0 q 461 38 458 22 l 540 411 q 543 436 543 431 q 488 488 543 488 q 432 468 454 488 q 401 411 410 449 l 322 38 q 306 11 319 22 q 278 0 293 0 l 14 0 m 461 826 q 436 832 446 826 q 415 853 426 838 l 296 1022 q 293 1035 293 1028 q 301 1055 293 1047 q 319 1063 308 1063 l 400 1063 q 454 1053 436 1063 l 569 994 l 710 1053 q 767 1063 731 1063 l 869 1063 q 888 1046 888 1063 q 876 1022 888 1031 l 685 853 q 656 832 668 838 q 628 826 643 826 l 461 826 z "},"ņ":{"ha":936,"x_min":-18,"x_max":894,"o":"m 14 0 q -10 11 -1 0 q -17 38 -19 22 l 121 685 q 138 711 124 700 q 167 722 151 722 l 410 722 q 433 711 425 722 q 439 685 442 700 l 429 639 q 537 710 476 683 q 667 736 597 736 q 832 681 769 736 q 894 515 894 625 q 883 421 894 476 l 801 38 q 785 11 799 22 q 757 0 772 0 l 492 0 q 467 11 476 0 q 461 38 458 22 l 540 411 q 543 436 543 431 q 488 488 543 488 q 432 468 454 488 q 401 411 410 449 l 322 38 q 306 11 319 22 q 278 0 293 0 l 14 0 m 61 -347 q 42 -338 49 -347 q 38 -317 35 -329 l 107 -124 q 134 -85 115 -101 q 179 -69 153 -69 l 374 -69 q 393 -78 386 -69 q 397 -100 400 -87 q 396 -104 396 -101 q 393 -110 396 -107 l 276 -303 q 207 -347 249 -347 l 61 -347 z "},"ŋ":{"ha":936,"x_min":-19,"x_max":894,"o":"m 240 -312 q 216 -301 225 -312 q 210 -275 207 -290 l 254 -68 q 271 -42 257 -53 q 300 -31 285 -31 l 354 -31 q 430 -5 401 -31 q 471 82 458 21 l 540 411 q 543 436 543 431 q 488 488 543 488 q 432 468 454 488 q 401 411 410 449 l 322 38 q 306 11 319 22 q 278 0 293 0 l 14 0 q -10 11 -1 0 q -17 38 -19 22 l 121 685 q 138 711 124 700 q 167 722 151 722 l 410 722 q 433 711 425 722 q 439 685 442 700 l 429 639 q 537 710 476 683 q 667 736 597 736 q 832 681 769 736 q 894 515 894 625 q 883 421 894 476 l 808 67 q 634 -219 767 -126 q 294 -312 501 -312 l 240 -312 z "},"ñ":{"ha":936,"x_min":-18,"x_max":894,"o":"m 14 0 q -10 11 -1 0 q -17 38 -19 22 l 121 685 q 138 711 124 700 q 167 722 151 722 l 410 722 q 433 711 425 722 q 439 685 442 700 l 429 639 q 537 710 476 683 q 667 736 597 736 q 832 681 769 736 q 894 515 894 625 q 883 421 894 476 l 801 38 q 785 11 799 22 q 757 0 772 0 l 492 0 q 467 11 476 0 q 461 38 458 22 l 540 411 q 543 436 543 431 q 488 488 543 488 q 432 468 454 488 q 401 411 410 449 l 322 38 q 306 11 319 22 q 278 0 293 0 l 14 0 m 667 819 q 614 827 636 819 q 565 849 592 835 q 529 865 543 860 q 500 869 515 869 q 474 863 485 869 q 453 846 464 857 q 438 831 444 836 q 421 826 431 826 l 304 826 q 288 834 293 826 q 283 851 282 842 q 352 999 300 928 q 504 1069 404 1069 q 558 1062 535 1069 q 607 1040 581 1054 q 642 1024 628 1029 q 672 1019 657 1019 q 697 1026 688 1019 q 718 1043 707 1032 q 733 1056 725 1050 q 750 1063 740 1063 l 867 1063 q 885 1055 879 1063 q 888 1036 890 1047 q 818 890 871 961 q 667 819 765 819 z "},"o":{"ha":890,"x_min":14,"x_max":856,"o":"m 368 -14 q 107 52 200 -14 q 14 243 14 118 q 18 296 14 269 q 46 426 28 364 q 200 659 89 582 q 500 736 311 736 q 758 669 661 736 q 856 475 856 601 q 851 426 856 451 q 824 296 840 356 q 672 63 779 139 q 368 -14 565 -14 m 401 208 q 454 228 439 208 q 485 303 469 249 q 510 419 504 378 q 515 467 515 456 q 504 502 515 490 q 467 514 493 514 q 415 493 431 514 q 385 419 399 472 q 371 361 378 393 q 360 303 364 329 q 354 251 354 261 q 365 219 354 229 q 401 208 375 208 z "},"ó":{"ha":890,"x_min":14,"x_max":907,"o":"m 368 -14 q 107 52 200 -14 q 14 243 14 118 q 18 296 14 269 q 46 426 28 364 q 200 659 89 582 q 500 736 311 736 q 758 669 661 736 q 856 475 856 601 q 851 426 856 451 q 824 296 840 356 q 672 63 779 139 q 368 -14 565 -14 m 401 208 q 454 228 439 208 q 485 303 469 249 q 510 419 504 378 q 515 467 515 456 q 504 502 515 490 q 467 514 493 514 q 415 493 431 514 q 385 419 399 472 q 371 361 378 393 q 360 303 364 329 q 354 251 354 261 q 365 219 354 229 q 401 208 375 208 m 403 826 q 385 843 385 826 q 396 867 385 858 l 571 1036 q 601 1058 590 1053 q 628 1063 611 1063 l 886 1063 q 904 1055 899 1063 q 907 1035 910 1047 q 896 1018 906 1025 l 657 850 q 626 832 640 838 q 593 826 613 826 l 403 826 z "},"ŏ":{"ha":890,"x_min":14,"x_max":856,"o":"m 368 -14 q 107 52 200 -14 q 14 243 14 118 q 18 296 14 269 q 46 426 28 364 q 200 659 89 582 q 500 736 311 736 q 758 669 661 736 q 856 475 856 601 q 851 426 856 451 q 824 296 840 356 q 672 63 779 139 q 368 -14 565 -14 m 401 208 q 454 228 439 208 q 485 303 469 249 q 510 419 504 378 q 515 467 515 456 q 504 502 515 490 q 467 514 493 514 q 415 493 431 514 q 385 419 399 472 q 371 361 378 393 q 360 303 364 329 q 354 251 354 261 q 365 219 354 229 q 401 208 375 208 m 532 819 q 380 869 439 819 q 321 994 321 918 q 325 1036 321 1015 q 336 1055 328 1047 q 357 1063 344 1063 l 488 1063 q 506 1055 500 1063 q 508 1036 511 1047 q 506 1007 506 1017 q 547 960 506 960 q 594 981 576 960 q 619 1036 613 1001 q 631 1055 622 1047 q 651 1063 639 1063 l 782 1063 q 800 1055 794 1063 q 803 1036 806 1047 q 716 877 782 935 q 532 819 650 819 z "},"ô":{"ha":890,"x_min":14,"x_max":856,"o":"m 368 -14 q 107 52 200 -14 q 14 243 14 118 q 18 296 14 269 q 46 426 28 364 q 200 659 89 582 q 500 736 311 736 q 758 669 661 736 q 856 475 856 601 q 851 426 856 451 q 824 296 840 356 q 672 63 779 139 q 368 -14 565 -14 m 401 208 q 454 228 439 208 q 485 303 469 249 q 510 419 504 378 q 515 467 515 456 q 504 502 515 490 q 467 514 493 514 q 415 493 431 514 q 385 419 399 472 q 371 361 378 393 q 360 303 364 329 q 354 251 354 261 q 365 219 354 229 q 401 208 375 208 m 244 826 q 226 843 226 826 q 238 867 226 858 l 429 1036 q 458 1057 446 1051 q 486 1063 471 1063 l 653 1063 q 678 1057 668 1063 q 699 1036 688 1051 l 818 867 q 821 854 821 861 q 813 834 821 842 q 794 826 806 826 l 714 826 q 660 836 678 826 l 544 894 l 404 836 q 347 826 383 826 l 244 826 z "},"ö":{"ha":890,"x_min":14,"x_max":863,"o":"m 368 -14 q 107 52 200 -14 q 14 243 14 118 q 18 296 14 269 q 46 426 28 364 q 200 659 89 582 q 500 736 311 736 q 758 669 661 736 q 856 475 856 601 q 851 426 856 451 q 824 296 840 356 q 672 63 779 139 q 368 -14 565 -14 m 401 208 q 454 228 439 208 q 485 303 469 249 q 510 419 504 378 q 515 467 515 456 q 504 502 515 490 q 467 514 493 514 q 415 493 431 514 q 385 419 399 472 q 371 361 378 393 q 360 303 364 329 q 354 251 354 261 q 365 219 354 229 q 401 208 375 208 m 282 826 q 261 835 268 826 q 257 858 254 844 l 293 1031 q 307 1053 296 1044 q 332 1063 318 1063 l 504 1063 q 525 1053 518 1063 q 529 1031 532 1044 l 493 858 q 479 835 490 844 q 454 826 468 826 l 282 826 m 614 826 q 593 835 600 826 q 589 858 586 844 l 625 1031 q 639 1053 628 1044 q 664 1063 650 1063 l 836 1063 q 857 1053 850 1063 q 861 1031 864 1044 l 825 858 q 811 835 822 844 q 786 826 800 826 l 614 826 z "},"ò":{"ha":890,"x_min":14,"x_max":856,"o":"m 368 -14 q 107 52 200 -14 q 14 243 14 118 q 18 296 14 269 q 46 426 28 364 q 200 659 89 582 q 500 736 311 736 q 758 669 661 736 q 856 475 856 601 q 851 426 856 451 q 824 296 840 356 q 672 63 779 139 q 368 -14 565 -14 m 401 208 q 454 228 439 208 q 485 303 469 249 q 510 419 504 378 q 515 467 515 456 q 504 502 515 490 q 467 514 493 514 q 415 493 431 514 q 385 419 399 472 q 371 361 378 393 q 360 303 364 329 q 354 251 354 261 q 365 219 354 229 q 401 208 375 208 m 438 826 q 408 832 418 826 q 385 850 397 838 l 215 1018 q 213 1029 213 1024 q 222 1053 213 1043 q 244 1063 231 1063 l 517 1063 q 542 1058 533 1063 q 563 1036 551 1053 l 665 867 q 668 854 668 861 q 660 834 668 842 q 642 826 653 826 l 438 826 z "},"ő":{"ha":890,"x_min":14,"x_max":1008,"o":"m 368 -14 q 107 52 200 -14 q 14 243 14 118 q 18 296 14 269 q 46 426 28 364 q 200 659 89 582 q 500 736 311 736 q 758 669 661 736 q 856 475 856 601 q 851 426 856 451 q 824 296 840 356 q 672 63 779 139 q 368 -14 565 -14 m 401 208 q 454 228 439 208 q 485 303 469 249 q 510 419 504 378 q 515 467 515 456 q 504 502 515 490 q 467 514 493 514 q 415 493 431 514 q 385 419 399 472 q 371 361 378 393 q 360 303 364 329 q 354 251 354 261 q 365 219 354 229 q 401 208 375 208 m 264 826 q 249 833 253 826 q 246 849 244 839 q 258 869 247 854 l 368 1036 q 391 1056 378 1050 q 425 1063 404 1063 l 629 1063 q 648 1056 642 1063 q 651 1036 654 1049 q 639 1018 650 1026 l 444 846 q 393 826 422 826 l 264 826 m 619 826 q 604 833 608 826 q 601 849 600 839 q 614 869 603 854 l 724 1036 q 747 1056 733 1050 q 781 1063 760 1063 l 985 1063 q 1003 1056 997 1063 q 1007 1036 1010 1049 q 994 1018 1006 1026 l 800 846 q 749 826 778 826 l 619 826 z "},"ō":{"ha":890,"x_min":14,"x_max":856,"o":"m 368 -14 q 107 52 200 -14 q 14 243 14 118 q 18 296 14 269 q 46 426 28 364 q 200 659 89 582 q 500 736 311 736 q 758 669 661 736 q 856 475 856 601 q 851 426 856 451 q 824 296 840 356 q 672 63 779 139 q 368 -14 565 -14 m 401 208 q 454 228 439 208 q 485 303 469 249 q 510 419 504 378 q 515 467 515 456 q 504 502 515 490 q 467 514 493 514 q 415 493 431 514 q 385 419 399 472 q 371 361 378 393 q 360 303 364 329 q 354 251 354 261 q 365 219 354 229 q 401 208 375 208 m 293 826 q 272 835 279 826 q 268 858 265 844 l 299 1003 q 313 1026 301 1017 q 338 1035 324 1035 l 792 1035 q 813 1026 806 1035 q 817 1003 819 1017 l 786 858 q 772 835 783 844 q 747 826 761 826 l 293 826 z "},"ø":{"ha":926,"x_min":-28,"x_max":974,"o":"m 394 -14 q 67 143 124 -14 l 14 125 q -1 121 4 121 q -21 129 -14 121 q -25 150 -28 138 l -4 244 q 8 273 -1 263 q 36 290 17 283 l 58 297 q 85 426 67 358 q 250 657 128 578 q 554 736 372 736 q 876 590 813 736 l 932 611 q 947 615 943 615 q 967 607 960 615 q 971 586 974 599 l 950 492 q 938 463 947 474 q 910 446 929 453 l 892 439 q 863 296 885 371 q 394 -14 776 -14 m 553 475 q 541 504 551 494 q 507 514 531 514 q 458 496 474 514 q 428 438 442 478 l 426 429 l 553 475 m 442 208 q 494 228 479 208 q 525 303 510 249 l 525 308 l 394 261 q 403 220 393 232 q 442 208 413 208 z "},"ǿ":{"ha":925,"x_min":-25,"x_max":971,"o":"m 421 826 q 403 843 403 826 q 414 867 403 858 l 589 1036 q 619 1058 608 1053 q 646 1063 629 1063 l 904 1063 q 922 1055 917 1063 q 925 1035 928 1047 q 914 1018 924 1025 l 675 850 q 644 832 658 838 q 611 826 631 826 l 421 826 m 394 -14 q 67 143 124 -14 l 14 125 q -1 121 4 121 q -21 129 -14 121 q -25 150 -28 138 l -4 244 q 8 273 -1 263 q 36 290 17 283 l 58 297 q 85 426 67 358 q 250 657 128 578 q 554 736 372 736 q 876 590 813 736 l 932 611 q 947 615 943 615 q 967 607 960 615 q 971 586 974 599 l 950 492 q 938 463 947 474 q 910 446 929 453 l 892 439 q 863 296 885 371 q 394 -14 776 -14 m 553 475 q 541 504 551 494 q 507 514 531 514 q 458 496 474 514 q 428 438 442 478 l 426 429 l 553 475 m 442 208 q 494 228 479 208 q 525 303 510 249 l 525 308 l 394 261 q 403 220 393 232 q 442 208 413 208 z "},"õ":{"ha":890,"x_min":14,"x_max":861,"o":"m 368 -14 q 107 52 200 -14 q 14 243 14 118 q 18 296 14 269 q 46 426 28 364 q 200 659 89 582 q 500 736 311 736 q 758 669 661 736 q 856 475 856 601 q 851 426 856 451 q 824 296 840 356 q 672 63 779 139 q 368 -14 565 -14 m 401 208 q 454 228 439 208 q 485 303 469 249 q 510 419 504 378 q 515 467 515 456 q 504 502 515 490 q 467 514 493 514 q 415 493 431 514 q 385 419 399 472 q 371 361 378 393 q 360 303 364 329 q 354 251 354 261 q 365 219 354 229 q 401 208 375 208 m 640 819 q 588 827 610 819 q 539 849 565 835 q 503 865 517 860 q 474 869 489 869 q 448 863 458 869 q 426 846 438 857 q 411 831 418 836 q 394 826 404 826 l 278 826 q 261 834 267 826 q 257 851 256 842 q 326 999 274 928 q 478 1069 378 1069 q 531 1062 508 1069 q 581 1040 554 1054 q 616 1024 601 1029 q 646 1019 631 1019 q 671 1026 661 1019 q 692 1043 681 1032 q 706 1056 699 1050 q 724 1063 714 1063 l 840 1063 q 858 1055 853 1063 q 861 1036 864 1047 q 792 890 844 961 q 640 819 739 819 z "},"œ":{"ha":1338,"x_min":33,"x_max":1322,"o":"m 375 -14 q 33 236 33 -14 q 38 296 33 265 q 65 426 49 367 q 231 657 108 578 q 535 736 353 736 q 764 686 679 736 q 996 736 867 736 q 1241 658 1160 736 q 1322 454 1322 581 q 1311 358 1322 411 l 1303 317 q 1285 290 1299 301 q 1257 279 1272 279 l 843 279 l 842 272 q 836 232 836 251 q 878 188 836 188 q 897 193 888 188 q 913 204 907 199 q 924 213 919 210 q 947 228 938 225 q 974 232 957 232 l 1236 232 q 1257 224 1250 232 q 1260 201 1264 215 q 1194 110 1249 161 q 1048 23 1140 60 q 838 -14 956 -14 q 622 31 701 -14 q 375 -14 518 -14 m 992 453 l 992 454 q 996 493 996 478 q 954 542 996 542 q 881 454 899 542 l 881 453 l 992 453 m 422 208 q 475 228 460 208 q 506 303 490 249 q 529 419 521 364 q 535 468 535 458 q 524 503 535 492 q 488 514 514 514 q 435 493 451 514 q 404 419 419 472 q 381 303 389 358 q 375 251 375 261 q 385 219 375 229 q 422 208 396 208 z "},"p":{"ha":918,"x_min":-75,"x_max":883,"o":"m -43 -264 q -67 -253 -58 -264 q -72 -226 -75 -242 l 121 685 q 138 711 124 700 q 167 722 151 722 l 403 722 q 426 711 418 722 q 432 685 435 700 l 424 643 q 517 712 467 688 q 635 736 568 736 q 815 678 747 736 q 883 500 883 621 q 875 415 883 461 q 851 306 865 358 q 720 67 813 147 q 503 -14 628 -14 q 392 6 440 -14 q 322 69 343 26 l 260 -226 q 243 -253 257 -242 q 214 -264 229 -264 l -43 -264 m 426 235 q 481 254 463 235 q 514 315 500 274 q 533 407 529 367 l 535 431 q 523 474 535 460 q 481 488 511 488 q 424 467 444 488 q 394 407 404 447 q 372 304 379 356 q 371 285 371 297 q 426 235 371 235 z "},"þ":{"ha":918,"x_min":-75,"x_max":883,"o":"m -43 -264 q -67 -253 -58 -264 q -72 -226 -75 -242 l 178 949 q 194 975 181 964 q 222 986 207 986 l 479 986 q 503 975 494 986 q 510 949 513 964 l 447 657 q 525 715 482 694 q 635 736 568 736 q 815 678 747 736 q 883 500 883 621 q 875 415 883 461 q 851 306 865 358 q 720 67 813 147 q 503 -14 628 -14 q 392 8 442 -14 q 322 69 343 29 l 260 -226 q 243 -253 257 -242 q 214 -264 229 -264 l -43 -264 m 426 235 q 481 254 463 235 q 514 315 500 274 q 533 407 529 367 l 535 431 q 523 474 535 460 q 481 488 511 488 q 424 467 444 488 q 394 407 404 447 q 372 304 379 356 q 371 285 371 297 q 426 235 371 235 z "},"q":{"ha":918,"x_min":15,"x_max":917,"o":"m 418 -264 q 394 -253 403 -264 q 389 -226 386 -242 l 451 69 q 366 6 411 25 q 263 -14 321 -14 q 84 48 153 -14 q 15 228 15 110 q 22 306 15 260 q 46 415 35 365 q 394 736 128 736 q 517 710 464 736 q 594 643 571 685 l 603 685 q 619 711 606 700 q 649 722 633 722 l 885 722 q 908 711 900 722 q 914 685 917 700 l 721 -226 q 704 -253 718 -242 q 675 -264 690 -264 l 418 -264 m 417 235 q 501 304 482 235 q 524 407 515 356 q 526 433 526 426 q 514 474 526 461 q 471 488 501 488 q 416 468 435 488 q 385 407 397 449 q 365 315 369 356 q 364 289 364 306 q 376 248 364 261 q 417 235 388 235 z "},"r":{"ha":721,"x_min":-19,"x_max":763,"o":"m 14 0 q -10 11 -1 0 q -17 38 -19 22 l 121 685 q 138 711 124 700 q 167 722 151 722 l 410 722 q 433 711 425 722 q 439 685 442 700 l 429 636 q 516 700 468 678 q 636 722 564 722 l 731 722 q 754 711 746 722 q 760 685 763 700 l 714 468 q 697 442 711 453 q 668 431 683 431 l 489 431 q 389 347 406 431 l 322 38 q 306 11 319 22 q 278 0 293 0 l 14 0 z "},"ŕ":{"ha":721,"x_min":-18,"x_max":858,"o":"m 14 0 q -10 11 -1 0 q -17 38 -19 22 l 121 685 q 138 711 124 700 q 167 722 151 722 l 410 722 q 433 711 425 722 q 439 685 442 700 l 429 636 q 516 700 468 678 q 636 722 564 722 l 731 722 q 754 711 746 722 q 760 685 763 700 l 714 468 q 697 442 711 453 q 668 431 683 431 l 489 431 q 389 347 406 431 l 322 38 q 306 11 319 22 q 278 0 293 0 l 14 0 m 354 826 q 336 843 336 826 q 347 867 336 858 l 522 1036 q 552 1058 542 1053 q 579 1063 563 1063 l 838 1063 q 856 1055 850 1063 q 858 1035 861 1047 q 847 1018 857 1025 l 608 850 q 578 832 592 838 q 544 826 564 826 l 354 826 z "},"ř":{"ha":721,"x_min":-18,"x_max":800,"o":"m 14 0 q -10 11 -1 0 q -17 38 -19 22 l 121 685 q 138 711 124 700 q 167 722 151 722 l 410 722 q 433 711 425 722 q 439 685 442 700 l 429 636 q 516 700 468 678 q 636 722 564 722 l 731 722 q 754 711 746 722 q 760 685 763 700 l 714 468 q 697 442 711 453 q 668 431 683 431 l 489 431 q 389 347 406 431 l 322 38 q 306 11 319 22 q 278 0 293 0 l 14 0 m 374 826 q 349 832 358 826 q 328 853 339 838 l 208 1022 q 206 1035 206 1028 q 213 1055 206 1047 q 232 1063 221 1063 l 313 1063 q 367 1053 349 1063 l 482 994 l 622 1053 q 679 1063 643 1063 l 782 1063 q 800 1046 800 1063 q 789 1022 800 1031 l 597 853 q 568 832 581 838 q 540 826 556 826 l 374 826 z "},"ŗ":{"ha":721,"x_min":-215,"x_max":761,"o":"m 14 0 q -10 11 -1 0 q -17 38 -19 22 l 121 685 q 138 711 124 700 q 167 722 151 722 l 410 722 q 433 711 425 722 q 439 685 442 700 l 429 636 q 516 700 468 678 q 636 722 564 722 l 731 722 q 754 711 746 722 q 760 685 763 700 l 714 468 q 697 442 711 453 q 668 431 683 431 l 489 431 q 389 347 406 431 l 322 38 q 306 11 319 22 q 278 0 293 0 l 14 0 m -190 -347 q -210 -338 -203 -347 q -214 -317 -217 -329 l -144 -124 q -117 -85 -136 -101 q -72 -69 -99 -69 l 122 -69 q 142 -78 135 -69 q 146 -100 149 -87 q 144 -104 144 -101 q 142 -110 144 -107 l 25 -303 q -44 -347 -3 -347 l -190 -347 z "},"s":{"ha":819,"x_min":0,"x_max":807,"o":"m 331 -14 q 140 15 214 -14 q 33 87 65 44 q 0 171 0 129 q 1 185 0 181 q 17 211 4 200 q 43 222 29 222 l 285 222 l 290 222 q 316 213 304 221 q 331 203 328 204 q 356 186 344 192 q 382 181 367 181 q 406 186 394 181 q 418 201 417 192 q 415 225 421 215 q 379 244 408 235 q 288 267 350 254 q 136 329 194 285 q 78 451 78 374 q 83 499 78 476 q 149 615 96 560 q 288 703 201 669 q 485 736 375 736 q 659 708 586 736 q 769 636 732 679 q 807 551 807 593 q 806 538 807 542 q 792 511 804 522 q 768 500 781 500 l 549 500 l 535 500 q 512 506 522 500 q 489 521 501 511 q 465 537 475 532 q 442 542 456 542 q 421 535 431 542 q 410 519 411 529 q 414 497 407 506 q 451 478 421 488 q 549 458 482 468 q 721 387 667 440 q 775 264 775 333 q 771 225 775 244 q 632 49 747 113 q 331 -14 517 -14 z "},"ś":{"ha":822,"x_min":0,"x_max":868,"o":"m 331 -14 q 140 15 214 -14 q 33 87 65 44 q 0 171 0 129 q 1 185 0 181 q 17 211 4 200 q 43 222 29 222 l 285 222 l 290 222 q 316 213 304 221 q 331 203 328 204 q 356 186 344 192 q 382 181 367 181 q 406 186 394 181 q 418 201 417 192 q 415 225 421 215 q 379 244 408 235 q 288 267 350 254 q 136 329 194 285 q 78 451 78 374 q 83 499 78 476 q 149 615 96 560 q 288 703 201 669 q 485 736 375 736 q 659 708 586 736 q 769 636 732 679 q 807 551 807 593 q 806 538 807 542 q 792 511 804 522 q 768 500 781 500 l 549 500 l 535 500 q 512 506 522 500 q 489 521 501 511 q 465 537 475 532 q 442 542 456 542 q 421 535 431 542 q 410 519 411 529 q 414 497 407 506 q 451 478 421 488 q 549 458 482 468 q 721 387 667 440 q 775 264 775 333 q 771 225 775 244 q 632 49 747 113 q 331 -14 517 -14 m 364 826 q 346 843 346 826 q 357 867 346 858 l 532 1036 q 562 1058 551 1053 q 589 1063 572 1063 l 847 1063 q 865 1055 860 1063 q 868 1035 871 1047 q 857 1018 867 1025 l 618 850 q 588 832 601 838 q 554 826 574 826 l 364 826 z "},"š":{"ha":822,"x_min":0,"x_max":828,"o":"m 331 -14 q 140 15 214 -14 q 33 87 65 44 q 0 171 0 129 q 1 185 0 181 q 17 211 4 200 q 43 222 29 222 l 285 222 l 290 222 q 316 213 304 221 q 331 203 328 204 q 356 186 344 192 q 382 181 367 181 q 406 186 394 181 q 418 201 417 192 q 415 225 421 215 q 379 244 408 235 q 288 267 350 254 q 136 329 194 285 q 78 451 78 374 q 83 499 78 476 q 149 615 96 560 q 288 703 201 669 q 485 736 375 736 q 659 708 586 736 q 769 636 732 679 q 807 551 807 593 q 806 538 807 542 q 792 511 804 522 q 768 500 781 500 l 549 500 l 535 500 q 512 506 522 500 q 489 521 501 511 q 465 537 475 532 q 442 542 456 542 q 421 535 431 542 q 410 519 411 529 q 414 497 407 506 q 451 478 421 488 q 549 458 482 468 q 721 387 667 440 q 775 264 775 333 q 771 225 775 244 q 632 49 747 113 q 331 -14 517 -14 m 401 826 q 376 832 386 826 q 356 853 367 838 l 236 1022 q 233 1035 233 1028 q 241 1055 233 1047 q 260 1063 249 1063 l 340 1063 q 394 1053 376 1063 l 510 994 l 650 1053 q 707 1063 671 1063 l 810 1063 q 828 1046 828 1063 q 817 1022 828 1031 l 625 853 q 596 832 608 838 q 568 826 583 826 l 401 826 z "},"ş":{"ha":819,"x_min":0,"x_max":807,"o":"m 268 -306 q 195 -290 226 -306 q 164 -254 164 -274 q 176 -235 164 -243 l 211 -210 q 231 -201 224 -201 q 251 -208 235 -201 q 288 -214 267 -214 q 319 -204 306 -214 q 335 -181 332 -194 q 330 -157 338 -167 q 303 -147 322 -147 q 288 -149 294 -147 q 275 -151 281 -150 q 247 -156 260 -156 q 228 -147 235 -156 l 204 -118 q 197 -103 197 -108 q 211 -72 197 -92 l 253 -10 q 108 29 164 0 q 26 95 51 58 q 0 168 0 132 q 1 185 0 179 q 17 211 4 200 q 43 222 29 222 l 274 222 l 285 222 q 306 217 297 222 q 331 203 315 213 q 356 186 344 192 q 382 181 367 181 q 406 186 394 181 q 418 201 417 192 q 415 225 421 215 q 379 244 408 235 q 288 267 350 254 q 136 329 194 285 q 78 451 78 374 q 83 499 78 476 q 149 615 96 560 q 288 703 201 669 q 485 736 375 736 q 659 708 586 736 q 769 636 732 679 q 807 551 807 593 q 806 538 807 542 q 792 511 804 522 q 768 500 781 500 l 546 500 l 535 500 q 512 506 522 500 q 489 521 501 511 q 465 537 475 532 q 442 542 456 542 q 421 535 431 542 q 410 519 411 529 q 414 497 407 506 q 451 478 421 488 q 549 458 482 468 q 721 387 667 440 q 775 264 775 333 q 771 225 775 244 q 635 51 747 114 q 339 -14 522 -12 l 304 -62 q 326 -58 311 -60 q 347 -56 340 -56 q 414 -80 390 -56 q 438 -146 438 -104 q 389 -260 438 -214 q 268 -306 340 -306 z "},"ŝ":{"ha":822,"x_min":0,"x_max":807,"o":"m 331 -14 q 140 15 214 -14 q 33 87 65 44 q 0 171 0 129 q 1 185 0 181 q 17 211 4 200 q 43 222 29 222 l 285 222 l 290 222 q 316 213 304 221 q 331 203 328 204 q 356 186 344 192 q 382 181 367 181 q 406 186 394 181 q 418 201 417 192 q 415 225 421 215 q 379 244 408 235 q 288 267 350 254 q 136 329 194 285 q 78 451 78 374 q 83 499 78 476 q 149 615 96 560 q 288 703 201 669 q 485 736 375 736 q 659 708 586 736 q 769 636 732 679 q 807 551 807 593 q 806 538 807 542 q 792 511 804 522 q 768 500 781 500 l 549 500 l 535 500 q 512 506 522 500 q 489 521 501 511 q 465 537 475 532 q 442 542 456 542 q 421 535 431 542 q 410 519 411 529 q 414 497 407 506 q 451 478 421 488 q 549 458 482 468 q 721 387 667 440 q 775 264 775 333 q 771 225 775 244 q 632 49 747 113 q 331 -14 517 -14 m 196 826 q 178 843 178 826 q 189 867 178 858 l 381 1036 q 410 1057 397 1051 q 438 1063 422 1063 l 604 1063 q 629 1057 619 1063 q 650 1036 639 1051 l 769 867 q 772 854 772 861 q 765 834 772 842 q 746 826 757 826 l 665 826 q 611 836 629 826 l 496 894 l 356 836 q 299 826 335 826 l 196 826 z "},"ș":{"ha":822,"x_min":-31,"x_max":807,"o":"m 331 -14 q 140 15 214 -14 q 33 87 65 44 q 0 171 0 129 q 1 185 0 181 q 17 211 4 200 q 43 222 29 222 l 285 222 l 290 222 q 316 213 304 221 q 331 203 328 204 q 356 186 344 192 q 382 181 367 181 q 406 186 394 181 q 418 201 417 192 q 415 225 421 215 q 379 244 408 235 q 288 267 350 254 q 136 329 194 285 q 78 451 78 374 q 83 499 78 476 q 149 615 96 560 q 288 703 201 669 q 485 736 375 736 q 659 708 586 736 q 769 636 732 679 q 807 551 807 593 q 806 538 807 542 q 792 511 804 522 q 768 500 781 500 l 549 500 l 535 500 q 512 506 522 500 q 489 521 501 511 q 465 537 475 532 q 442 542 456 542 q 421 535 431 542 q 410 519 411 529 q 414 497 407 506 q 451 478 421 488 q 549 458 482 468 q 721 387 667 440 q 775 264 775 333 q 771 225 775 244 q 632 49 747 113 q 331 -14 517 -14 m -6 -347 q -25 -338 -18 -347 q -29 -317 -32 -329 l 40 -124 q 67 -85 49 -101 q 113 -69 86 -69 l 307 -69 q 326 -78 319 -69 q 331 -100 333 -87 q 329 -104 329 -101 q 326 -110 329 -107 l 210 -303 q 140 -347 182 -347 l -6 -347 z "},"ß":{"ha":947,"x_min":0,"x_max":954,"o":"m 32 0 q 8 11 17 0 q 3 38 0 22 l 128 628 q 285 887 163 789 q 614 986 408 985 q 872 921 789 985 q 954 754 954 857 q 949 697 954 724 q 908 597 936 639 q 829 521 879 554 q 914 372 914 472 q 906 300 914 340 q 832 156 889 225 q 678 44 775 88 q 453 0 581 0 l 404 0 q 374 10 383 0 q 367 38 364 21 l 400 196 q 418 224 403 213 q 454 233 433 235 l 457 233 q 536 262 503 233 q 569 335 569 290 q 548 381 569 364 q 486 397 526 397 l 483 397 q 451 435 444 397 l 481 571 q 494 599 485 589 q 528 608 504 608 l 532 608 q 607 634 576 610 q 638 693 638 658 q 618 735 638 719 q 564 751 599 751 q 453 638 476 751 l 325 38 q 308 11 322 22 q 279 0 294 0 l 32 0 z "},"ſ":{"ha":536,"x_min":40,"x_max":808,"o":"m 393 38 q 377 11 390 22 q 349 0 364 0 l 106 0 q 81 11 90 0 q 75 38 72 22 l 169 479 l 74 479 q 49 490 58 479 q 44 517 40 501 l 79 685 q 96 711 82 700 q 125 722 110 722 l 221 722 l 226 746 q 358 967 261 907 q 619 1028 454 1028 l 776 1028 q 800 1017 792 1028 q 806 990 808 1006 l 769 822 q 753 796 767 807 q 725 785 740 785 l 613 785 q 543 739 551 785 l 393 38 z "},"t":{"ha":735,"x_min":31,"x_max":750,"o":"m 433 0 q 208 51 290 0 q 125 217 125 101 q 135 299 125 256 l 174 479 l 64 479 q 40 490 49 479 q 35 517 31 501 l 69 685 q 86 711 72 700 q 115 722 100 722 l 225 722 l 274 949 q 290 975 276 964 q 318 986 303 986 l 561 986 q 585 975 576 986 q 592 949 594 964 l 543 722 l 718 722 q 742 711 733 722 q 747 685 750 700 l 713 517 q 695 490 708 501 q 667 479 682 479 l 492 479 l 458 326 q 456 303 456 310 q 504 257 456 257 l 631 257 q 654 246 646 257 q 660 219 663 235 l 621 38 q 605 11 618 22 q 576 0 592 0 l 433 0 z "},"ŧ":{"ha":738,"x_min":10,"x_max":753,"o":"m 422 0 q 205 49 282 0 q 128 211 128 99 q 138 299 128 254 l 153 368 l 43 368 q 19 379 28 368 q 14 406 10 390 l 28 476 q 45 503 32 492 q 74 514 58 514 l 183 514 l 197 576 l 88 576 q 63 588 72 576 q 57 614 54 599 l 72 685 q 89 711 75 700 q 118 722 103 722 l 228 722 l 276 949 q 292 975 279 964 q 321 986 306 986 l 564 986 q 588 975 579 986 q 594 949 597 964 l 546 722 l 721 722 q 744 711 736 722 q 750 685 753 700 l 735 614 q 719 588 732 599 q 690 576 706 576 l 515 576 l 501 514 l 676 514 q 701 503 692 514 q 706 476 710 492 l 692 406 q 674 379 688 390 q 646 368 661 368 l 471 368 l 461 326 q 458 303 458 310 q 507 257 458 257 l 633 257 q 657 246 649 257 q 663 219 665 235 l 624 38 q 608 11 621 22 q 579 0 594 0 l 422 0 z "},"ť":{"ha":869,"x_min":33,"x_max":1064,"o":"m 433 0 q 208 51 290 0 q 125 217 125 101 q 135 299 125 256 l 174 479 l 64 479 q 40 490 49 479 q 35 517 31 501 l 69 685 q 86 711 72 700 q 115 722 100 722 l 225 722 l 274 949 q 290 975 276 964 q 318 986 303 986 l 561 986 q 585 975 576 986 q 592 949 594 964 l 543 722 l 718 722 q 742 711 733 722 q 747 685 750 700 l 713 517 q 695 490 708 501 q 667 479 682 479 l 492 479 l 458 326 q 456 303 456 310 q 504 257 456 257 l 631 257 q 654 246 646 257 q 660 219 663 235 l 621 38 q 605 11 618 22 q 576 0 592 0 l 433 0 m 728 764 q 708 773 715 764 q 704 794 701 782 l 774 988 q 801 1026 782 1010 q 846 1042 819 1042 l 1040 1042 q 1060 1033 1053 1042 q 1064 1011 1067 1024 q 1063 1007 1063 1010 q 1060 1001 1063 1004 l 943 808 q 874 764 915 764 l 728 764 z "},"ț":{"ha":735,"x_min":-42,"x_max":749,"o":"m 433 0 q 208 51 290 0 q 125 217 125 101 q 135 299 125 256 l 174 479 l 64 479 q 40 490 49 479 q 35 517 31 501 l 69 685 q 86 711 72 700 q 115 722 100 722 l 225 722 l 274 949 q 290 975 276 964 q 318 986 303 986 l 561 986 q 585 975 576 986 q 592 949 594 964 l 543 722 l 718 722 q 742 711 733 722 q 747 685 750 700 l 713 517 q 695 490 708 501 q 667 479 682 479 l 492 479 l 458 326 q 456 303 456 310 q 504 257 456 257 l 631 257 q 654 246 646 257 q 660 219 663 235 l 621 38 q 605 11 618 22 q 576 0 592 0 l 433 0 m -17 -347 q -36 -338 -29 -347 q -40 -317 -43 -329 l 29 -124 q 56 -85 38 -101 q 101 -69 75 -69 l 296 -69 q 315 -78 308 -69 q 319 -100 322 -87 q 318 -104 318 -101 q 315 -110 318 -107 l 199 -303 q 129 -347 171 -347 l -17 -347 z "},"u":{"ha":935,"x_min":22,"x_max":933,"o":"m 247 -14 q 87 43 151 -14 q 22 211 22 100 q 32 301 22 254 l 113 685 q 129 711 115 700 q 158 722 143 722 l 424 722 q 447 711 439 722 q 453 685 456 700 l 374 311 q 371 286 371 292 q 426 235 371 235 q 482 254 460 235 q 513 311 504 274 l 592 685 q 608 711 594 700 q 638 722 622 722 l 901 722 q 925 711 917 722 q 931 685 933 700 l 793 38 q 777 11 790 22 q 749 0 764 0 l 506 0 q 481 11 490 0 q 475 38 472 22 l 485 83 q 385 9 439 32 q 247 -14 331 -14 z "},"ú":{"ha":935,"x_min":22,"x_max":932,"o":"m 247 -14 q 87 43 151 -14 q 22 211 22 100 q 32 301 22 254 l 113 685 q 129 711 115 700 q 158 722 143 722 l 424 722 q 447 711 439 722 q 453 685 456 700 l 374 311 q 371 286 371 292 q 426 235 371 235 q 482 254 460 235 q 513 311 504 274 l 592 685 q 608 711 594 700 q 638 722 622 722 l 901 722 q 925 711 917 722 q 931 685 933 700 l 793 38 q 777 11 790 22 q 749 0 764 0 l 506 0 q 481 11 490 0 q 475 38 472 22 l 485 83 q 385 9 439 32 q 247 -14 331 -14 m 426 826 q 408 843 408 826 q 419 867 408 858 l 594 1036 q 624 1058 614 1053 q 651 1063 635 1063 l 910 1063 q 928 1055 922 1063 q 931 1035 933 1047 q 919 1018 929 1025 l 681 850 q 650 832 664 838 q 617 826 636 826 l 426 826 z "},"ŭ":{"ha":935,"x_min":22,"x_max":932,"o":"m 247 -14 q 87 43 151 -14 q 22 211 22 100 q 32 301 22 254 l 113 685 q 129 711 115 700 q 158 722 143 722 l 424 722 q 447 711 439 722 q 453 685 456 700 l 374 311 q 371 286 371 292 q 426 235 371 235 q 482 254 460 235 q 513 311 504 274 l 592 685 q 608 711 594 700 q 638 722 622 722 l 901 722 q 925 711 917 722 q 931 685 933 700 l 793 38 q 777 11 790 22 q 749 0 764 0 l 506 0 q 481 11 490 0 q 475 38 472 22 l 485 83 q 385 9 439 32 q 247 -14 331 -14 m 543 819 q 391 869 450 819 q 332 994 332 918 q 336 1036 332 1015 q 347 1055 339 1047 q 368 1063 356 1063 l 499 1063 q 517 1055 511 1063 q 519 1036 522 1047 q 517 1007 517 1017 q 558 960 517 960 q 606 981 588 960 q 631 1036 624 1001 q 642 1055 633 1047 q 663 1063 650 1063 l 793 1063 q 811 1055 806 1063 q 814 1036 817 1047 q 727 877 793 935 q 543 819 661 819 z "},"û":{"ha":935,"x_min":22,"x_max":932,"o":"m 247 -14 q 87 43 151 -14 q 22 211 22 100 q 32 301 22 254 l 113 685 q 129 711 115 700 q 158 722 143 722 l 424 722 q 447 711 439 722 q 453 685 456 700 l 374 311 q 371 286 371 292 q 426 235 371 235 q 482 254 460 235 q 513 311 504 274 l 592 685 q 608 711 594 700 q 638 722 622 722 l 901 722 q 925 711 917 722 q 931 685 933 700 l 793 38 q 777 11 790 22 q 749 0 764 0 l 506 0 q 481 11 490 0 q 475 38 472 22 l 485 83 q 385 9 439 32 q 247 -14 331 -14 m 253 826 q 235 843 235 826 q 246 867 235 858 l 438 1036 q 467 1057 454 1051 q 494 1063 479 1063 l 661 1063 q 686 1057 676 1063 q 707 1036 696 1051 l 826 867 q 829 854 829 861 q 822 834 829 842 q 803 826 814 826 l 722 826 q 668 836 686 826 l 553 894 l 413 836 q 356 826 392 826 l 253 826 z "},"ü":{"ha":935,"x_min":22,"x_max":932,"o":"m 247 -14 q 87 43 151 -14 q 22 211 22 100 q 32 301 22 254 l 113 685 q 129 711 115 700 q 158 722 143 722 l 424 722 q 447 711 439 722 q 453 685 456 700 l 374 311 q 371 286 371 292 q 426 235 371 235 q 482 254 460 235 q 513 311 504 274 l 592 685 q 608 711 594 700 q 638 722 622 722 l 901 722 q 925 711 917 722 q 931 685 933 700 l 793 38 q 777 11 790 22 q 749 0 764 0 l 506 0 q 481 11 490 0 q 475 38 472 22 l 485 83 q 385 9 439 32 q 247 -14 331 -14 m 293 826 q 272 835 279 826 q 268 858 265 844 l 304 1031 q 318 1053 307 1044 q 343 1063 329 1063 l 515 1063 q 536 1053 529 1063 q 540 1031 543 1044 l 504 858 q 490 835 501 844 q 465 826 479 826 l 293 826 m 625 826 q 604 835 611 826 q 600 858 597 844 l 636 1031 q 650 1053 639 1044 q 675 1063 661 1063 l 847 1063 q 868 1053 861 1063 q 872 1031 875 1044 l 836 858 q 822 835 833 844 q 797 826 811 826 l 625 826 z "},"ù":{"ha":935,"x_min":22,"x_max":932,"o":"m 247 -14 q 87 43 151 -14 q 22 211 22 100 q 32 301 22 254 l 113 685 q 129 711 115 700 q 158 722 143 722 l 424 722 q 447 711 439 722 q 453 685 456 700 l 374 311 q 371 286 371 292 q 426 235 371 235 q 482 254 460 235 q 513 311 504 274 l 592 685 q 608 711 594 700 q 638 722 622 722 l 901 722 q 925 711 917 722 q 931 685 933 700 l 793 38 q 777 11 790 22 q 749 0 764 0 l 506 0 q 481 11 490 0 q 475 38 472 22 l 485 83 q 385 9 439 32 q 247 -14 331 -14 m 438 826 q 408 832 418 826 q 385 850 397 838 l 215 1018 q 213 1029 213 1024 q 222 1053 213 1043 q 244 1063 231 1063 l 517 1063 q 542 1058 533 1063 q 563 1036 551 1053 l 665 867 q 668 854 668 861 q 660 834 668 842 q 642 826 653 826 l 438 826 z "},"ű":{"ha":935,"x_min":22,"x_max":1033,"o":"m 247 -14 q 87 43 151 -14 q 22 211 22 100 q 32 301 22 254 l 113 685 q 129 711 115 700 q 158 722 143 722 l 424 722 q 447 711 439 722 q 453 685 456 700 l 374 311 q 371 286 371 292 q 426 235 371 235 q 482 254 460 235 q 513 311 504 274 l 592 685 q 608 711 594 700 q 638 722 622 722 l 901 722 q 925 711 917 722 q 931 685 933 700 l 793 38 q 777 11 790 22 q 749 0 764 0 l 506 0 q 481 11 490 0 q 475 38 472 22 l 485 83 q 385 9 439 32 q 247 -14 331 -14 m 289 826 q 274 833 278 826 q 271 849 269 839 q 283 869 272 854 l 393 1036 q 416 1056 403 1050 q 450 1063 429 1063 l 654 1063 q 673 1056 667 1063 q 676 1036 679 1049 q 664 1018 675 1026 l 469 846 q 418 826 447 826 l 289 826 m 644 826 q 629 833 633 826 q 626 849 625 839 q 639 869 628 854 l 749 1036 q 772 1056 758 1050 q 806 1063 785 1063 l 1010 1063 q 1028 1056 1022 1063 q 1032 1036 1035 1049 q 1019 1018 1031 1026 l 825 846 q 774 826 803 826 l 644 826 z "},"ū":{"ha":935,"x_min":22,"x_max":932,"o":"m 247 -14 q 87 43 151 -14 q 22 211 22 100 q 32 301 22 254 l 113 685 q 129 711 115 700 q 158 722 143 722 l 424 722 q 447 711 439 722 q 453 685 456 700 l 374 311 q 371 286 371 292 q 426 235 371 235 q 482 254 460 235 q 513 311 504 274 l 592 685 q 608 711 594 700 q 638 722 622 722 l 901 722 q 925 711 917 722 q 931 685 933 700 l 793 38 q 777 11 790 22 q 749 0 764 0 l 506 0 q 481 11 490 0 q 475 38 472 22 l 485 83 q 385 9 439 32 q 247 -14 331 -14 m 311 826 q 290 835 297 826 q 286 858 283 844 l 317 1003 q 331 1026 319 1017 q 356 1035 342 1035 l 810 1035 q 831 1026 824 1035 q 835 1003 838 1017 l 804 858 q 790 835 801 844 q 765 826 779 826 l 311 826 z "},"ų":{"ha":936,"x_min":40,"x_max":954,"o":"m 683 -306 q 536 -260 583 -306 q 489 -135 489 -214 q 496 -68 489 -97 q 517 0 501 -39 q 499 13 506 3 q 496 38 493 24 l 506 83 q 397 10 463 35 q 254 -14 332 -14 q 100 42 160 -14 q 40 206 40 97 q 51 301 40 246 l 133 685 q 150 711 136 700 q 179 722 164 722 l 444 722 q 468 711 460 722 q 474 685 476 700 l 394 311 q 392 286 392 292 q 447 235 392 235 q 503 254 481 235 q 533 311 525 274 l 613 685 q 629 711 615 700 q 658 722 643 722 l 922 722 q 946 711 938 722 q 951 685 954 700 l 814 38 q 797 11 811 22 q 768 0 783 0 l 746 0 q 695 -22 714 -1 q 671 -68 676 -43 q 668 -86 668 -79 q 682 -122 668 -107 q 725 -136 696 -136 l 739 -136 q 763 -147 754 -136 q 769 -174 772 -158 l 749 -268 q 732 -294 746 -283 q 703 -306 718 -306 l 683 -306 z "},"ů":{"ha":935,"x_min":22,"x_max":932,"o":"m 247 -14 q 87 43 151 -14 q 22 211 22 100 q 32 301 22 254 l 113 685 q 129 711 115 700 q 158 722 143 722 l 424 722 q 447 711 439 722 q 453 685 456 700 l 374 311 q 371 286 371 292 q 426 235 371 235 q 482 254 460 235 q 513 311 504 274 l 592 685 q 608 711 594 700 q 638 722 622 722 l 901 722 q 925 711 917 722 q 931 685 933 700 l 793 38 q 777 11 790 22 q 749 0 764 0 l 506 0 q 481 11 490 0 q 475 38 472 22 l 485 83 q 385 9 439 32 q 247 -14 331 -14 m 536 819 q 454 848 486 819 q 422 924 422 876 q 447 1003 422 967 q 510 1062 471 1040 q 592 1083 550 1083 q 674 1055 642 1083 q 706 979 706 1026 q 681 899 706 936 q 617 841 657 863 q 536 819 578 819 m 556 910 q 591 925 575 910 q 607 961 607 940 q 597 984 607 975 q 572 993 588 993 q 537 978 553 993 q 521 942 521 963 q 531 919 521 928 q 556 910 540 910 z "},"ũ":{"ha":935,"x_min":22,"x_max":932,"o":"m 247 -14 q 87 43 151 -14 q 22 211 22 100 q 32 301 22 254 l 113 685 q 129 711 115 700 q 158 722 143 722 l 424 722 q 447 711 439 722 q 453 685 456 700 l 374 311 q 371 286 371 292 q 426 235 371 235 q 482 254 460 235 q 513 311 504 274 l 592 685 q 608 711 594 700 q 638 722 622 722 l 901 722 q 925 711 917 722 q 931 685 933 700 l 793 38 q 777 11 790 22 q 749 0 764 0 l 506 0 q 481 11 490 0 q 475 38 472 22 l 485 83 q 385 9 439 32 q 247 -14 331 -14 m 665 819 q 613 827 635 819 q 564 849 590 835 q 528 865 542 860 q 499 869 514 869 q 473 863 483 869 q 451 846 463 857 q 436 831 443 836 q 419 826 429 826 l 303 826 q 286 834 292 826 q 282 851 281 842 q 351 999 299 928 q 503 1069 403 1069 q 556 1062 533 1069 q 606 1040 579 1054 q 641 1024 626 1029 q 671 1019 656 1019 q 696 1026 686 1019 q 717 1043 706 1032 q 731 1056 724 1050 q 749 1063 739 1063 l 865 1063 q 883 1055 878 1063 q 886 1036 889 1047 q 817 890 869 961 q 665 819 764 819 z "},"v":{"ha":878,"x_min":69,"x_max":925,"o":"m 242 0 q 215 9 224 0 q 203 35 207 18 l 72 679 q 80 710 69 697 q 114 722 90 722 l 335 722 q 374 689 368 722 l 415 365 l 596 689 q 649 722 614 722 l 897 722 q 918 715 911 722 q 925 699 925 708 q 919 679 925 686 l 517 35 q 493 8 504 17 q 464 0 482 0 l 242 0 z "},"w":{"ha":1211,"x_min":76,"x_max":1249,"o":"m 183 0 q 155 10 164 0 q 144 35 146 21 l 78 678 q 90 708 76 694 q 119 722 103 722 l 326 722 q 356 713 346 722 q 367 689 365 703 l 390 400 l 542 689 q 562 712 547 701 q 596 722 576 722 l 725 722 q 754 713 744 722 q 765 689 764 703 l 794 400 l 940 689 q 960 712 946 701 q 994 722 975 722 l 1222 722 q 1242 715 1235 722 q 1249 696 1249 707 q 1244 678 1249 686 l 906 35 q 853 0 885 0 l 667 0 q 638 10 647 0 q 628 35 629 21 l 575 315 l 415 35 q 363 0 394 0 l 183 0 z "},"ẃ":{"ha":1211,"x_min":78,"x_max":1249,"o":"m 183 0 q 155 10 164 0 q 144 35 146 21 l 78 678 q 90 708 76 694 q 119 722 103 722 l 326 722 q 356 713 346 722 q 367 689 365 703 l 390 400 l 542 689 q 562 712 547 701 q 596 722 576 722 l 725 722 q 754 713 744 722 q 765 689 764 703 l 794 400 l 940 689 q 960 712 946 701 q 994 722 975 722 l 1222 722 q 1242 715 1235 722 q 1249 696 1249 707 q 1244 678 1249 686 l 906 35 q 853 0 885 0 l 667 0 q 638 10 647 0 q 628 35 629 21 l 575 315 l 415 35 q 363 0 394 0 l 183 0 m 564 826 q 546 843 546 826 q 557 867 546 858 l 732 1036 q 762 1058 751 1053 q 789 1063 772 1063 l 1047 1063 q 1065 1055 1060 1063 q 1068 1035 1071 1047 q 1057 1018 1067 1025 l 818 850 q 788 832 801 838 q 754 826 774 826 l 564 826 z "},"ŵ":{"ha":1211,"x_min":78,"x_max":1249,"o":"m 183 0 q 155 10 164 0 q 144 35 146 21 l 78 678 q 90 708 76 694 q 119 722 103 722 l 326 722 q 356 713 346 722 q 367 689 365 703 l 390 400 l 542 689 q 562 712 547 701 q 596 722 576 722 l 725 722 q 754 713 744 722 q 765 689 764 703 l 794 400 l 940 689 q 960 712 946 701 q 994 722 975 722 l 1222 722 q 1242 715 1235 722 q 1249 696 1249 707 q 1244 678 1249 686 l 906 35 q 853 0 885 0 l 667 0 q 638 10 647 0 q 628 35 629 21 l 575 315 l 415 35 q 363 0 394 0 l 183 0 m 381 826 q 363 843 363 826 q 374 867 363 858 l 565 1036 q 594 1057 582 1051 q 622 1063 607 1063 l 789 1063 q 814 1057 804 1063 q 835 1036 824 1051 l 954 867 q 957 854 957 861 q 949 834 957 842 q 931 826 942 826 l 850 826 q 796 836 814 826 l 681 894 l 540 836 q 483 826 519 826 l 381 826 z "},"ẅ":{"ha":1211,"x_min":78,"x_max":1249,"o":"m 183 0 q 155 10 164 0 q 144 35 146 21 l 78 678 q 90 708 76 694 q 119 722 103 722 l 326 722 q 356 713 346 722 q 367 689 365 703 l 390 400 l 542 689 q 562 712 547 701 q 596 722 576 722 l 725 722 q 754 713 744 722 q 765 689 764 703 l 794 400 l 940 689 q 960 712 946 701 q 994 722 975 722 l 1222 722 q 1242 715 1235 722 q 1249 696 1249 707 q 1244 678 1249 686 l 906 35 q 853 0 885 0 l 667 0 q 638 10 647 0 q 628 35 629 21 l 575 315 l 415 35 q 363 0 394 0 l 183 0 m 411 826 q 390 835 397 826 q 386 858 383 844 l 422 1031 q 436 1053 425 1044 q 461 1063 447 1063 l 633 1063 q 654 1053 647 1063 q 658 1031 661 1044 l 622 858 q 608 835 619 844 q 583 826 597 826 l 411 826 m 743 826 q 722 835 729 826 q 718 858 715 844 l 754 1031 q 768 1053 757 1044 q 793 1063 779 1063 l 965 1063 q 986 1053 979 1063 q 990 1031 993 1044 l 954 858 q 940 835 951 844 q 915 826 929 826 l 743 826 z "},"ẁ":{"ha":1211,"x_min":78,"x_max":1249,"o":"m 183 0 q 155 10 164 0 q 144 35 146 21 l 78 678 q 90 708 76 694 q 119 722 103 722 l 326 722 q 356 713 346 722 q 367 689 365 703 l 390 400 l 542 689 q 562 712 547 701 q 596 722 576 722 l 725 722 q 754 713 744 722 q 765 689 764 703 l 794 400 l 940 689 q 960 712 946 701 q 994 722 975 722 l 1222 722 q 1242 715 1235 722 q 1249 696 1249 707 q 1244 678 1249 686 l 906 35 q 853 0 885 0 l 667 0 q 638 10 647 0 q 628 35 629 21 l 575 315 l 415 35 q 363 0 394 0 l 183 0 m 572 826 q 542 832 553 826 q 519 850 532 838 l 350 1018 q 347 1029 347 1024 q 356 1053 347 1043 q 379 1063 365 1063 l 651 1063 q 677 1058 668 1063 q 697 1036 686 1053 l 800 867 q 803 854 803 861 q 795 834 803 842 q 776 826 788 826 l 572 826 z "},"x":{"ha":876,"x_min":-78,"x_max":918,"o":"m -51 0 q -71 8 -64 0 q -78 26 -78 15 q -69 51 -78 42 l 229 382 l 96 671 q 103 706 90 689 q 135 722 115 722 l 381 722 q 406 715 399 722 q 419 696 414 707 l 472 582 l 575 696 q 625 722 597 722 l 892 722 q 911 715 904 722 q 918 696 918 707 q 908 671 918 681 l 635 364 l 778 51 q 782 36 782 43 q 771 10 782 21 q 740 0 760 0 l 488 0 q 464 6 471 0 q 450 24 457 13 l 389 157 l 268 24 q 222 0 249 0 l -51 0 z "},"y":{"ha":897,"x_min":38,"x_max":949,"o":"m 63 -264 q 44 -257 51 -264 q 38 -239 38 -250 q 43 -221 38 -228 l 211 46 l 76 679 q 85 709 74 696 q 119 722 97 722 l 340 722 q 378 689 372 722 l 432 372 l 624 689 q 678 722 643 722 l 924 722 q 949 697 949 722 q 944 679 949 688 l 360 -231 q 304 -264 340 -264 l 63 -264 z "},"ý":{"ha":897,"x_min":38,"x_max":949,"o":"m 63 -264 q 44 -257 51 -264 q 38 -239 38 -250 q 43 -221 38 -228 l 211 46 l 76 679 q 85 709 74 696 q 119 722 97 722 l 340 722 q 378 689 372 722 l 432 372 l 624 689 q 678 722 643 722 l 924 722 q 949 697 949 722 q 944 679 949 688 l 360 -231 q 304 -264 340 -264 l 63 -264 m 407 826 q 389 843 389 826 q 400 867 389 858 l 575 1036 q 605 1058 594 1053 q 632 1063 615 1063 l 890 1063 q 908 1055 903 1063 q 911 1035 914 1047 q 900 1018 910 1025 l 661 850 q 631 832 644 838 q 597 826 617 826 l 407 826 z "},"ŷ":{"ha":897,"x_min":38,"x_max":949,"o":"m 63 -264 q 44 -257 51 -264 q 38 -239 38 -250 q 43 -221 38 -228 l 211 46 l 76 679 q 85 709 74 696 q 119 722 97 722 l 340 722 q 378 689 372 722 l 432 372 l 624 689 q 678 722 643 722 l 924 722 q 949 697 949 722 q 944 679 949 688 l 360 -231 q 304 -264 340 -264 l 63 -264 m 225 826 q 207 843 207 826 q 218 867 207 858 l 410 1036 q 439 1057 426 1051 q 467 1063 451 1063 l 633 1063 q 658 1057 649 1063 q 679 1036 668 1051 l 799 867 q 801 854 801 861 q 794 834 801 842 q 775 826 786 826 l 694 826 q 640 836 658 826 l 525 894 l 385 836 q 328 826 364 826 l 225 826 z "},"ÿ":{"ha":897,"x_min":38,"x_max":949,"o":"m 63 -264 q 44 -257 51 -264 q 38 -239 38 -250 q 43 -221 38 -228 l 211 46 l 76 679 q 85 709 74 696 q 119 722 97 722 l 340 722 q 378 689 372 722 l 432 372 l 624 689 q 678 722 643 722 l 924 722 q 949 697 949 722 q 944 679 949 688 l 360 -231 q 304 -264 340 -264 l 63 -264 m 264 826 q 243 835 250 826 q 239 858 236 844 l 275 1031 q 289 1053 278 1044 q 314 1063 300 1063 l 486 1063 q 507 1053 500 1063 q 511 1031 514 1044 l 475 858 q 461 835 472 844 q 436 826 450 826 l 264 826 m 596 826 q 575 835 582 826 q 571 858 568 844 l 607 1031 q 621 1053 610 1044 q 646 1063 632 1063 l 818 1063 q 839 1053 832 1063 q 843 1031 846 1044 l 807 858 q 793 835 804 844 q 768 826 782 826 l 596 826 z "},"ỳ":{"ha":897,"x_min":38,"x_max":949,"o":"m 63 -264 q 44 -257 51 -264 q 38 -239 38 -250 q 43 -221 38 -228 l 211 46 l 76 679 q 85 709 74 696 q 119 722 97 722 l 340 722 q 378 689 372 722 l 432 372 l 624 689 q 678 722 643 722 l 924 722 q 949 697 949 722 q 944 679 949 688 l 360 -231 q 304 -264 340 -264 l 63 -264 m 425 826 q 395 832 406 826 q 372 850 385 838 l 203 1018 q 200 1029 200 1024 q 209 1053 200 1043 q 232 1063 218 1063 l 504 1063 q 530 1058 521 1063 q 550 1036 539 1053 l 653 867 q 656 854 656 861 q 648 834 656 842 q 629 826 640 826 l 425 826 z "},"z":{"ha":821,"x_min":-32,"x_max":810,"o":"m 1 0 q -23 11 -14 0 q -29 38 -32 22 l 6 197 q 38 246 11 226 l 350 483 l 113 483 q 89 494 97 483 q 83 521 81 506 l 118 685 q 135 711 121 700 q 164 722 149 722 l 778 722 q 801 711 793 722 q 807 685 810 700 l 771 510 q 742 469 765 486 l 443 239 l 704 239 q 728 228 719 239 q 733 201 738 217 l 699 38 q 683 11 696 22 q 654 0 669 0 l 1 0 z "},"ź":{"ha":821,"x_min":-31,"x_max":869,"o":"m 1 0 q -23 11 -14 0 q -29 38 -32 22 l 6 197 q 38 246 11 226 l 350 483 l 113 483 q 89 494 97 483 q 83 521 81 506 l 118 685 q 135 711 121 700 q 164 722 149 722 l 778 722 q 801 711 793 722 q 807 685 810 700 l 771 510 q 742 469 765 486 l 443 239 l 704 239 q 728 228 719 239 q 733 201 738 217 l 699 38 q 683 11 696 22 q 654 0 669 0 l 1 0 m 365 826 q 347 843 347 826 q 358 867 347 858 l 533 1036 q 563 1058 553 1053 q 590 1063 574 1063 l 849 1063 q 867 1055 861 1063 q 869 1035 872 1047 q 858 1018 868 1025 l 619 850 q 589 832 603 838 q 556 826 575 826 l 365 826 z "},"ž":{"ha":821,"x_min":-31,"x_max":832,"o":"m 1 0 q -23 11 -14 0 q -29 38 -32 22 l 6 197 q 38 246 11 226 l 350 483 l 113 483 q 89 494 97 483 q 83 521 81 506 l 118 685 q 135 711 121 700 q 164 722 149 722 l 778 722 q 801 711 793 722 q 807 685 810 700 l 771 510 q 742 469 765 486 l 443 239 l 704 239 q 728 228 719 239 q 733 201 738 217 l 699 38 q 683 11 696 22 q 654 0 669 0 l 1 0 m 406 826 q 381 832 390 826 q 360 853 371 838 l 240 1022 q 238 1035 238 1028 q 245 1055 238 1047 q 264 1063 253 1063 l 344 1063 q 399 1053 381 1063 l 514 994 l 654 1053 q 711 1063 675 1063 l 814 1063 q 832 1046 832 1063 q 821 1022 832 1031 l 629 853 q 600 832 613 838 q 572 826 588 826 l 406 826 z "},"ż":{"ha":821,"x_min":-31,"x_max":808,"o":"m 1 0 q -23 11 -14 0 q -29 38 -32 22 l 6 197 q 38 246 11 226 l 350 483 l 113 483 q 89 494 97 483 q 83 521 81 506 l 118 685 q 135 711 121 700 q 164 722 149 722 l 778 722 q 801 711 793 722 q 807 685 810 700 l 771 510 q 742 469 765 486 l 443 239 l 704 239 q 728 228 719 239 q 733 201 738 217 l 699 38 q 683 11 696 22 q 654 0 669 0 l 1 0 m 399 826 q 378 835 385 826 q 374 858 371 844 l 413 1040 q 426 1063 414 1054 q 451 1072 438 1072 l 633 1072 q 654 1063 647 1072 q 658 1040 661 1054 l 619 858 q 606 835 617 844 q 581 826 594 826 l 399 826 z "},"ﬀ":{"ha":1254,"x_min":40,"x_max":1381,"o":"m 1269 722 q 1293 711 1285 722 q 1299 685 1301 700 l 1264 517 q 1247 490 1260 501 q 1218 479 1233 479 l 1060 479 l 965 38 q 949 11 963 22 q 921 0 936 0 l 678 0 q 653 11 663 0 q 647 38 644 22 l 742 479 l 488 479 l 393 38 q 377 11 390 22 q 349 0 364 0 l 106 0 q 81 11 90 0 q 75 38 72 22 l 169 479 l 74 479 q 49 490 58 479 q 44 517 40 501 l 79 685 q 96 711 82 700 q 125 722 110 722 l 221 722 l 226 746 q 358 967 261 907 q 619 1028 454 1028 l 776 1028 q 800 1017 792 1028 q 806 990 808 1006 l 769 822 q 753 796 767 807 q 725 785 740 785 l 613 785 q 543 739 551 785 l 539 722 l 793 722 l 799 746 q 930 967 833 907 q 1192 1028 1026 1028 l 1349 1028 q 1372 1017 1364 1028 q 1378 990 1381 1006 l 1342 822 q 1326 796 1339 807 q 1297 785 1313 785 l 1185 785 q 1115 739 1124 785 l 1111 722 l 1269 722 z "},"ﬃ":{"ha":1663,"x_min":40,"x_max":1726,"o":"m 106 0 q 81 11 90 0 q 75 38 72 22 l 169 479 l 74 479 q 49 490 58 479 q 44 517 40 501 l 79 685 q 96 711 82 700 q 125 722 110 722 l 221 722 l 226 746 q 358 967 261 907 q 619 1028 454 1028 l 776 1028 q 800 1017 792 1028 q 806 990 808 1006 l 769 822 q 753 796 767 807 q 725 785 740 785 l 613 785 q 543 739 551 785 l 539 722 l 793 722 l 799 746 q 930 967 833 907 q 1192 1028 1026 1028 l 1694 1028 q 1718 1017 1710 1028 q 1724 990 1726 1006 l 1688 822 q 1672 796 1685 807 q 1643 785 1658 785 l 1185 785 q 1115 739 1124 785 l 1111 722 l 1629 722 q 1653 711 1644 722 q 1658 685 1661 700 l 1521 38 q 1505 11 1518 22 q 1476 0 1492 0 l 1233 0 q 1209 11 1218 0 q 1203 38 1200 22 l 1296 479 l 1060 479 l 965 38 q 949 11 963 22 q 921 0 936 0 l 678 0 q 653 11 663 0 q 647 38 644 22 l 742 479 l 488 479 l 393 38 q 377 11 390 22 q 349 0 364 0 l 106 0 z "},"ﬄ":{"ha":1681,"x_min":40,"x_max":1743,"o":"m 106 0 q 81 11 90 0 q 75 38 72 22 l 169 479 l 74 479 q 49 490 58 479 q 44 517 40 501 l 79 685 q 96 711 82 700 q 125 722 110 722 l 221 722 l 226 746 q 358 967 261 907 q 619 1028 454 1028 l 776 1028 q 800 1017 792 1028 q 806 990 808 1006 l 769 822 q 753 796 767 807 q 725 785 740 785 l 613 785 q 543 739 551 785 l 539 722 l 793 722 l 799 746 q 930 967 833 907 q 1192 1028 1026 1028 l 1321 1028 q 1344 1017 1336 1028 q 1350 990 1353 1006 l 1314 822 q 1298 796 1311 807 q 1269 785 1285 785 l 1185 785 q 1115 739 1124 785 l 1111 722 l 1365 722 l 1422 990 q 1438 1017 1425 1006 q 1467 1028 1451 1028 l 1710 1028 q 1734 1017 1725 1028 q 1740 990 1743 1006 l 1538 38 q 1522 11 1535 22 q 1493 0 1508 0 l 1250 0 q 1226 11 1235 0 q 1219 38 1217 22 l 1313 479 l 1060 479 l 965 38 q 949 11 963 22 q 921 0 936 0 l 678 0 q 653 11 663 0 q 647 38 644 22 l 742 479 l 488 479 l 393 38 q 377 11 390 22 q 349 0 364 0 l 106 0 z "},"ﬁ":{"ha":1090,"x_min":40,"x_max":1154,"o":"m 106 0 q 81 11 90 0 q 75 38 72 22 l 169 479 l 74 479 q 49 490 58 479 q 44 517 40 501 l 79 685 q 96 711 82 700 q 125 722 110 722 l 221 722 l 226 746 q 358 967 261 907 q 619 1028 454 1028 l 1122 1028 q 1146 1017 1138 1028 q 1151 990 1154 1006 l 1115 822 q 1099 796 1113 807 q 1071 785 1086 785 l 613 785 q 543 739 551 785 l 539 722 l 1057 722 q 1081 711 1072 722 q 1086 685 1089 700 l 949 38 q 933 11 946 22 q 904 0 919 0 l 661 0 q 637 11 646 0 q 631 38 628 22 l 724 479 l 488 479 l 393 38 q 377 11 390 22 q 349 0 364 0 l 106 0 z "},"ﬂ":{"ha":1108,"x_min":42,"x_max":1171,"o":"m 106 0 q 81 11 90 0 q 75 38 72 22 l 169 479 l 75 479 q 51 490 60 479 q 46 517 42 501 l 81 685 q 97 711 83 700 q 126 722 111 722 l 221 722 l 226 746 q 358 967 261 907 q 619 1028 454 1028 l 749 1028 q 772 1017 764 1028 q 778 990 781 1006 l 742 822 q 726 796 739 807 q 697 785 713 785 l 613 785 q 543 739 551 785 l 539 722 l 793 722 l 850 990 q 866 1017 853 1006 q 894 1028 879 1028 l 1138 1028 q 1162 1017 1153 1028 q 1168 990 1171 1006 l 965 38 q 949 11 963 22 q 921 0 936 0 l 678 0 q 653 11 663 0 q 647 38 644 22 l 740 479 l 488 479 l 393 38 q 377 11 390 22 q 349 0 364 0 l 106 0 z "},"ª":{"ha":485,"x_min":89,"x_max":524,"o":"m 207 596 q 121 621 153 596 q 89 686 89 646 q 92 708 89 694 q 275 831 113 804 l 353 843 l 356 864 q 351 876 356 872 q 338 879 347 879 q 311 868 325 879 q 285 857 297 857 l 164 857 q 154 862 157 857 q 153 874 151 867 q 208 947 165 914 q 347 979 250 979 q 476 949 428 979 q 524 858 524 918 q 519 825 524 844 l 476 622 q 467 608 474 614 q 453 603 461 603 l 329 603 q 316 609 321 603 q 313 622 311 615 l 317 642 q 268 608 297 619 q 207 596 239 596 m 278 701 q 333 756 322 701 l 293 746 q 254 719 257 736 l 254 715 q 278 701 254 701 z "},"º":{"ha":483,"x_min":103,"x_max":536,"o":"m 293 596 q 155 631 207 596 q 103 726 103 665 q 104 750 103 742 q 112 788 107 765 q 121 825 117 810 q 192 941 142 903 q 346 979 243 979 q 483 944 429 979 q 536 846 536 908 q 535 825 536 832 q 527 788 532 810 q 518 750 522 765 q 448 633 496 671 q 293 596 400 596 m 303 710 q 328 719 321 710 q 344 757 336 728 q 358 818 356 796 q 360 839 360 826 q 355 860 360 854 q 336 865 350 865 q 310 855 319 865 q 294 818 301 844 q 281 757 283 779 q 279 733 279 747 q 284 715 279 719 q 303 710 289 710 z "},"А":{"ha":1057,"x_min":-81,"x_max":978,"o":"m -56 0 q -74 7 -67 0 q -81 25 -81 14 q -76 40 -81 32 l 421 926 q 450 958 432 944 q 493 972 468 972 l 801 972 q 839 959 826 972 q 854 926 851 946 l 976 40 q 967 11 978 22 q 939 0 956 0 l 689 0 q 642 35 644 0 l 628 126 l 329 126 l 276 35 q 253 10 267 19 q 215 0 239 0 l -56 0 m 457 397 l 614 397 l 590 656 l 457 397 z "},"Б":{"ha":933,"x_min":-22,"x_max":969,"o":"m 11 0 q -13 11 -4 0 q -19 38 -22 22 l 172 935 q 188 961 175 950 q 217 972 201 972 l 936 972 q 960 961 951 972 q 967 935 969 950 l 922 725 q 905 699 918 710 q 876 688 892 688 l 467 688 l 453 621 l 578 621 q 828 558 739 621 q 917 381 917 494 q 910 314 917 343 q 756 83 878 167 q 446 0 633 0 l 11 0 m 468 239 q 520 261 499 239 q 549 314 542 283 q 550 331 550 319 q 537 372 550 356 q 500 389 524 389 l 403 389 l 371 239 l 468 239 z "},"В":{"ha":1018,"x_min":-6,"x_max":1024,"o":"m 26 0 q 2 11 11 0 q -4 38 -7 22 l 188 935 q 203 961 190 950 q 232 972 217 972 l 665 972 q 929 914 835 972 q 1024 743 1024 856 q 1017 681 1024 718 q 959 574 1004 621 q 868 507 914 528 q 935 445 910 488 q 961 350 961 403 q 957 306 961 329 q 820 74 924 149 q 529 0 717 0 l 26 0 m 581 607 q 627 626 608 607 q 651 669 646 644 q 653 686 653 675 q 642 719 653 706 q 608 733 632 733 l 492 733 l 464 607 l 581 607 m 515 239 q 568 260 547 239 q 593 307 589 281 q 596 325 596 318 q 583 360 596 346 q 544 375 569 375 l 415 375 l 386 239 l 515 239 z "},"Г":{"ha":832,"x_min":-22,"x_max":903,"o":"m 11 0 q -13 11 -4 0 q -19 38 -22 22 l 172 935 q 188 961 175 950 q 217 972 201 972 l 869 972 q 894 961 885 972 q 900 935 903 950 l 856 725 q 838 699 851 710 q 810 688 825 688 l 467 688 l 328 38 q 312 11 325 22 q 283 0 299 0 l 11 0 z "},"Ѓ":{"ha":836,"x_min":-21,"x_max":971,"o":"m 11 0 q -13 11 -4 0 q -19 38 -22 22 l 172 935 q 188 961 175 950 q 217 972 201 972 l 869 972 q 894 961 885 972 q 900 935 903 950 l 856 725 q 838 699 851 710 q 810 688 825 688 l 467 688 l 328 38 q 312 11 325 22 q 283 0 299 0 l 11 0 m 453 1042 q 435 1058 435 1042 q 446 1082 435 1074 l 621 1251 q 651 1273 640 1268 q 678 1278 661 1278 l 950 1278 q 968 1270 963 1278 q 971 1250 974 1263 q 960 1233 969 1240 l 721 1065 q 690 1047 704 1053 q 657 1042 676 1042 l 453 1042 z "},"Ґ":{"ha":847,"x_min":-7,"x_max":960,"o":"m 926 1167 q 951 1156 942 1167 q 957 1129 960 1144 l 871 725 q 853 699 867 710 q 825 688 840 688 l 482 688 l 343 38 q 327 11 340 22 q 299 0 314 0 l 26 0 q 2 11 11 0 q -4 38 -7 22 l 188 935 q 204 961 190 950 q 233 972 218 972 l 576 972 l 610 1129 q 626 1156 613 1144 q 654 1167 639 1167 l 926 1167 z "},"Д":{"ha":1174,"x_min":-71,"x_max":1151,"o":"m -37 -194 q -62 -184 -53 -194 q -68 -157 -71 -174 l 24 268 q 40 294 26 283 q 68 306 53 306 l 89 306 q 193 408 150 306 q 269 668 236 510 l 326 935 q 342 961 329 950 q 371 972 356 972 l 1118 972 q 1142 961 1133 972 q 1149 935 1151 950 l 1014 306 l 1076 306 q 1101 294 1092 306 q 1107 268 1110 283 l 1015 -157 q 999 -183 1013 -172 q 971 -194 986 -194 l 699 -194 q 674 -183 683 -194 q 668 -157 665 -172 l 701 0 l 313 0 l 279 -157 q 263 -183 276 -172 q 235 -194 250 -194 l -37 -194 m 667 306 l 744 667 l 603 667 l 593 624 q 485 306 550 418 l 667 306 z "},"Е":{"ha":925,"x_min":-7,"x_max":978,"o":"m 26 0 q 2 11 11 0 q -4 38 -7 22 l 188 935 q 203 961 190 950 q 232 972 217 972 l 944 972 q 969 961 960 972 q 975 935 978 950 l 933 739 q 916 713 929 724 q 888 701 903 701 l 471 701 l 451 614 l 838 614 q 862 603 853 614 q 868 576 871 592 l 829 396 q 813 369 826 381 q 783 358 799 358 l 397 358 l 379 271 l 807 271 q 831 260 822 271 q 836 233 839 249 l 794 38 q 778 11 792 22 q 750 0 765 0 l 26 0 z "},"Ѐ":{"ha":925,"x_min":-6,"x_max":976,"o":"m 26 0 q 2 11 11 0 q -4 38 -7 22 l 188 935 q 203 961 190 950 q 232 972 217 972 l 944 972 q 969 961 960 972 q 975 935 978 950 l 933 739 q 916 713 929 724 q 888 701 903 701 l 471 701 l 451 614 l 838 614 q 862 603 853 614 q 868 576 871 592 l 829 396 q 813 369 826 381 q 783 358 799 358 l 397 358 l 379 271 l 807 271 q 831 260 822 271 q 836 233 839 249 l 794 38 q 778 11 792 22 q 750 0 765 0 l 26 0 m 528 1042 q 498 1047 508 1042 q 475 1065 488 1053 l 306 1233 q 303 1244 303 1239 q 312 1268 303 1258 q 335 1278 321 1278 l 593 1278 q 619 1273 610 1278 q 639 1251 628 1268 l 742 1082 q 744 1069 744 1076 q 737 1049 744 1057 q 718 1042 729 1042 l 528 1042 z "},"Ё":{"ha":925,"x_min":-6,"x_max":976,"o":"m 26 0 q 2 11 11 0 q -4 38 -7 22 l 188 935 q 203 961 190 950 q 232 972 217 972 l 944 972 q 969 961 960 972 q 975 935 978 950 l 933 739 q 916 713 929 724 q 888 701 903 701 l 471 701 l 451 614 l 838 614 q 862 603 853 614 q 868 576 871 592 l 829 396 q 813 369 826 381 q 783 358 799 358 l 397 358 l 379 271 l 807 271 q 831 260 822 271 q 836 233 839 249 l 794 38 q 778 11 792 22 q 750 0 765 0 l 26 0 m 365 1076 q 344 1085 351 1076 q 340 1108 338 1094 l 376 1281 q 390 1303 379 1294 q 415 1313 401 1313 l 588 1313 q 608 1303 601 1313 q 613 1281 615 1294 l 576 1108 q 563 1085 574 1094 q 538 1076 551 1076 l 365 1076 m 697 1076 q 676 1085 683 1076 q 672 1108 669 1094 l 708 1281 q 722 1303 711 1294 q 747 1313 733 1313 l 919 1313 q 940 1303 933 1313 q 944 1281 947 1294 l 908 1108 q 894 1085 906 1094 q 869 1076 883 1076 l 697 1076 z "},"Ж":{"ha":1631,"x_min":-33,"x_max":1693,"o":"m 1665 972 q 1685 963 1678 972 q 1690 942 1693 954 q 1682 926 1688 932 l 1343 507 l 1519 46 q 1519 31 1522 39 q 1507 9 1518 18 q 1483 0 1496 0 l 1181 0 q 1147 10 1157 0 q 1129 32 1136 19 l 1024 338 l 976 338 l 913 38 q 897 10 910 21 q 868 0 883 0 l 610 0 q 585 10 594 0 q 579 38 576 21 l 643 338 l 624 338 l 388 32 q 325 0 361 0 l -6 0 q -26 9 -18 0 q -31 31 -33 18 q -22 46 -28 42 l 349 507 l 188 926 q 188 942 185 933 q 200 963 189 954 q 224 972 211 972 l 517 972 q 567 942 556 972 l 672 643 l 708 643 l 771 935 q 787 961 774 950 q 815 972 800 972 l 1074 972 q 1098 961 1089 972 q 1104 935 1107 950 l 1042 643 l 1064 643 l 1297 942 q 1358 972 1319 972 l 1665 972 z "},"З":{"ha":1004,"x_min":15,"x_max":992,"o":"m 407 -14 q 105 63 194 -14 q 15 249 15 140 q 17 274 15 265 q 30 295 18 286 q 54 304 42 304 l 326 304 q 352 299 343 304 q 369 282 361 293 q 401 261 381 268 q 457 254 421 254 q 537 267 511 254 q 569 307 563 281 q 571 319 571 311 q 483 361 571 361 l 379 361 q 356 374 364 361 q 350 401 347 386 l 386 568 q 403 596 389 583 q 432 608 417 608 l 536 608 q 624 674 624 608 q 554 715 624 715 q 494 706 517 715 q 463 688 471 697 q 440 670 450 675 q 413 665 431 665 l 138 665 q 118 674 125 665 q 114 696 111 683 q 274 899 151 811 q 621 986 396 986 q 816 954 732 986 q 946 867 900 922 q 992 742 992 811 q 986 696 992 726 q 839 511 958 569 q 933 349 933 460 q 926 290 933 321 q 837 130 907 199 q 656 24 767 61 q 407 -14 546 -14 z "},"И":{"ha":1124,"x_min":-7,"x_max":1163,"o":"m 26 0 q 2 11 11 0 q -4 38 -7 22 l 188 935 q 203 961 190 950 q 232 972 217 972 l 504 972 q 528 961 519 972 q 535 935 538 950 l 443 506 l 826 940 q 889 972 851 972 l 1129 972 q 1153 961 1144 972 q 1160 935 1163 950 l 968 38 q 952 11 965 22 q 924 0 939 0 l 651 0 q 627 11 636 0 q 621 38 618 22 l 706 435 l 329 32 q 303 8 317 17 q 267 0 289 0 l 26 0 z "},"Й":{"ha":1124,"x_min":-6,"x_max":1161,"o":"m 26 0 q 2 11 11 0 q -4 38 -7 22 l 188 935 q 203 961 190 950 q 232 972 217 972 l 504 972 q 528 961 519 972 q 535 935 538 950 l 443 506 l 826 940 q 889 972 851 972 l 1129 972 q 1153 961 1144 972 q 1160 935 1163 950 l 968 38 q 952 11 965 22 q 924 0 939 0 l 651 0 q 627 11 636 0 q 621 38 618 22 l 706 435 l 329 32 q 303 8 317 17 q 267 0 289 0 l 26 0 m 707 1029 q 533 1075 592 1029 q 475 1199 475 1121 q 481 1251 475 1228 q 492 1270 483 1263 q 513 1278 500 1278 l 678 1278 q 696 1270 690 1278 q 699 1251 701 1263 q 696 1228 696 1235 q 740 1189 696 1189 q 810 1251 797 1189 q 821 1270 813 1263 q 842 1278 829 1278 l 1007 1278 q 1025 1270 1019 1278 q 1028 1251 1031 1263 q 924 1090 1006 1151 q 707 1029 842 1029 z "},"Ѝ":{"ha":1124,"x_min":-6,"x_max":1161,"o":"m 26 0 q 2 11 11 0 q -4 38 -7 22 l 188 935 q 203 961 190 950 q 232 972 217 972 l 504 972 q 528 961 519 972 q 535 935 538 950 l 443 506 l 826 940 q 889 972 851 972 l 1129 972 q 1153 961 1144 972 q 1160 935 1163 950 l 968 38 q 952 11 965 22 q 924 0 939 0 l 651 0 q 627 11 636 0 q 621 38 618 22 l 706 435 l 329 32 q 303 8 317 17 q 267 0 289 0 l 26 0 m 628 1042 q 598 1047 608 1042 q 575 1065 588 1053 l 406 1233 q 403 1244 403 1239 q 412 1268 403 1258 q 435 1278 421 1278 l 693 1278 q 719 1273 710 1278 q 739 1251 728 1268 l 842 1082 q 844 1069 844 1076 q 837 1049 844 1057 q 818 1042 829 1042 l 628 1042 z "},"К":{"ha":1061,"x_min":-7,"x_max":1124,"o":"m 1096 972 q 1116 963 1108 972 q 1121 942 1124 954 q 1113 926 1118 932 l 774 507 l 950 46 q 950 31 953 39 q 938 9 949 18 q 914 0 926 0 l 611 0 q 577 10 588 0 q 560 32 567 19 l 454 338 l 407 338 l 343 38 q 327 11 340 22 q 299 0 314 0 l 26 0 q 2 10 11 0 q -4 38 -7 21 l 188 935 q 203 961 190 950 q 232 972 217 972 l 504 972 q 528 961 519 972 q 535 935 538 950 l 472 643 l 494 643 l 728 942 q 789 972 750 972 l 1096 972 z "},"Ќ":{"ha":1046,"x_min":-6,"x_max":1121,"o":"m 1096 972 q 1116 963 1108 972 q 1121 942 1124 954 q 1113 926 1118 932 l 774 507 l 950 46 q 950 31 953 39 q 938 9 949 18 q 914 0 926 0 l 611 0 q 577 10 588 0 q 560 32 567 19 l 454 338 l 407 338 l 343 38 q 327 11 340 22 q 299 0 314 0 l 26 0 q 2 10 11 0 q -4 38 -7 21 l 188 935 q 203 961 190 950 q 232 972 217 972 l 504 972 q 528 961 519 972 q 535 935 538 950 l 472 643 l 494 643 l 728 942 q 789 972 750 972 l 1096 972 m 478 1042 q 460 1058 460 1042 q 471 1082 460 1074 l 646 1251 q 676 1273 665 1268 q 703 1278 686 1278 l 975 1278 q 993 1270 988 1278 q 996 1250 999 1263 q 985 1233 994 1240 l 746 1065 q 715 1047 729 1053 q 682 1042 701 1042 l 478 1042 z "}}}
